<ttFont>
    <TTGlyph name=".notdef" xMin="66" yMin="-220" xMax="729" yMax="1030">
      <contour>
        <pt x="66" y="1030" on="1"/>
        <pt x="729" y="1030" on="1"/>
        <pt x="729" y="-220" on="1"/>
        <pt x="66" y="-220" on="1"/>
      </contour>
      <contour>
        <pt x="562" y="-65" on="1"/>
        <pt x="562" y="876" on="1"/>
        <pt x="233" y="876" on="1"/>
        <pt x="233" y="-65" on="1"/>
      </contour>
    </TTGlyph>
    <TTGlyph name="A" xMin="-5" yMin="0" xMax="739" yMax="740">
      <contour>
        <pt x="-5" y="10" on="1"/>
        <pt x="207" y="740" on="1"/>
        <pt x="528" y="740" on="1"/>
        <pt x="739" y="10" on="1"/>
        <pt x="739" y="0" on="1"/>
        <pt x="534" y="0" on="1"/>
        <pt x="491" y="154" on="1"/>
        <pt x="243" y="154" on="1"/>
        <pt x="201" y="0" on="1"/>
        <pt x="-5" y="0" on="1"/>
      </contour>
      <contour>
        <pt x="446" y="319" on="1"/>
        <pt x="413" y="451" on="1"/>
        <pt x="375" y="591" on="1"/>
        <pt x="359" y="591" on="1"/>
        <pt x="322" y="450" on="1"/>
        <pt x="288" y="319" on="1"/>
      </contour>
    </TTGlyph>
    <TTGlyph name="A.sc" xMin="-3" yMin="0" xMax="684" yMax="577">
      <contour>
        <pt x="-3" y="9" on="1"/>
        <pt x="189" y="577" on="1"/>
        <pt x="492" y="577" on="1"/>
        <pt x="684" y="9" on="1"/>
        <pt x="684" y="0" on="1"/>
        <pt x="489" y="0" on="1"/>
        <pt x="454" y="97" on="1"/>
        <pt x="226" y="97" on="1"/>
        <pt x="192" y="0" on="1"/>
        <pt x="-3" y="0" on="1"/>
      </contour>
      <contour>
        <pt x="419" y="230" on="1"/>
        <pt x="382" y="342" on="1"/>
        <pt x="349" y="439" on="1"/>
        <pt x="332" y="439" on="1"/>
        <pt x="298" y="341" on="1"/>
        <pt x="262" y="230" on="1"/>
      </contour>
    </TTGlyph>
    <TTGlyph name="AE" xMin="-9" yMin="0" xMax="951" yMax="740">
      <contour>
        <pt x="-9" y="9" on="1"/>
        <pt x="259" y="740" on="1"/>
        <pt x="936" y="740" on="1"/>
        <pt x="936" y="571" on="1"/>
        <pt x="653" y="571" on="1"/>
        <pt x="661" y="455" on="1"/>
        <pt x="927" y="455" on="1"/>
        <pt x="927" y="286" on="1"/>
        <pt x="674" y="286" on="1"/>
        <pt x="683" y="169" on="1"/>
        <pt x="951" y="169" on="1"/>
        <pt x="951" y="0" on="1"/>
        <pt x="472" y="0" on="1"/>
        <pt x="466" y="149" on="1"/>
        <pt x="258" y="149" on="1"/>
        <pt x="205" y="0" on="1"/>
        <pt x="-9" y="0" on="1"/>
      </contour>
      <contour>
        <pt x="321" y="323" on="1"/>
        <pt x="459" y="323" on="1"/>
        <pt x="448" y="588" on="1"/>
        <pt x="416" y="588" on="1"/>
      </contour>
    </TTGlyph>
    <TTGlyph name="AE.sc" xMin="-8" yMin="0" xMax="882" yMax="577">
      <contour>
        <pt x="-8" y="8" on="1"/>
        <pt x="240" y="577" on="1"/>
        <pt x="868" y="577" on="1"/>
        <pt x="868" y="425" on="1"/>
        <pt x="609" y="425" on="1"/>
        <pt x="615" y="357" on="1"/>
        <pt x="861" y="357" on="1"/>
        <pt x="861" y="220" on="1"/>
        <pt x="630" y="220" on="1"/>
        <pt x="637" y="153" on="1"/>
        <pt x="882" y="153" on="1"/>
        <pt x="882" y="0" on="1"/>
        <pt x="436" y="0" on="1"/>
        <pt x="432" y="97" on="1"/>
        <pt x="236" y="97" on="1"/>
        <pt x="194" y="0" on="1"/>
        <pt x="-8" y="0" on="1"/>
      </contour>
      <contour>
        <pt x="296" y="233" on="1"/>
        <pt x="424" y="233" on="1"/>
        <pt x="416" y="437" on="1"/>
        <pt x="387" y="437" on="1"/>
      </contour>
    </TTGlyph>
    <TTGlyph name="AEacute" xMin="-9" yMin="0" xMax="951" yMax="998">
      <contour>
        <pt x="456" y="809" on="1"/>
        <pt x="519" y="998" on="1"/>
        <pt x="734" y="998" on="1"/>
        <pt x="606" y="799" on="1"/>
      </contour>
      <contour>
        <pt x="-9" y="9" on="1"/>
        <pt x="259" y="740" on="1"/>
        <pt x="936" y="740" on="1"/>
        <pt x="936" y="571" on="1"/>
        <pt x="653" y="571" on="1"/>
        <pt x="661" y="455" on="1"/>
        <pt x="927" y="455" on="1"/>
        <pt x="927" y="286" on="1"/>
        <pt x="674" y="286" on="1"/>
        <pt x="683" y="169" on="1"/>
        <pt x="951" y="169" on="1"/>
        <pt x="951" y="0" on="1"/>
        <pt x="472" y="0" on="1"/>
        <pt x="466" y="149" on="1"/>
        <pt x="258" y="149" on="1"/>
        <pt x="205" y="0" on="1"/>
        <pt x="-9" y="0" on="1"/>
      </contour>
      <contour>
        <pt x="321" y="323" on="1"/>
        <pt x="459" y="323" on="1"/>
        <pt x="448" y="588" on="1"/>
        <pt x="416" y="588" on="1"/>
      </contour>
    </TTGlyph>
    <TTGlyph name="AEacute.sc" xMin="-8" yMin="0" xMax="882" yMax="794">
      <contour>
        <pt x="-8" y="8" on="1"/>
        <pt x="240" y="577" on="1"/>
        <pt x="868" y="577" on="1"/>
        <pt x="868" y="425" on="1"/>
        <pt x="609" y="425" on="1"/>
        <pt x="615" y="357" on="1"/>
        <pt x="861" y="357" on="1"/>
        <pt x="861" y="220" on="1"/>
        <pt x="630" y="220" on="1"/>
        <pt x="637" y="153" on="1"/>
        <pt x="882" y="153" on="1"/>
        <pt x="882" y="0" on="1"/>
        <pt x="436" y="0" on="1"/>
        <pt x="432" y="97" on="1"/>
        <pt x="236" y="97" on="1"/>
        <pt x="194" y="0" on="1"/>
        <pt x="-8" y="0" on="1"/>
      </contour>
      <contour>
        <pt x="424" y="233" on="1"/>
        <pt x="416" y="437" on="1"/>
        <pt x="387" y="437" on="1"/>
        <pt x="296" y="233" on="1"/>
      </contour>
      <contour>
        <pt x="417" y="634" on="1"/>
        <pt x="473" y="794" on="1"/>
        <pt x="676" y="794" on="1"/>
        <pt x="559" y="625" on="1"/>
      </contour>
    </TTGlyph>
    <TTGlyph name="Aacute" xMin="-5" yMin="0" xMax="739" yMax="998">
      <contour>
        <pt x="-5" y="10" on="1"/>
        <pt x="207" y="740" on="1"/>
        <pt x="528" y="740" on="1"/>
        <pt x="739" y="10" on="1"/>
        <pt x="739" y="0" on="1"/>
        <pt x="534" y="0" on="1"/>
        <pt x="491" y="154" on="1"/>
        <pt x="243" y="154" on="1"/>
        <pt x="201" y="0" on="1"/>
        <pt x="-5" y="0" on="1"/>
      </contour>
      <contour>
        <pt x="446" y="319" on="1"/>
        <pt x="413" y="451" on="1"/>
        <pt x="375" y="591" on="1"/>
        <pt x="359" y="591" on="1"/>
        <pt x="322" y="450" on="1"/>
        <pt x="288" y="319" on="1"/>
      </contour>
      <contour>
        <pt x="287" y="809" on="1"/>
        <pt x="350" y="998" on="1"/>
        <pt x="565" y="998" on="1"/>
        <pt x="437" y="799" on="1"/>
      </contour>
    </TTGlyph>
    <TTGlyph name="Aacute.sc" xMin="-3" yMin="0" xMax="684" yMax="794">
      <contour>
        <pt x="-3" y="9" on="1"/>
        <pt x="189" y="577" on="1"/>
        <pt x="492" y="577" on="1"/>
        <pt x="684" y="9" on="1"/>
        <pt x="684" y="0" on="1"/>
        <pt x="489" y="0" on="1"/>
        <pt x="454" y="97" on="1"/>
        <pt x="226" y="97" on="1"/>
        <pt x="192" y="0" on="1"/>
        <pt x="-3" y="0" on="1"/>
      </contour>
      <contour>
        <pt x="418" y="235" on="1"/>
        <pt x="382" y="342" on="1"/>
        <pt x="349" y="439" on="1"/>
        <pt x="332" y="439" on="1"/>
        <pt x="298" y="341" on="1"/>
        <pt x="263" y="235" on="1"/>
      </contour>
      <contour>
        <pt x="266" y="634" on="1"/>
        <pt x="322" y="794" on="1"/>
        <pt x="524" y="794" on="1"/>
        <pt x="407" y="625" on="1"/>
      </contour>
    </TTGlyph>
    <TTGlyph name="Abreve" xMin="-5" yMin="0" xMax="739" yMax="991">
      <contour>
        <pt x="-5" y="10" on="1"/>
        <pt x="207" y="740" on="1"/>
        <pt x="528" y="740" on="1"/>
        <pt x="739" y="10" on="1"/>
        <pt x="739" y="0" on="1"/>
        <pt x="534" y="0" on="1"/>
        <pt x="491" y="154" on="1"/>
        <pt x="243" y="154" on="1"/>
        <pt x="201" y="0" on="1"/>
        <pt x="-5" y="0" on="1"/>
      </contour>
      <contour>
        <pt x="446" y="319" on="1"/>
        <pt x="413" y="451" on="1"/>
        <pt x="375" y="591" on="1"/>
        <pt x="359" y="591" on="1"/>
        <pt x="322" y="450" on="1"/>
        <pt x="288" y="319" on="1"/>
      </contour>
      <contour>
        <pt x="369" y="801" on="1"/>
        <pt x="308" y="801" on="0"/>
        <pt x="223" y="829" on="0"/>
        <pt x="170" y="880" on="0"/>
        <pt x="146" y="949" on="0"/>
        <pt x="146" y="991" on="1"/>
        <pt x="284" y="991" on="1"/>
        <pt x="284" y="941" on="0"/>
        <pt x="318" y="896" on="0"/>
        <pt x="369" y="896" on="1"/>
        <pt x="419" y="896" on="0"/>
        <pt x="453" y="941" on="0"/>
        <pt x="453" y="991" on="1"/>
        <pt x="591" y="991" on="1"/>
        <pt x="591" y="949" on="0"/>
        <pt x="567" y="879" on="0"/>
        <pt x="513" y="829" on="0"/>
        <pt x="429" y="801" on="0"/>
      </contour>
    </TTGlyph>
    <TTGlyph name="Abreve.sc" xMin="-3" yMin="0" xMax="684" yMax="783">
      <contour>
        <pt x="341" y="623" on="1"/>
        <pt x="284" y="623" on="0"/>
        <pt x="204" y="647" on="0"/>
        <pt x="155" y="690" on="0"/>
        <pt x="133" y="748" on="0"/>
        <pt x="133" y="783" on="1"/>
        <pt x="263" y="783" on="1"/>
        <pt x="263" y="744" on="0"/>
        <pt x="293" y="710" on="0"/>
        <pt x="341" y="710" on="1"/>
        <pt x="388" y="710" on="0"/>
        <pt x="418" y="744" on="0"/>
        <pt x="418" y="783" on="1"/>
        <pt x="548" y="783" on="1"/>
        <pt x="548" y="748" on="0"/>
        <pt x="526" y="689" on="0"/>
        <pt x="476" y="647" on="0"/>
        <pt x="398" y="623" on="0"/>
      </contour>
      <contour>
        <pt x="-3" y="9" on="1"/>
        <pt x="189" y="577" on="1"/>
        <pt x="492" y="577" on="1"/>
        <pt x="684" y="9" on="1"/>
        <pt x="684" y="0" on="1"/>
        <pt x="489" y="0" on="1"/>
        <pt x="454" y="97" on="1"/>
        <pt x="226" y="97" on="1"/>
        <pt x="192" y="0" on="1"/>
        <pt x="-3" y="0" on="1"/>
      </contour>
      <contour>
        <pt x="418" y="235" on="1"/>
        <pt x="382" y="342" on="1"/>
        <pt x="349" y="439" on="1"/>
        <pt x="332" y="439" on="1"/>
        <pt x="298" y="341" on="1"/>
        <pt x="263" y="235" on="1"/>
      </contour>
    </TTGlyph>
    <TTGlyph name="Acircumflex" xMin="-5" yMin="0" xMax="739" yMax="1004">
      <contour>
        <pt x="-5" y="10" on="1"/>
        <pt x="207" y="740" on="1"/>
        <pt x="528" y="740" on="1"/>
        <pt x="739" y="10" on="1"/>
        <pt x="739" y="0" on="1"/>
        <pt x="534" y="0" on="1"/>
        <pt x="491" y="154" on="1"/>
        <pt x="243" y="154" on="1"/>
        <pt x="201" y="0" on="1"/>
        <pt x="-5" y="0" on="1"/>
      </contour>
      <contour>
        <pt x="446" y="319" on="1"/>
        <pt x="413" y="451" on="1"/>
        <pt x="375" y="591" on="1"/>
        <pt x="359" y="591" on="1"/>
        <pt x="322" y="450" on="1"/>
        <pt x="288" y="319" on="1"/>
      </contour>
      <contour>
        <pt x="167" y="928" on="1"/>
        <pt x="369" y="1004" on="1"/>
        <pt x="573" y="928" on="1"/>
        <pt x="573" y="792" on="1"/>
        <pt x="370" y="868" on="1"/>
        <pt x="167" y="792" on="1"/>
      </contour>
    </TTGlyph>
    <TTGlyph name="Acircumflex.sc" xMin="-3" yMin="0" xMax="684" yMax="800">
      <contour>
        <pt x="-3" y="9" on="1"/>
        <pt x="189" y="577" on="1"/>
        <pt x="492" y="577" on="1"/>
        <pt x="684" y="9" on="1"/>
        <pt x="684" y="0" on="1"/>
        <pt x="489" y="0" on="1"/>
        <pt x="454" y="97" on="1"/>
        <pt x="226" y="97" on="1"/>
        <pt x="192" y="0" on="1"/>
        <pt x="-3" y="0" on="1"/>
      </contour>
      <contour>
        <pt x="418" y="235" on="1"/>
        <pt x="382" y="342" on="1"/>
        <pt x="349" y="439" on="1"/>
        <pt x="332" y="439" on="1"/>
        <pt x="298" y="341" on="1"/>
        <pt x="263" y="235" on="1"/>
      </contour>
      <contour>
        <pt x="153" y="738" on="1"/>
        <pt x="341" y="800" on="1"/>
        <pt x="532" y="738" on="1"/>
        <pt x="532" y="613" on="1"/>
        <pt x="342" y="674" on="1"/>
        <pt x="153" y="613" on="1"/>
      </contour>
    </TTGlyph>
    <TTGlyph name="Adblgrave" xMin="-5" yMin="0" xMax="739" yMax="998">
      <contour>
        <pt x="-5" y="10" on="1"/>
        <pt x="207" y="740" on="1"/>
        <pt x="528" y="740" on="1"/>
        <pt x="739" y="10" on="1"/>
        <pt x="739" y="0" on="1"/>
        <pt x="534" y="0" on="1"/>
        <pt x="491" y="154" on="1"/>
        <pt x="243" y="154" on="1"/>
        <pt x="201" y="0" on="1"/>
        <pt x="-5" y="0" on="1"/>
      </contour>
      <contour>
        <pt x="446" y="319" on="1"/>
        <pt x="413" y="451" on="1"/>
        <pt x="375" y="591" on="1"/>
        <pt x="359" y="591" on="1"/>
        <pt x="322" y="450" on="1"/>
        <pt x="288" y="319" on="1"/>
      </contour>
      <contour>
        <pt x="188" y="799" on="1"/>
        <pt x="60" y="998" on="1"/>
        <pt x="254" y="998" on="1"/>
        <pt x="316" y="809" on="1"/>
      </contour>
      <contour>
        <pt x="413" y="799" on="1"/>
        <pt x="285" y="998" on="1"/>
        <pt x="479" y="998" on="1"/>
        <pt x="542" y="809" on="1"/>
      </contour>
    </TTGlyph>
    <TTGlyph name="Adblgrave.sc" xMin="-3" yMin="0" xMax="684" yMax="795">
      <contour>
        <pt x="-3" y="9" on="1"/>
        <pt x="189" y="577" on="1"/>
        <pt x="492" y="577" on="1"/>
        <pt x="684" y="9" on="1"/>
        <pt x="684" y="0" on="1"/>
        <pt x="489" y="0" on="1"/>
        <pt x="454" y="97" on="1"/>
        <pt x="226" y="97" on="1"/>
        <pt x="192" y="0" on="1"/>
        <pt x="-3" y="0" on="1"/>
      </contour>
      <contour>
        <pt x="418" y="235" on="1"/>
        <pt x="382" y="342" on="1"/>
        <pt x="349" y="439" on="1"/>
        <pt x="332" y="439" on="1"/>
        <pt x="298" y="341" on="1"/>
        <pt x="263" y="235" on="1"/>
      </contour>
      <contour>
        <pt x="52" y="795" on="1"/>
        <pt x="237" y="795" on="1"/>
        <pt x="293" y="633" on="1"/>
        <pt x="170" y="626" on="1"/>
      </contour>
      <contour>
        <pt x="261" y="795" on="1"/>
        <pt x="447" y="795" on="1"/>
        <pt x="502" y="633" on="1"/>
        <pt x="379" y="626" on="1"/>
      </contour>
    </TTGlyph>
    <TTGlyph name="Adieresis" xMin="-5" yMin="0" xMax="739" yMax="1014">
      <contour>
        <pt x="-5" y="10" on="1"/>
        <pt x="207" y="740" on="1"/>
        <pt x="528" y="740" on="1"/>
        <pt x="739" y="10" on="1"/>
        <pt x="739" y="0" on="1"/>
        <pt x="534" y="0" on="1"/>
        <pt x="491" y="154" on="1"/>
        <pt x="243" y="154" on="1"/>
        <pt x="201" y="0" on="1"/>
        <pt x="-5" y="0" on="1"/>
      </contour>
      <contour>
        <pt x="446" y="319" on="1"/>
        <pt x="413" y="451" on="1"/>
        <pt x="375" y="591" on="1"/>
        <pt x="359" y="591" on="1"/>
        <pt x="322" y="450" on="1"/>
        <pt x="288" y="319" on="1"/>
      </contour>
      <contour>
        <pt x="222" y="796" on="1"/>
        <pt x="161" y="796" on="0"/>
        <pt x="110" y="848" on="0"/>
        <pt x="110" y="905" on="1"/>
        <pt x="110" y="962" on="0"/>
        <pt x="161" y="1014" on="0"/>
        <pt x="222" y="1014" on="1"/>
        <pt x="282" y="1014" on="0"/>
        <pt x="334" y="962" on="0"/>
        <pt x="334" y="905" on="1"/>
        <pt x="334" y="848" on="0"/>
        <pt x="282" y="796" on="0"/>
      </contour>
      <contour>
        <pt x="514" y="796" on="1"/>
        <pt x="454" y="796" on="0"/>
        <pt x="403" y="848" on="0"/>
        <pt x="403" y="905" on="1"/>
        <pt x="403" y="962" on="0"/>
        <pt x="454" y="1014" on="0"/>
        <pt x="514" y="1014" on="1"/>
        <pt x="575" y="1014" on="0"/>
        <pt x="626" y="962" on="0"/>
        <pt x="626" y="905" on="1"/>
        <pt x="626" y="848" on="0"/>
        <pt x="575" y="796" on="0"/>
      </contour>
    </TTGlyph>
    <TTGlyph name="Adieresis.sc" xMin="-3" yMin="0" xMax="684" yMax="816">
      <contour>
        <pt x="206" y="616" on="1"/>
        <pt x="149" y="616" on="0"/>
        <pt x="101" y="663" on="0"/>
        <pt x="101" y="716" on="1"/>
        <pt x="101" y="769" on="0"/>
        <pt x="149" y="816" on="0"/>
        <pt x="206" y="816" on="1"/>
        <pt x="263" y="816" on="0"/>
        <pt x="311" y="767" on="0"/>
        <pt x="311" y="716" on="1"/>
        <pt x="311" y="664" on="0"/>
        <pt x="263" y="616" on="0"/>
      </contour>
      <contour>
        <pt x="476" y="616" on="1"/>
        <pt x="419" y="616" on="0"/>
        <pt x="371" y="663" on="0"/>
        <pt x="371" y="716" on="1"/>
        <pt x="371" y="769" on="0"/>
        <pt x="419" y="816" on="0"/>
        <pt x="476" y="816" on="1"/>
        <pt x="533" y="816" on="0"/>
        <pt x="581" y="767" on="0"/>
        <pt x="581" y="716" on="1"/>
        <pt x="581" y="664" on="0"/>
        <pt x="533" y="616" on="0"/>
      </contour>
      <contour>
        <pt x="-3" y="9" on="1"/>
        <pt x="189" y="577" on="1"/>
        <pt x="492" y="577" on="1"/>
        <pt x="684" y="9" on="1"/>
        <pt x="684" y="0" on="1"/>
        <pt x="489" y="0" on="1"/>
        <pt x="454" y="97" on="1"/>
        <pt x="226" y="97" on="1"/>
        <pt x="192" y="0" on="1"/>
        <pt x="-3" y="0" on="1"/>
      </contour>
      <contour>
        <pt x="418" y="235" on="1"/>
        <pt x="382" y="342" on="1"/>
        <pt x="349" y="439" on="1"/>
        <pt x="332" y="439" on="1"/>
        <pt x="298" y="341" on="1"/>
        <pt x="263" y="235" on="1"/>
      </contour>
    </TTGlyph>
    <TTGlyph name="Agrave" xMin="-5" yMin="0" xMax="739" yMax="998">
      <contour>
        <pt x="-5" y="10" on="1"/>
        <pt x="207" y="740" on="1"/>
        <pt x="528" y="740" on="1"/>
        <pt x="739" y="10" on="1"/>
        <pt x="739" y="0" on="1"/>
        <pt x="534" y="0" on="1"/>
        <pt x="491" y="154" on="1"/>
        <pt x="243" y="154" on="1"/>
        <pt x="201" y="0" on="1"/>
        <pt x="-5" y="0" on="1"/>
      </contour>
      <contour>
        <pt x="446" y="319" on="1"/>
        <pt x="413" y="451" on="1"/>
        <pt x="375" y="591" on="1"/>
        <pt x="359" y="591" on="1"/>
        <pt x="322" y="450" on="1"/>
        <pt x="288" y="319" on="1"/>
      </contour>
      <contour>
        <pt x="281" y="799" on="1"/>
        <pt x="153" y="998" on="1"/>
        <pt x="368" y="998" on="1"/>
        <pt x="430" y="809" on="1"/>
      </contour>
    </TTGlyph>
    <TTGlyph name="Agrave.sc" xMin="-3" yMin="0" xMax="684" yMax="794">
      <contour>
        <pt x="-3" y="9" on="1"/>
        <pt x="189" y="577" on="1"/>
        <pt x="492" y="577" on="1"/>
        <pt x="684" y="9" on="1"/>
        <pt x="684" y="0" on="1"/>
        <pt x="489" y="0" on="1"/>
        <pt x="454" y="97" on="1"/>
        <pt x="226" y="97" on="1"/>
        <pt x="192" y="0" on="1"/>
        <pt x="-3" y="0" on="1"/>
      </contour>
      <contour>
        <pt x="418" y="235" on="1"/>
        <pt x="382" y="342" on="1"/>
        <pt x="349" y="439" on="1"/>
        <pt x="332" y="439" on="1"/>
        <pt x="298" y="341" on="1"/>
        <pt x="263" y="235" on="1"/>
      </contour>
      <contour>
        <pt x="257" y="625" on="1"/>
        <pt x="140" y="794" on="1"/>
        <pt x="343" y="794" on="1"/>
        <pt x="398" y="632" on="1"/>
      </contour>
    </TTGlyph>
    <TTGlyph name="Ainvertedbreve" xMin="-5" yMin="0" xMax="739" yMax="1001">
      <contour>
        <pt x="-5" y="10" on="1"/>
        <pt x="207" y="740" on="1"/>
        <pt x="528" y="740" on="1"/>
        <pt x="739" y="10" on="1"/>
        <pt x="739" y="0" on="1"/>
        <pt x="534" y="0" on="1"/>
        <pt x="491" y="154" on="1"/>
        <pt x="243" y="154" on="1"/>
        <pt x="201" y="0" on="1"/>
        <pt x="-5" y="0" on="1"/>
      </contour>
      <contour>
        <pt x="446" y="319" on="1"/>
        <pt x="413" y="451" on="1"/>
        <pt x="375" y="591" on="1"/>
        <pt x="359" y="591" on="1"/>
        <pt x="322" y="450" on="1"/>
        <pt x="288" y="319" on="1"/>
      </contour>
      <contour>
        <pt x="453" y="811" on="1"/>
        <pt x="453" y="860" on="0"/>
        <pt x="419" y="905" on="0"/>
        <pt x="369" y="905" on="1"/>
        <pt x="318" y="905" on="0"/>
        <pt x="284" y="861" on="0"/>
        <pt x="284" y="811" on="1"/>
        <pt x="146" y="811" on="1"/>
        <pt x="146" y="853" on="0"/>
        <pt x="170" y="922" on="0"/>
        <pt x="223" y="973" on="0"/>
        <pt x="308" y="1001" on="0"/>
        <pt x="369" y="1001" on="1"/>
        <pt x="429" y="1001" on="0"/>
        <pt x="513" y="973" on="0"/>
        <pt x="567" y="923" on="0"/>
        <pt x="591" y="853" on="0"/>
        <pt x="591" y="811" on="1"/>
      </contour>
    </TTGlyph>
    <TTGlyph name="Ainvertedbreve.sc" xMin="-3" yMin="0" xMax="684" yMax="792">
      <contour>
        <pt x="135" y="632" on="1"/>
        <pt x="135" y="666" on="0"/>
        <pt x="157" y="725" on="0"/>
        <pt x="206" y="768" on="0"/>
        <pt x="285" y="792" on="0"/>
        <pt x="342" y="792" on="1"/>
        <pt x="399" y="792" on="0"/>
        <pt x="478" y="768" on="0"/>
        <pt x="527" y="726" on="0"/>
        <pt x="549" y="667" on="0"/>
        <pt x="549" y="632" on="1"/>
        <pt x="419" y="632" on="1"/>
        <pt x="419" y="670" on="0"/>
        <pt x="389" y="704" on="0"/>
        <pt x="342" y="704" on="1"/>
        <pt x="295" y="704" on="0"/>
        <pt x="265" y="670" on="0"/>
        <pt x="265" y="632" on="1"/>
      </contour>
      <contour>
        <pt x="-3" y="9" on="1"/>
        <pt x="189" y="577" on="1"/>
        <pt x="492" y="577" on="1"/>
        <pt x="684" y="9" on="1"/>
        <pt x="684" y="0" on="1"/>
        <pt x="489" y="0" on="1"/>
        <pt x="454" y="97" on="1"/>
        <pt x="226" y="97" on="1"/>
        <pt x="192" y="0" on="1"/>
        <pt x="-3" y="0" on="1"/>
      </contour>
      <contour>
        <pt x="418" y="235" on="1"/>
        <pt x="382" y="342" on="1"/>
        <pt x="349" y="439" on="1"/>
        <pt x="332" y="439" on="1"/>
        <pt x="298" y="341" on="1"/>
        <pt x="263" y="235" on="1"/>
      </contour>
    </TTGlyph>
    <TTGlyph name="Amacron" xMin="-5" yMin="0" xMax="739" yMax="976">
      <contour>
        <pt x="-5" y="10" on="1"/>
        <pt x="207" y="740" on="1"/>
        <pt x="528" y="740" on="1"/>
        <pt x="739" y="10" on="1"/>
        <pt x="739" y="0" on="1"/>
        <pt x="534" y="0" on="1"/>
        <pt x="491" y="154" on="1"/>
        <pt x="243" y="154" on="1"/>
        <pt x="201" y="0" on="1"/>
        <pt x="-5" y="0" on="1"/>
      </contour>
      <contour>
        <pt x="446" y="319" on="1"/>
        <pt x="413" y="451" on="1"/>
        <pt x="375" y="591" on="1"/>
        <pt x="359" y="591" on="1"/>
        <pt x="322" y="450" on="1"/>
        <pt x="288" y="319" on="1"/>
      </contour>
      <contour>
        <pt x="166" y="976" on="1"/>
        <pt x="571" y="976" on="1"/>
        <pt x="571" y="840" on="1"/>
        <pt x="166" y="840" on="1"/>
      </contour>
    </TTGlyph>
    <TTGlyph name="Amacron.sc" xMin="-3" yMin="0" xMax="684" yMax="781">
      <contour>
        <pt x="-3" y="9" on="1"/>
        <pt x="189" y="577" on="1"/>
        <pt x="492" y="577" on="1"/>
        <pt x="684" y="9" on="1"/>
        <pt x="684" y="0" on="1"/>
        <pt x="489" y="0" on="1"/>
        <pt x="454" y="97" on="1"/>
        <pt x="226" y="97" on="1"/>
        <pt x="192" y="0" on="1"/>
        <pt x="-3" y="0" on="1"/>
      </contour>
      <contour>
        <pt x="418" y="235" on="1"/>
        <pt x="382" y="342" on="1"/>
        <pt x="349" y="439" on="1"/>
        <pt x="332" y="439" on="1"/>
        <pt x="298" y="341" on="1"/>
        <pt x="263" y="235" on="1"/>
      </contour>
      <contour>
        <pt x="153" y="781" on="1"/>
        <pt x="530" y="781" on="1"/>
        <pt x="530" y="655" on="1"/>
        <pt x="153" y="655" on="1"/>
      </contour>
    </TTGlyph>
    <TTGlyph name="Aogonek" xMin="-6" yMin="-220" xMax="739" yMax="740">
      <contour>
        <pt x="643" y="-220" on="1"/>
        <pt x="568" y="-220" on="0"/>
        <pt x="488" y="-169" on="0"/>
        <pt x="488" y="-120" on="1"/>
        <pt x="488" y="-54" on="0"/>
        <pt x="566" y="0" on="1"/>
        <pt x="533" y="0" on="1"/>
        <pt x="490" y="154" on="1"/>
        <pt x="242" y="154" on="1"/>
        <pt x="200" y="0" on="1"/>
        <pt x="-6" y="0" on="1"/>
        <pt x="-6" y="10" on="1"/>
        <pt x="206" y="740" on="1"/>
        <pt x="527" y="740" on="1"/>
        <pt x="738" y="10" on="1"/>
        <pt x="738" y="-5" on="1"/>
        <pt x="704" y="-18" on="0"/>
        <pt x="659" y="-42" on="0"/>
        <pt x="632" y="-63" on="0"/>
        <pt x="621" y="-82" on="0"/>
        <pt x="621" y="-90" on="1"/>
        <pt x="621" y="-109" on="0"/>
        <pt x="651" y="-109" on="1"/>
        <pt x="667" y="-109" on="0"/>
        <pt x="718" y="-100" on="0"/>
        <pt x="739" y="-94" on="1"/>
        <pt x="739" y="-208" on="1"/>
        <pt x="715" y="-214" on="0"/>
        <pt x="669" y="-220" on="0"/>
      </contour>
      <contour>
        <pt x="445" y="319" on="1"/>
        <pt x="412" y="451" on="1"/>
        <pt x="374" y="591" on="1"/>
        <pt x="358" y="591" on="1"/>
        <pt x="321" y="450" on="1"/>
        <pt x="287" y="319" on="1"/>
      </contour>
    </TTGlyph>
    <TTGlyph name="Aogonek.sc" xMin="-4" yMin="-169" xMax="685" yMax="577">
      <contour>
        <pt x="596" y="-169" on="1"/>
        <pt x="526" y="-169" on="0"/>
        <pt x="452" y="-125" on="0"/>
        <pt x="452" y="-87" on="1"/>
        <pt x="452" y="-64" on="0"/>
        <pt x="485" y="-15" on="0"/>
        <pt x="512" y="0" on="1"/>
        <pt x="489" y="0" on="1"/>
        <pt x="454" y="97" on="1"/>
        <pt x="226" y="97" on="1"/>
        <pt x="191" y="0" on="1"/>
        <pt x="-4" y="0" on="1"/>
        <pt x="-4" y="9" on="1"/>
        <pt x="189" y="577" on="1"/>
        <pt x="492" y="577" on="1"/>
        <pt x="684" y="9" on="1"/>
        <pt x="684" y="-1" on="1"/>
        <pt x="648" y="-13" on="0"/>
        <pt x="605" y="-32" on="0"/>
        <pt x="582" y="-45" on="0"/>
        <pt x="576" y="-54" on="0"/>
        <pt x="576" y="-56" on="1"/>
        <pt x="576" y="-66" on="0"/>
        <pt x="601" y="-66" on="1"/>
        <pt x="617" y="-66" on="0"/>
        <pt x="669" y="-59" on="0"/>
        <pt x="685" y="-55" on="1"/>
        <pt x="685" y="-160" on="1"/>
        <pt x="638" y="-169" on="0"/>
      </contour>
      <contour>
        <pt x="416" y="235" on="1"/>
        <pt x="382" y="343" on="1"/>
        <pt x="348" y="439" on="1"/>
        <pt x="331" y="439" on="1"/>
        <pt x="298" y="342" on="1"/>
        <pt x="261" y="235" on="1"/>
      </contour>
    </TTGlyph>
    <TTGlyph name="Aring" xMin="-5" yMin="0" xMax="739" yMax="1008">
      <contour>
        <pt x="-5" y="10" on="1"/>
        <pt x="207" y="740" on="1"/>
        <pt x="528" y="740" on="1"/>
        <pt x="739" y="10" on="1"/>
        <pt x="739" y="0" on="1"/>
        <pt x="534" y="0" on="1"/>
        <pt x="491" y="154" on="1"/>
        <pt x="243" y="154" on="1"/>
        <pt x="201" y="0" on="1"/>
        <pt x="-5" y="0" on="1"/>
      </contour>
      <contour>
        <pt x="446" y="319" on="1"/>
        <pt x="413" y="451" on="1"/>
        <pt x="375" y="591" on="1"/>
        <pt x="359" y="591" on="1"/>
        <pt x="322" y="450" on="1"/>
        <pt x="288" y="319" on="1"/>
      </contour>
      <contour>
        <pt x="367" y="774" on="1"/>
        <pt x="338" y="774" on="0"/>
        <pt x="288" y="791" on="0"/>
        <pt x="252" y="822" on="0"/>
        <pt x="231" y="864" on="0"/>
        <pt x="231" y="890" on="1"/>
        <pt x="231" y="916" on="0"/>
        <pt x="252" y="959" on="0"/>
        <pt x="288" y="991" on="0"/>
        <pt x="338" y="1008" on="0"/>
        <pt x="367" y="1008" on="1"/>
        <pt x="396" y="1008" on="0"/>
        <pt x="446" y="991" on="0"/>
        <pt x="482" y="959" on="0"/>
        <pt x="502" y="916" on="0"/>
        <pt x="502" y="890" on="1"/>
        <pt x="502" y="864" on="0"/>
        <pt x="482" y="822" on="0"/>
        <pt x="446" y="791" on="0"/>
        <pt x="396" y="774" on="0"/>
      </contour>
      <contour>
        <pt x="367" y="840" on="1"/>
        <pt x="401" y="840" on="0"/>
        <pt x="425" y="863" on="0"/>
        <pt x="425" y="890" on="1"/>
        <pt x="425" y="918" on="0"/>
        <pt x="401" y="942" on="0"/>
        <pt x="367" y="942" on="1"/>
        <pt x="333" y="942" on="0"/>
        <pt x="308" y="918" on="0"/>
        <pt x="308" y="890" on="1"/>
        <pt x="308" y="863" on="0"/>
        <pt x="333" y="840" on="0"/>
      </contour>
    </TTGlyph>
    <TTGlyph name="Aring.sc" xMin="-3" yMin="0" xMax="684" yMax="796">
      <contour>
        <pt x="-3" y="9" on="1"/>
        <pt x="189" y="577" on="1"/>
        <pt x="492" y="577" on="1"/>
        <pt x="684" y="9" on="1"/>
        <pt x="684" y="0" on="1"/>
        <pt x="489" y="0" on="1"/>
        <pt x="454" y="97" on="1"/>
        <pt x="226" y="97" on="1"/>
        <pt x="192" y="0" on="1"/>
        <pt x="-3" y="0" on="1"/>
      </contour>
      <contour>
        <pt x="417" y="235" on="1"/>
        <pt x="382" y="342" on="1"/>
        <pt x="349" y="439" on="1"/>
        <pt x="332" y="439" on="1"/>
        <pt x="298" y="341" on="1"/>
        <pt x="262" y="235" on="1"/>
      </contour>
      <contour>
        <pt x="340" y="607" on="1"/>
        <pt x="313" y="607" on="0"/>
        <pt x="268" y="621" on="0"/>
        <pt x="234" y="645" on="0"/>
        <pt x="215" y="680" on="0"/>
        <pt x="215" y="701" on="1"/>
        <pt x="215" y="722" on="0"/>
        <pt x="234" y="757" on="0"/>
        <pt x="268" y="782" on="0"/>
        <pt x="313" y="796" on="0"/>
        <pt x="340" y="796" on="1"/>
        <pt x="394" y="796" on="0"/>
        <pt x="465" y="743" on="0"/>
        <pt x="465" y="701" on="1"/>
        <pt x="465" y="659" on="0"/>
        <pt x="394" y="607" on="0"/>
      </contour>
      <contour>
        <pt x="340" y="665" on="1"/>
        <pt x="371" y="665" on="0"/>
        <pt x="393" y="681" on="0"/>
        <pt x="393" y="701" on="1"/>
        <pt x="393" y="721" on="0"/>
        <pt x="371" y="738" on="0"/>
        <pt x="340" y="738" on="1"/>
        <pt x="309" y="738" on="0"/>
        <pt x="288" y="721" on="0"/>
        <pt x="288" y="701" on="1"/>
        <pt x="288" y="681" on="0"/>
        <pt x="309" y="665" on="0"/>
      </contour>
    </TTGlyph>
    <TTGlyph name="Aringacute" xMin="-5" yMin="0" xMax="739" yMax="1030">
      <contour>
        <pt x="-5" y="10" on="1"/>
        <pt x="195" y="680" on="1"/>
        <pt x="171" y="714" on="0"/>
        <pt x="171" y="760" on="1"/>
        <pt x="171" y="819" on="0"/>
        <pt x="246" y="898" on="0"/>
        <pt x="311" y="910" on="1"/>
        <pt x="351" y="1030" on="1"/>
        <pt x="566" y="1030" on="1"/>
        <pt x="477" y="892" on="1"/>
        <pt x="519" y="872" on="0"/>
        <pt x="566" y="805" on="0"/>
        <pt x="566" y="760" on="1"/>
        <pt x="566" y="737" on="0"/>
        <pt x="552" y="695" on="0"/>
        <pt x="539" y="678" on="1"/>
        <pt x="739" y="10" on="1"/>
        <pt x="739" y="0" on="1"/>
        <pt x="533" y="0" on="1"/>
        <pt x="492" y="149" on="1"/>
        <pt x="241" y="149" on="1"/>
        <pt x="201" y="0" on="1"/>
        <pt x="-5" y="0" on="1"/>
      </contour>
      <contour>
        <pt x="367" y="699" on="1"/>
        <pt x="403" y="699" on="0"/>
        <pt x="447" y="733" on="0"/>
        <pt x="447" y="760" on="1"/>
        <pt x="447" y="788" on="0"/>
        <pt x="403" y="821" on="0"/>
        <pt x="367" y="821" on="1"/>
        <pt x="332" y="821" on="0"/>
        <pt x="290" y="788" on="0"/>
        <pt x="290" y="760" on="1"/>
        <pt x="290" y="732" on="0"/>
        <pt x="332" y="699" on="0"/>
      </contour>
      <contour>
        <pt x="444" y="323" on="1"/>
        <pt x="412" y="451" on="1"/>
        <pt x="376" y="591" on="1"/>
        <pt x="358" y="591" on="1"/>
        <pt x="321" y="450" on="1"/>
        <pt x="289" y="323" on="1"/>
      </contour>
    </TTGlyph>
    <TTGlyph name="Aringacute.sc" xMin="-4" yMin="0" xMax="684" yMax="821">
      <contour>
        <pt x="-4" y="9" on="1"/>
        <pt x="178" y="537" on="1"/>
        <pt x="158" y="566" on="0"/>
        <pt x="158" y="597" on="1"/>
        <pt x="158" y="646" on="0"/>
        <pt x="227" y="712" on="0"/>
        <pt x="287" y="723" on="1"/>
        <pt x="322" y="821" on="1"/>
        <pt x="525" y="821" on="1"/>
        <pt x="444" y="706" on="1"/>
        <pt x="482" y="689" on="0"/>
        <pt x="526" y="633" on="0"/>
        <pt x="526" y="597" on="1"/>
        <pt x="526" y="562" on="0"/>
        <pt x="502" y="534" on="1"/>
        <pt x="684" y="9" on="1"/>
        <pt x="684" y="0" on="1"/>
        <pt x="489" y="0" on="1"/>
        <pt x="454" y="97" on="1"/>
        <pt x="226" y="97" on="1"/>
        <pt x="191" y="0" on="1"/>
        <pt x="-4" y="0" on="1"/>
      </contour>
      <contour>
        <pt x="340" y="552" on="1"/>
        <pt x="373" y="552" on="0"/>
        <pt x="414" y="577" on="0"/>
        <pt x="414" y="597" on="1"/>
        <pt x="414" y="618" on="0"/>
        <pt x="373" y="643" on="0"/>
        <pt x="340" y="643" on="1"/>
        <pt x="308" y="643" on="0"/>
        <pt x="270" y="618" on="0"/>
        <pt x="270" y="597" on="1"/>
        <pt x="270" y="577" on="0"/>
        <pt x="309" y="552" on="0"/>
      </contour>
      <contour>
        <pt x="418" y="235" on="1"/>
        <pt x="382" y="342" on="1"/>
        <pt x="347" y="451" on="1"/>
        <pt x="332" y="451" on="1"/>
        <pt x="298" y="341" on="1"/>
        <pt x="263" y="235" on="1"/>
      </contour>
    </TTGlyph>
    <TTGlyph name="Atilde" xMin="-5" yMin="0" xMax="739" yMax="988">
      <contour>
        <pt x="-5" y="10" on="1"/>
        <pt x="207" y="740" on="1"/>
        <pt x="528" y="740" on="1"/>
        <pt x="739" y="10" on="1"/>
        <pt x="739" y="0" on="1"/>
        <pt x="534" y="0" on="1"/>
        <pt x="491" y="154" on="1"/>
        <pt x="243" y="154" on="1"/>
        <pt x="201" y="0" on="1"/>
        <pt x="-5" y="0" on="1"/>
      </contour>
      <contour>
        <pt x="446" y="319" on="1"/>
        <pt x="413" y="451" on="1"/>
        <pt x="375" y="591" on="1"/>
        <pt x="359" y="591" on="1"/>
        <pt x="322" y="450" on="1"/>
        <pt x="288" y="319" on="1"/>
      </contour>
      <contour>
        <pt x="139" y="847" on="1"/>
        <pt x="174" y="919" on="0"/>
        <pt x="264" y="988" on="0"/>
        <pt x="306" y="988" on="1"/>
        <pt x="330" y="988" on="0"/>
        <pt x="379" y="976" on="0"/>
        <pt x="427" y="963" on="0"/>
        <pt x="475" y="951" on="0"/>
        <pt x="500" y="951" on="1"/>
        <pt x="522" y="951" on="0"/>
        <pt x="563" y="966" on="0"/>
        <pt x="592" y="988" on="1"/>
        <pt x="615" y="959" on="1"/>
        <pt x="579" y="887" on="0"/>
        <pt x="490" y="818" on="0"/>
        <pt x="448" y="818" on="1"/>
        <pt x="424" y="818" on="0"/>
        <pt x="375" y="829" on="0"/>
        <pt x="327" y="843" on="0"/>
        <pt x="278" y="854" on="0"/>
        <pt x="254" y="854" on="1"/>
        <pt x="231" y="854" on="0"/>
        <pt x="189" y="840" on="0"/>
        <pt x="162" y="818" on="1"/>
      </contour>
    </TTGlyph>
    <TTGlyph name="Atilde.sc" xMin="-3" yMin="0" xMax="684" yMax="789">
      <contour>
        <pt x="-3" y="9" on="1"/>
        <pt x="189" y="577" on="1"/>
        <pt x="492" y="577" on="1"/>
        <pt x="684" y="9" on="1"/>
        <pt x="684" y="0" on="1"/>
        <pt x="489" y="0" on="1"/>
        <pt x="454" y="97" on="1"/>
        <pt x="226" y="97" on="1"/>
        <pt x="192" y="0" on="1"/>
        <pt x="-3" y="0" on="1"/>
      </contour>
      <contour>
        <pt x="417" y="235" on="1"/>
        <pt x="382" y="342" on="1"/>
        <pt x="349" y="439" on="1"/>
        <pt x="332" y="439" on="1"/>
        <pt x="298" y="341" on="1"/>
        <pt x="262" y="235" on="1"/>
      </contour>
      <contour>
        <pt x="127" y="660" on="1"/>
        <pt x="159" y="726" on="0"/>
        <pt x="243" y="788" on="0"/>
        <pt x="282" y="788" on="1"/>
        <pt x="304" y="788" on="0"/>
        <pt x="350" y="780" on="0"/>
        <pt x="395" y="769" on="0"/>
        <pt x="440" y="761" on="0"/>
        <pt x="463" y="761" on="1"/>
        <pt x="483" y="761" on="0"/>
        <pt x="522" y="771" on="0"/>
        <pt x="548" y="789" on="1"/>
        <pt x="568" y="764" on="1"/>
        <pt x="535" y="698" on="0"/>
        <pt x="452" y="636" on="0"/>
        <pt x="414" y="636" on="1"/>
        <pt x="391" y="636" on="0"/>
        <pt x="346" y="645" on="0"/>
        <pt x="300" y="655" on="0"/>
        <pt x="255" y="664" on="0"/>
        <pt x="232" y="664" on="1"/>
        <pt x="211" y="664" on="0"/>
        <pt x="173" y="654" on="0"/>
        <pt x="147" y="636" on="1"/>
      </contour>
    </TTGlyph>
    <TTGlyph name="B" xMin="58" yMin="-10" xMax="675" yMax="750">
      <contour>
        <pt x="339" y="-10" on="1"/>
        <pt x="268" y="-10" on="0"/>
        <pt x="132" y="-3" on="0"/>
        <pt x="58" y="5" on="1"/>
        <pt x="58" y="735" on="1"/>
        <pt x="132" y="743" on="0"/>
        <pt x="262" y="750" on="0"/>
        <pt x="323" y="750" on="1"/>
        <pt x="495" y="750" on="0"/>
        <pt x="653" y="648" on="0"/>
        <pt x="653" y="537" on="1"/>
        <pt x="653" y="416" on="0"/>
        <pt x="533" y="383" on="1"/>
        <pt x="533" y="379" on="1"/>
        <pt x="602" y="365" on="0"/>
        <pt x="675" y="277" on="0"/>
        <pt x="675" y="205" on="1"/>
        <pt x="675" y="96" on="0"/>
        <pt x="510" y="-10" on="0"/>
      </contour>
      <contour>
        <pt x="348" y="144" on="1"/>
        <pt x="459" y="144" on="0"/>
        <pt x="459" y="223" on="1"/>
        <pt x="459" y="267" on="0"/>
        <pt x="409" y="302" on="0"/>
        <pt x="347" y="302" on="1"/>
        <pt x="259" y="302" on="1"/>
        <pt x="259" y="147" on="1"/>
        <pt x="265" y="146" on="0"/>
        <pt x="276" y="145" on="0"/>
        <pt x="295" y="144" on="0"/>
        <pt x="325" y="144" on="0"/>
      </contour>
      <contour>
        <pt x="336" y="444" on="1"/>
        <pt x="393" y="444" on="0"/>
        <pt x="438" y="478" on="0"/>
        <pt x="438" y="522" on="1"/>
        <pt x="438" y="562" on="0"/>
        <pt x="392" y="597" on="0"/>
        <pt x="339" y="597" on="1"/>
        <pt x="318" y="597" on="0"/>
        <pt x="278" y="594" on="0"/>
        <pt x="259" y="592" on="1"/>
        <pt x="259" y="444" on="1"/>
      </contour>
    </TTGlyph>
    <TTGlyph name="B.sc" xMin="55" yMin="-8" xMax="627" yMax="585">
      <contour>
        <pt x="322" y="-8" on="1"/>
        <pt x="255" y="-8" on="0"/>
        <pt x="126" y="-2" on="0"/>
        <pt x="55" y="4" on="1"/>
        <pt x="55" y="573" on="1"/>
        <pt x="191" y="585" on="0"/>
        <pt x="304" y="585" on="1"/>
        <pt x="462" y="585" on="0"/>
        <pt x="607" y="504" on="0"/>
        <pt x="607" y="416" on="1"/>
        <pt x="607" y="328" on="0"/>
        <pt x="498" y="300" on="1"/>
        <pt x="498" y="297" on="1"/>
        <pt x="561" y="286" on="0"/>
        <pt x="627" y="217" on="0"/>
        <pt x="627" y="163" on="1"/>
        <pt x="627" y="75" on="0"/>
        <pt x="478" y="-8" on="0"/>
      </contour>
      <contour>
        <pt x="330" y="131" on="1"/>
        <pt x="430" y="131" on="0"/>
        <pt x="430" y="182" on="1"/>
        <pt x="430" y="211" on="0"/>
        <pt x="384" y="230" on="0"/>
        <pt x="328" y="230" on="1"/>
        <pt x="246" y="230" on="1"/>
        <pt x="246" y="132" on="1"/>
        <pt x="251" y="131" on="0"/>
        <pt x="261" y="131" on="0"/>
        <pt x="279" y="131" on="0"/>
        <pt x="307" y="131" on="0"/>
      </contour>
      <contour>
        <pt x="316" y="352" on="1"/>
        <pt x="368" y="352" on="0"/>
        <pt x="408" y="372" on="0"/>
        <pt x="408" y="401" on="1"/>
        <pt x="408" y="427" on="0"/>
        <pt x="368" y="447" on="0"/>
        <pt x="320" y="447" on="1"/>
        <pt x="300" y="447" on="0"/>
        <pt x="263" y="446" on="0"/>
        <pt x="246" y="444" on="1"/>
        <pt x="246" y="352" on="1"/>
      </contour>
    </TTGlyph>
    <TTGlyph name="C" xMin="30" yMin="-12" xMax="552" yMax="752">
      <contour>
        <pt x="394" y="-12" on="1"/>
        <pt x="210" y="-12" on="0"/>
        <pt x="30" y="174" on="0"/>
        <pt x="30" y="370" on="1"/>
        <pt x="30" y="565" on="0"/>
        <pt x="206" y="752" on="0"/>
        <pt x="381" y="752" on="1"/>
        <pt x="417" y="752" on="0"/>
        <pt x="498" y="745" on="0"/>
        <pt x="552" y="737" on="1"/>
        <pt x="552" y="567" on="1"/>
        <pt x="524" y="570" on="0"/>
        <pt x="483" y="575" on="0"/>
        <pt x="450" y="577" on="0"/>
        <pt x="423" y="578" on="0"/>
        <pt x="410" y="578" on="1"/>
        <pt x="362" y="578" on="0"/>
        <pt x="301" y="562" on="0"/>
        <pt x="265" y="517" on="0"/>
        <pt x="251" y="435" on="0"/>
        <pt x="251" y="369" on="1"/>
        <pt x="251" y="304" on="0"/>
        <pt x="265" y="224" on="0"/>
        <pt x="301" y="179" on="0"/>
        <pt x="362" y="163" on="0"/>
        <pt x="409" y="163" on="1"/>
        <pt x="443" y="163" on="0"/>
        <pt x="525" y="170" on="0"/>
        <pt x="552" y="176" on="1"/>
        <pt x="552" y="8" on="1"/>
        <pt x="520" y="-1" on="0"/>
        <pt x="436" y="-12" on="0"/>
      </contour>
    </TTGlyph>
    <TTGlyph name="C.sc" xMin="29" yMin="-11" xMax="510" yMax="588">
      <contour>
        <pt x="367" y="-11" on="1"/>
        <pt x="195" y="-11" on="0"/>
        <pt x="29" y="135" on="0"/>
        <pt x="29" y="289" on="1"/>
        <pt x="29" y="588" on="0"/>
        <pt x="353" y="588" on="1"/>
        <pt x="390" y="588" on="0"/>
        <pt x="464" y="582" on="0"/>
        <pt x="510" y="576" on="1"/>
        <pt x="510" y="417" on="1"/>
        <pt x="489" y="419" on="0"/>
        <pt x="454" y="422" on="0"/>
        <pt x="424" y="424" on="0"/>
        <pt x="396" y="425" on="0"/>
        <pt x="380" y="425" on="1"/>
        <pt x="335" y="425" on="0"/>
        <pt x="279" y="416" on="0"/>
        <pt x="249" y="388" on="0"/>
        <pt x="238" y="334" on="0"/>
        <pt x="238" y="288" on="1"/>
        <pt x="238" y="243" on="0"/>
        <pt x="249" y="190" on="0"/>
        <pt x="280" y="162" on="0"/>
        <pt x="335" y="154" on="0"/>
        <pt x="379" y="154" on="1"/>
        <pt x="395" y="154" on="0"/>
        <pt x="431" y="155" on="0"/>
        <pt x="466" y="157" on="0"/>
        <pt x="498" y="161" on="0"/>
        <pt x="510" y="163" on="1"/>
        <pt x="510" y="5" on="1"/>
        <pt x="482" y="-2" on="0"/>
        <pt x="407" y="-11" on="0"/>
      </contour>
    </TTGlyph>
    <TTGlyph name="Cacute" xMin="30" yMin="-12" xMax="552" yMax="998">
      <contour>
        <pt x="394" y="-12" on="1"/>
        <pt x="210" y="-12" on="0"/>
        <pt x="30" y="174" on="0"/>
        <pt x="30" y="370" on="1"/>
        <pt x="30" y="565" on="0"/>
        <pt x="206" y="752" on="0"/>
        <pt x="381" y="752" on="1"/>
        <pt x="417" y="752" on="0"/>
        <pt x="498" y="745" on="0"/>
        <pt x="552" y="737" on="1"/>
        <pt x="552" y="567" on="1"/>
        <pt x="524" y="570" on="0"/>
        <pt x="483" y="575" on="0"/>
        <pt x="450" y="577" on="0"/>
        <pt x="423" y="578" on="0"/>
        <pt x="410" y="578" on="1"/>
        <pt x="362" y="578" on="0"/>
        <pt x="301" y="562" on="0"/>
        <pt x="265" y="517" on="0"/>
        <pt x="251" y="435" on="0"/>
        <pt x="251" y="369" on="1"/>
        <pt x="251" y="304" on="0"/>
        <pt x="265" y="224" on="0"/>
        <pt x="301" y="179" on="0"/>
        <pt x="362" y="163" on="0"/>
        <pt x="409" y="163" on="1"/>
        <pt x="443" y="163" on="0"/>
        <pt x="525" y="170" on="0"/>
        <pt x="552" y="176" on="1"/>
        <pt x="552" y="8" on="1"/>
        <pt x="520" y="-1" on="0"/>
        <pt x="436" y="-12" on="0"/>
      </contour>
      <contour>
        <pt x="242" y="809" on="1"/>
        <pt x="305" y="998" on="1"/>
        <pt x="520" y="998" on="1"/>
        <pt x="392" y="799" on="1"/>
      </contour>
    </TTGlyph>
    <TTGlyph name="Cacute.sc" xMin="29" yMin="-11" xMax="509" yMax="794">
      <contour>
        <pt x="366" y="-11" on="1"/>
        <pt x="195" y="-11" on="0"/>
        <pt x="29" y="134" on="0"/>
        <pt x="29" y="289" on="1"/>
        <pt x="29" y="441" on="0"/>
        <pt x="191" y="588" on="0"/>
        <pt x="353" y="588" on="1"/>
        <pt x="385" y="588" on="0"/>
        <pt x="458" y="582" on="0"/>
        <pt x="509" y="576" on="1"/>
        <pt x="509" y="417" on="1"/>
        <pt x="456" y="422" on="0"/>
        <pt x="403" y="425" on="0"/>
        <pt x="380" y="425" on="1"/>
        <pt x="336" y="425" on="0"/>
        <pt x="281" y="417" on="0"/>
        <pt x="250" y="389" on="0"/>
        <pt x="238" y="335" on="0"/>
        <pt x="238" y="288" on="1"/>
        <pt x="238" y="242" on="0"/>
        <pt x="250" y="188" on="0"/>
        <pt x="281" y="161" on="0"/>
        <pt x="336" y="154" on="0"/>
        <pt x="379" y="154" on="1"/>
        <pt x="410" y="154" on="0"/>
        <pt x="485" y="158" on="0"/>
        <pt x="509" y="163" on="1"/>
        <pt x="509" y="5" on="1"/>
        <pt x="480" y="-3" on="0"/>
        <pt x="404" y="-11" on="0"/>
      </contour>
      <contour>
        <pt x="222" y="634" on="1"/>
        <pt x="278" y="794" on="1"/>
        <pt x="480" y="794" on="1"/>
        <pt x="363" y="625" on="1"/>
      </contour>
    </TTGlyph>
    <TTGlyph name="Ccaron" xMin="30" yMin="-12" xMax="552" yMax="1004">
      <contour>
        <pt x="394" y="-12" on="1"/>
        <pt x="210" y="-12" on="0"/>
        <pt x="30" y="174" on="0"/>
        <pt x="30" y="370" on="1"/>
        <pt x="30" y="565" on="0"/>
        <pt x="206" y="752" on="0"/>
        <pt x="381" y="752" on="1"/>
        <pt x="417" y="752" on="0"/>
        <pt x="498" y="745" on="0"/>
        <pt x="552" y="737" on="1"/>
        <pt x="552" y="567" on="1"/>
        <pt x="524" y="570" on="0"/>
        <pt x="483" y="575" on="0"/>
        <pt x="450" y="577" on="0"/>
        <pt x="423" y="578" on="0"/>
        <pt x="410" y="578" on="1"/>
        <pt x="362" y="578" on="0"/>
        <pt x="301" y="562" on="0"/>
        <pt x="265" y="517" on="0"/>
        <pt x="251" y="435" on="0"/>
        <pt x="251" y="369" on="1"/>
        <pt x="251" y="304" on="0"/>
        <pt x="265" y="224" on="0"/>
        <pt x="301" y="179" on="0"/>
        <pt x="362" y="163" on="0"/>
        <pt x="409" y="163" on="1"/>
        <pt x="443" y="163" on="0"/>
        <pt x="525" y="170" on="0"/>
        <pt x="552" y="176" on="1"/>
        <pt x="552" y="8" on="1"/>
        <pt x="520" y="-1" on="0"/>
        <pt x="436" y="-12" on="0"/>
      </contour>
      <contour>
        <pt x="127" y="1004" on="1"/>
        <pt x="330" y="928" on="1"/>
        <pt x="533" y="1004" on="1"/>
        <pt x="533" y="868" on="1"/>
        <pt x="329" y="792" on="1"/>
        <pt x="127" y="868" on="1"/>
      </contour>
    </TTGlyph>
    <TTGlyph name="Ccaron.sc" xMin="29" yMin="-11" xMax="509" yMax="801">
      <contour>
        <pt x="366" y="-11" on="1"/>
        <pt x="195" y="-11" on="0"/>
        <pt x="29" y="134" on="0"/>
        <pt x="29" y="289" on="1"/>
        <pt x="29" y="441" on="0"/>
        <pt x="191" y="588" on="0"/>
        <pt x="353" y="588" on="1"/>
        <pt x="385" y="588" on="0"/>
        <pt x="458" y="582" on="0"/>
        <pt x="509" y="576" on="1"/>
        <pt x="509" y="417" on="1"/>
        <pt x="456" y="422" on="0"/>
        <pt x="403" y="425" on="0"/>
        <pt x="380" y="425" on="1"/>
        <pt x="336" y="425" on="0"/>
        <pt x="281" y="417" on="0"/>
        <pt x="250" y="389" on="0"/>
        <pt x="238" y="335" on="0"/>
        <pt x="238" y="288" on="1"/>
        <pt x="238" y="242" on="0"/>
        <pt x="250" y="188" on="0"/>
        <pt x="281" y="161" on="0"/>
        <pt x="336" y="154" on="0"/>
        <pt x="379" y="154" on="1"/>
        <pt x="410" y="154" on="0"/>
        <pt x="485" y="158" on="0"/>
        <pt x="509" y="163" on="1"/>
        <pt x="509" y="5" on="1"/>
        <pt x="480" y="-3" on="0"/>
        <pt x="404" y="-11" on="0"/>
      </contour>
      <contour>
        <pt x="114" y="801" on="1"/>
        <pt x="304" y="740" on="1"/>
        <pt x="493" y="801" on="1"/>
        <pt x="493" y="676" on="1"/>
        <pt x="302" y="615" on="1"/>
        <pt x="114" y="676" on="1"/>
      </contour>
    </TTGlyph>
    <TTGlyph name="Ccedilla" xMin="30" yMin="-220" xMax="552" yMax="752">
      <contour>
        <pt x="324" y="-220" on="1"/>
        <pt x="303" y="-220" on="0"/>
        <pt x="248" y="-213" on="0"/>
        <pt x="218" y="-208" on="1"/>
        <pt x="218" y="-90" on="1"/>
        <pt x="239" y="-95" on="0"/>
        <pt x="283" y="-100" on="0"/>
        <pt x="295" y="-100" on="1"/>
        <pt x="311" y="-100" on="0"/>
        <pt x="322" y="-88" on="0"/>
        <pt x="322" y="-80" on="1"/>
        <pt x="322" y="-54" on="0"/>
        <pt x="287" y="-2" on="1"/>
        <pt x="157" y="22" on="0"/>
        <pt x="30" y="205" on="0"/>
        <pt x="30" y="370" on="1"/>
        <pt x="30" y="565" on="0"/>
        <pt x="206" y="752" on="0"/>
        <pt x="381" y="752" on="1"/>
        <pt x="417" y="752" on="0"/>
        <pt x="498" y="745" on="0"/>
        <pt x="552" y="737" on="1"/>
        <pt x="552" y="567" on="1"/>
        <pt x="524" y="570" on="0"/>
        <pt x="483" y="575" on="0"/>
        <pt x="450" y="577" on="0"/>
        <pt x="423" y="578" on="0"/>
        <pt x="410" y="578" on="1"/>
        <pt x="362" y="578" on="0"/>
        <pt x="301" y="562" on="0"/>
        <pt x="265" y="517" on="0"/>
        <pt x="251" y="435" on="0"/>
        <pt x="251" y="369" on="1"/>
        <pt x="251" y="304" on="0"/>
        <pt x="265" y="224" on="0"/>
        <pt x="301" y="179" on="0"/>
        <pt x="362" y="163" on="0"/>
        <pt x="409" y="163" on="1"/>
        <pt x="443" y="163" on="0"/>
        <pt x="525" y="170" on="0"/>
        <pt x="552" y="176" on="1"/>
        <pt x="552" y="8" on="1"/>
        <pt x="525" y="0" on="0"/>
        <pt x="455" y="-9" on="0"/>
        <pt x="419" y="-11" on="1"/>
        <pt x="439" y="-40" on="0"/>
        <pt x="455" y="-85" on="0"/>
        <pt x="455" y="-111" on="1"/>
        <pt x="455" y="-162" on="0"/>
        <pt x="386" y="-220" on="0"/>
      </contour>
    </TTGlyph>
    <TTGlyph name="Ccedilla.sc" xMin="29" yMin="-172" xMax="510" yMax="588">
      <contour>
        <pt x="303" y="-172" on="1"/>
        <pt x="283" y="-172" on="0"/>
        <pt x="232" y="-166" on="0"/>
        <pt x="205" y="-162" on="1"/>
        <pt x="205" y="-54" on="1"/>
        <pt x="224" y="-57" on="0"/>
        <pt x="265" y="-62" on="0"/>
        <pt x="276" y="-62" on="1"/>
        <pt x="290" y="-62" on="0"/>
        <pt x="299" y="-57" on="0"/>
        <pt x="299" y="-58" on="1"/>
        <pt x="299" y="-42" on="0"/>
        <pt x="272" y="-4" on="1"/>
        <pt x="149" y="15" on="0"/>
        <pt x="29" y="158" on="0"/>
        <pt x="29" y="289" on="1"/>
        <pt x="29" y="441" on="0"/>
        <pt x="191" y="588" on="0"/>
        <pt x="353" y="588" on="1"/>
        <pt x="385" y="588" on="0"/>
        <pt x="459" y="582" on="0"/>
        <pt x="510" y="576" on="1"/>
        <pt x="510" y="417" on="1"/>
        <pt x="483" y="420" on="0"/>
        <pt x="445" y="423" on="0"/>
        <pt x="416" y="424" on="0"/>
        <pt x="392" y="425" on="0"/>
        <pt x="380" y="425" on="1"/>
        <pt x="336" y="425" on="0"/>
        <pt x="281" y="417" on="0"/>
        <pt x="250" y="389" on="0"/>
        <pt x="238" y="335" on="0"/>
        <pt x="238" y="288" on="1"/>
        <pt x="238" y="242" on="0"/>
        <pt x="250" y="188" on="0"/>
        <pt x="281" y="161" on="0"/>
        <pt x="336" y="154" on="0"/>
        <pt x="379" y="154" on="1"/>
        <pt x="394" y="154" on="0"/>
        <pt x="430" y="155" on="0"/>
        <pt x="466" y="157" on="0"/>
        <pt x="498" y="161" on="0"/>
        <pt x="510" y="163" on="1"/>
        <pt x="510" y="5" on="1"/>
        <pt x="485" y="-1" on="0"/>
        <pt x="425" y="-9" on="0"/>
        <pt x="394" y="-10" on="1"/>
        <pt x="410" y="-31" on="0"/>
        <pt x="423" y="-67" on="0"/>
        <pt x="423" y="-87" on="1"/>
        <pt x="423" y="-126" on="0"/>
        <pt x="360" y="-172" on="0"/>
      </contour>
    </TTGlyph>
    <TTGlyph name="Ccircumflex" xMin="30" yMin="-12" xMax="552" yMax="1004">
      <contour>
        <pt x="394" y="-12" on="1"/>
        <pt x="210" y="-12" on="0"/>
        <pt x="30" y="174" on="0"/>
        <pt x="30" y="370" on="1"/>
        <pt x="30" y="565" on="0"/>
        <pt x="206" y="752" on="0"/>
        <pt x="381" y="752" on="1"/>
        <pt x="417" y="752" on="0"/>
        <pt x="498" y="745" on="0"/>
        <pt x="552" y="737" on="1"/>
        <pt x="552" y="567" on="1"/>
        <pt x="524" y="570" on="0"/>
        <pt x="483" y="575" on="0"/>
        <pt x="450" y="577" on="0"/>
        <pt x="423" y="578" on="0"/>
        <pt x="410" y="578" on="1"/>
        <pt x="362" y="578" on="0"/>
        <pt x="301" y="562" on="0"/>
        <pt x="265" y="517" on="0"/>
        <pt x="251" y="435" on="0"/>
        <pt x="251" y="369" on="1"/>
        <pt x="251" y="304" on="0"/>
        <pt x="265" y="224" on="0"/>
        <pt x="301" y="179" on="0"/>
        <pt x="362" y="163" on="0"/>
        <pt x="409" y="163" on="1"/>
        <pt x="443" y="163" on="0"/>
        <pt x="525" y="170" on="0"/>
        <pt x="552" y="176" on="1"/>
        <pt x="552" y="8" on="1"/>
        <pt x="520" y="-1" on="0"/>
        <pt x="436" y="-12" on="0"/>
      </contour>
      <contour>
        <pt x="121" y="928" on="1"/>
        <pt x="323" y="1004" on="1"/>
        <pt x="527" y="928" on="1"/>
        <pt x="527" y="792" on="1"/>
        <pt x="324" y="868" on="1"/>
        <pt x="121" y="792" on="1"/>
      </contour>
    </TTGlyph>
    <TTGlyph name="Ccircumflex.sc" xMin="29" yMin="-11" xMax="509" yMax="800">
      <contour>
        <pt x="366" y="-11" on="1"/>
        <pt x="195" y="-11" on="0"/>
        <pt x="29" y="134" on="0"/>
        <pt x="29" y="289" on="1"/>
        <pt x="29" y="441" on="0"/>
        <pt x="191" y="588" on="0"/>
        <pt x="353" y="588" on="1"/>
        <pt x="385" y="588" on="0"/>
        <pt x="458" y="582" on="0"/>
        <pt x="509" y="576" on="1"/>
        <pt x="509" y="417" on="1"/>
        <pt x="456" y="422" on="0"/>
        <pt x="403" y="425" on="0"/>
        <pt x="380" y="425" on="1"/>
        <pt x="336" y="425" on="0"/>
        <pt x="281" y="417" on="0"/>
        <pt x="250" y="389" on="0"/>
        <pt x="238" y="335" on="0"/>
        <pt x="238" y="288" on="1"/>
        <pt x="238" y="242" on="0"/>
        <pt x="250" y="188" on="0"/>
        <pt x="281" y="161" on="0"/>
        <pt x="336" y="154" on="0"/>
        <pt x="379" y="154" on="1"/>
        <pt x="410" y="154" on="0"/>
        <pt x="485" y="158" on="0"/>
        <pt x="509" y="163" on="1"/>
        <pt x="509" y="5" on="1"/>
        <pt x="480" y="-3" on="0"/>
        <pt x="404" y="-11" on="0"/>
      </contour>
      <contour>
        <pt x="109" y="738" on="1"/>
        <pt x="297" y="800" on="1"/>
        <pt x="487" y="738" on="1"/>
        <pt x="487" y="613" on="1"/>
        <pt x="298" y="674" on="1"/>
        <pt x="109" y="613" on="1"/>
      </contour>
    </TTGlyph>
    <TTGlyph name="Cdotaccent" xMin="30" yMin="-12" xMax="552" yMax="1014">
      <contour>
        <pt x="338" y="796" on="1"/>
        <pt x="277" y="796" on="0"/>
        <pt x="226" y="848" on="0"/>
        <pt x="226" y="905" on="1"/>
        <pt x="226" y="962" on="0"/>
        <pt x="277" y="1014" on="0"/>
        <pt x="338" y="1014" on="1"/>
        <pt x="398" y="1014" on="0"/>
        <pt x="450" y="962" on="0"/>
        <pt x="450" y="905" on="1"/>
        <pt x="450" y="848" on="0"/>
        <pt x="398" y="796" on="0"/>
      </contour>
      <contour>
        <pt x="394" y="-12" on="1"/>
        <pt x="210" y="-12" on="0"/>
        <pt x="30" y="174" on="0"/>
        <pt x="30" y="370" on="1"/>
        <pt x="30" y="565" on="0"/>
        <pt x="206" y="752" on="0"/>
        <pt x="381" y="752" on="1"/>
        <pt x="417" y="752" on="0"/>
        <pt x="498" y="745" on="0"/>
        <pt x="552" y="737" on="1"/>
        <pt x="552" y="567" on="1"/>
        <pt x="524" y="570" on="0"/>
        <pt x="483" y="575" on="0"/>
        <pt x="450" y="577" on="0"/>
        <pt x="423" y="578" on="0"/>
        <pt x="410" y="578" on="1"/>
        <pt x="362" y="578" on="0"/>
        <pt x="301" y="562" on="0"/>
        <pt x="265" y="517" on="0"/>
        <pt x="251" y="435" on="0"/>
        <pt x="251" y="369" on="1"/>
        <pt x="251" y="304" on="0"/>
        <pt x="265" y="224" on="0"/>
        <pt x="301" y="179" on="0"/>
        <pt x="362" y="163" on="0"/>
        <pt x="409" y="163" on="1"/>
        <pt x="443" y="163" on="0"/>
        <pt x="525" y="170" on="0"/>
        <pt x="552" y="176" on="1"/>
        <pt x="552" y="8" on="1"/>
        <pt x="520" y="-1" on="0"/>
        <pt x="436" y="-12" on="0"/>
      </contour>
    </TTGlyph>
    <TTGlyph name="Cdotaccent.sc" xMin="29" yMin="-11" xMax="509" yMax="818">
      <contour>
        <pt x="366" y="-11" on="1"/>
        <pt x="195" y="-11" on="0"/>
        <pt x="29" y="134" on="0"/>
        <pt x="29" y="289" on="1"/>
        <pt x="29" y="441" on="0"/>
        <pt x="191" y="588" on="0"/>
        <pt x="353" y="588" on="1"/>
        <pt x="385" y="588" on="0"/>
        <pt x="458" y="582" on="0"/>
        <pt x="509" y="576" on="1"/>
        <pt x="509" y="417" on="1"/>
        <pt x="456" y="422" on="0"/>
        <pt x="403" y="425" on="0"/>
        <pt x="380" y="425" on="1"/>
        <pt x="336" y="425" on="0"/>
        <pt x="281" y="417" on="0"/>
        <pt x="250" y="389" on="0"/>
        <pt x="238" y="335" on="0"/>
        <pt x="238" y="288" on="1"/>
        <pt x="238" y="242" on="0"/>
        <pt x="250" y="188" on="0"/>
        <pt x="281" y="161" on="0"/>
        <pt x="336" y="154" on="0"/>
        <pt x="379" y="154" on="1"/>
        <pt x="410" y="154" on="0"/>
        <pt x="485" y="158" on="0"/>
        <pt x="509" y="163" on="1"/>
        <pt x="509" y="5" on="1"/>
        <pt x="480" y="-3" on="0"/>
        <pt x="404" y="-11" on="0"/>
      </contour>
      <contour>
        <pt x="314" y="618" on="1"/>
        <pt x="257" y="618" on="0"/>
        <pt x="208" y="664" on="0"/>
        <pt x="208" y="718" on="1"/>
        <pt x="208" y="771" on="0"/>
        <pt x="257" y="818" on="0"/>
        <pt x="314" y="818" on="1"/>
        <pt x="371" y="818" on="0"/>
        <pt x="419" y="769" on="0"/>
        <pt x="419" y="718" on="1"/>
        <pt x="419" y="666" on="0"/>
        <pt x="371" y="618" on="0"/>
      </contour>
    </TTGlyph>
    <TTGlyph name="D" xMin="58" yMin="-11" xMax="723" yMax="750">
      <contour>
        <pt x="279" y="-11" on="1"/>
        <pt x="225" y="-11" on="0"/>
        <pt x="111" y="-5" on="0"/>
        <pt x="58" y="2" on="1"/>
        <pt x="58" y="739" on="1"/>
        <pt x="145" y="744" on="0"/>
        <pt x="262" y="750" on="0"/>
        <pt x="308" y="750" on="1"/>
        <pt x="419" y="750" on="0"/>
        <pt x="576" y="707" on="0"/>
        <pt x="677" y="616" on="0"/>
        <pt x="723" y="471" on="0"/>
        <pt x="723" y="369" on="1"/>
        <pt x="723" y="265" on="0"/>
        <pt x="675" y="121" on="0"/>
        <pt x="569" y="30" on="0"/>
        <pt x="400" y="-11" on="0"/>
      </contour>
      <contour>
        <pt x="362" y="159" on="1"/>
        <pt x="404" y="159" on="0"/>
        <pt x="459" y="177" on="0"/>
        <pt x="490" y="224" on="0"/>
        <pt x="503" y="306" on="0"/>
        <pt x="503" y="370" on="1"/>
        <pt x="503" y="432" on="0"/>
        <pt x="488" y="513" on="0"/>
        <pt x="452" y="561" on="0"/>
        <pt x="391" y="581" on="0"/>
        <pt x="345" y="581" on="1"/>
        <pt x="327" y="581" on="0"/>
        <pt x="294" y="579" on="0"/>
        <pt x="271" y="576" on="1"/>
        <pt x="271" y="165" on="1"/>
        <pt x="319" y="159" on="0"/>
      </contour>
    </TTGlyph>
    <TTGlyph name="D.sc" xMin="56" yMin="-8" xMax="671" yMax="585">
      <contour>
        <pt x="290" y="-8" on="1"/>
        <pt x="234" y="-8" on="0"/>
        <pt x="110" y="-3" on="0"/>
        <pt x="56" y="2" on="1"/>
        <pt x="56" y="577" on="1"/>
        <pt x="135" y="581" on="0"/>
        <pt x="246" y="585" on="0"/>
        <pt x="291" y="585" on="1"/>
        <pt x="392" y="585" on="0"/>
        <pt x="536" y="552" on="0"/>
        <pt x="628" y="480" on="0"/>
        <pt x="671" y="367" on="0"/>
        <pt x="671" y="288" on="1"/>
        <pt x="671" y="209" on="0"/>
        <pt x="628" y="97" on="0"/>
        <pt x="536" y="25" on="0"/>
        <pt x="391" y="-8" on="0"/>
      </contour>
      <contour>
        <pt x="341" y="151" on="1"/>
        <pt x="378" y="151" on="0"/>
        <pt x="426" y="161" on="0"/>
        <pt x="454" y="190" on="0"/>
        <pt x="464" y="244" on="0"/>
        <pt x="464" y="288" on="1"/>
        <pt x="464" y="331" on="0"/>
        <pt x="451" y="385" on="0"/>
        <pt x="420" y="416" on="0"/>
        <pt x="366" y="427" on="0"/>
        <pt x="325" y="427" on="1"/>
        <pt x="308" y="427" on="0"/>
        <pt x="279" y="426" on="0"/>
        <pt x="257" y="424" on="1"/>
        <pt x="257" y="156" on="1"/>
        <pt x="278" y="153" on="0"/>
        <pt x="319" y="151" on="0"/>
      </contour>
    </TTGlyph>
    <TTGlyph name="Dcaron" xMin="58" yMin="-11" xMax="723" yMax="1004">
      <contour>
        <pt x="171" y="1004" on="1"/>
        <pt x="374" y="928" on="1"/>
        <pt x="577" y="1004" on="1"/>
        <pt x="577" y="868" on="1"/>
        <pt x="373" y="792" on="1"/>
        <pt x="171" y="868" on="1"/>
      </contour>
      <contour>
        <pt x="279" y="-11" on="1"/>
        <pt x="225" y="-11" on="0"/>
        <pt x="111" y="-5" on="0"/>
        <pt x="58" y="2" on="1"/>
        <pt x="58" y="739" on="1"/>
        <pt x="145" y="744" on="0"/>
        <pt x="262" y="750" on="0"/>
        <pt x="308" y="750" on="1"/>
        <pt x="419" y="750" on="0"/>
        <pt x="576" y="707" on="0"/>
        <pt x="677" y="616" on="0"/>
        <pt x="723" y="471" on="0"/>
        <pt x="723" y="369" on="1"/>
        <pt x="723" y="265" on="0"/>
        <pt x="675" y="121" on="0"/>
        <pt x="569" y="30" on="0"/>
        <pt x="400" y="-11" on="0"/>
      </contour>
      <contour>
        <pt x="362" y="159" on="1"/>
        <pt x="404" y="159" on="0"/>
        <pt x="459" y="177" on="0"/>
        <pt x="490" y="224" on="0"/>
        <pt x="503" y="306" on="0"/>
        <pt x="503" y="370" on="1"/>
        <pt x="503" y="432" on="0"/>
        <pt x="488" y="513" on="0"/>
        <pt x="452" y="561" on="0"/>
        <pt x="391" y="581" on="0"/>
        <pt x="345" y="581" on="1"/>
        <pt x="327" y="581" on="0"/>
        <pt x="294" y="579" on="0"/>
        <pt x="271" y="576" on="1"/>
        <pt x="271" y="165" on="1"/>
        <pt x="319" y="159" on="0"/>
      </contour>
    </TTGlyph>
    <TTGlyph name="Dcaron.sc" xMin="56" yMin="-8" xMax="671" yMax="801">
      <contour>
        <pt x="290" y="-8" on="1"/>
        <pt x="234" y="-8" on="0"/>
        <pt x="110" y="-3" on="0"/>
        <pt x="56" y="2" on="1"/>
        <pt x="56" y="577" on="1"/>
        <pt x="135" y="581" on="0"/>
        <pt x="246" y="585" on="0"/>
        <pt x="291" y="585" on="1"/>
        <pt x="392" y="585" on="0"/>
        <pt x="536" y="552" on="0"/>
        <pt x="628" y="480" on="0"/>
        <pt x="671" y="367" on="0"/>
        <pt x="671" y="288" on="1"/>
        <pt x="671" y="209" on="0"/>
        <pt x="628" y="97" on="0"/>
        <pt x="536" y="25" on="0"/>
        <pt x="391" y="-8" on="0"/>
      </contour>
      <contour>
        <pt x="341" y="151" on="1"/>
        <pt x="378" y="151" on="0"/>
        <pt x="426" y="161" on="0"/>
        <pt x="454" y="190" on="0"/>
        <pt x="464" y="244" on="0"/>
        <pt x="464" y="288" on="1"/>
        <pt x="464" y="331" on="0"/>
        <pt x="451" y="385" on="0"/>
        <pt x="420" y="416" on="0"/>
        <pt x="366" y="427" on="0"/>
        <pt x="325" y="427" on="1"/>
        <pt x="308" y="427" on="0"/>
        <pt x="279" y="426" on="0"/>
        <pt x="257" y="424" on="1"/>
        <pt x="257" y="156" on="1"/>
        <pt x="278" y="153" on="0"/>
        <pt x="319" y="151" on="0"/>
      </contour>
      <contour>
        <pt x="161" y="676" on="1"/>
        <pt x="161" y="801" on="1"/>
        <pt x="351" y="740" on="1"/>
        <pt x="540" y="801" on="1"/>
        <pt x="540" y="676" on="1"/>
        <pt x="349" y="615" on="1"/>
      </contour>
    </TTGlyph>
    <TTGlyph name="Dcroat" xMin="2" yMin="-11" xMax="751" yMax="750">
      <contour>
        <pt x="2" y="454" on="1"/>
        <pt x="86" y="454" on="1"/>
        <pt x="86" y="739" on="1"/>
        <pt x="173" y="744" on="0"/>
        <pt x="290" y="750" on="0"/>
        <pt x="336" y="750" on="1"/>
        <pt x="447" y="750" on="0"/>
        <pt x="604" y="707" on="0"/>
        <pt x="705" y="616" on="0"/>
        <pt x="751" y="471" on="0"/>
        <pt x="751" y="369" on="1"/>
        <pt x="751" y="265" on="0"/>
        <pt x="703" y="121" on="0"/>
        <pt x="597" y="30" on="0"/>
        <pt x="428" y="-11" on="0"/>
        <pt x="307" y="-11" on="1"/>
        <pt x="253" y="-11" on="0"/>
        <pt x="139" y="-5" on="0"/>
        <pt x="86" y="2" on="1"/>
        <pt x="86" y="295" on="1"/>
        <pt x="2" y="295" on="1"/>
      </contour>
      <contour>
        <pt x="390" y="159" on="1"/>
        <pt x="432" y="159" on="0"/>
        <pt x="487" y="177" on="0"/>
        <pt x="518" y="224" on="0"/>
        <pt x="531" y="306" on="0"/>
        <pt x="531" y="370" on="1"/>
        <pt x="531" y="432" on="0"/>
        <pt x="516" y="513" on="0"/>
        <pt x="480" y="561" on="0"/>
        <pt x="419" y="581" on="0"/>
        <pt x="373" y="581" on="1"/>
        <pt x="355" y="581" on="0"/>
        <pt x="322" y="579" on="0"/>
        <pt x="299" y="576" on="1"/>
        <pt x="299" y="454" on="1"/>
        <pt x="383" y="454" on="1"/>
        <pt x="383" y="295" on="1"/>
        <pt x="299" y="295" on="1"/>
        <pt x="299" y="165" on="1"/>
        <pt x="347" y="159" on="0"/>
      </contour>
    </TTGlyph>
    <TTGlyph name="Dcroat.sc" xMin="9" yMin="-8" xMax="700" yMax="585">
      <contour>
        <pt x="9" y="368" on="1"/>
        <pt x="84" y="368" on="1"/>
        <pt x="84" y="577" on="1"/>
        <pt x="166" y="581" on="0"/>
        <pt x="276" y="585" on="0"/>
        <pt x="319" y="585" on="1"/>
        <pt x="420" y="585" on="0"/>
        <pt x="565" y="552" on="0"/>
        <pt x="657" y="481" on="0"/>
        <pt x="700" y="368" on="0"/>
        <pt x="700" y="288" on="1"/>
        <pt x="700" y="206" on="0"/>
        <pt x="655" y="93" on="0"/>
        <pt x="557" y="23" on="0"/>
        <pt x="401" y="-8" on="0"/>
        <pt x="289" y="-8" on="1"/>
        <pt x="238" y="-8" on="0"/>
        <pt x="132" y="-3" on="0"/>
        <pt x="84" y="2" on="1"/>
        <pt x="84" y="219" on="1"/>
        <pt x="9" y="219" on="1"/>
      </contour>
      <contour>
        <pt x="369" y="151" on="1"/>
        <pt x="406" y="151" on="0"/>
        <pt x="454" y="161" on="0"/>
        <pt x="481" y="190" on="0"/>
        <pt x="492" y="244" on="0"/>
        <pt x="492" y="288" on="1"/>
        <pt x="492" y="331" on="0"/>
        <pt x="479" y="385" on="0"/>
        <pt x="448" y="416" on="0"/>
        <pt x="394" y="427" on="0"/>
        <pt x="353" y="427" on="1"/>
        <pt x="338" y="427" on="0"/>
        <pt x="308" y="426" on="0"/>
        <pt x="285" y="424" on="1"/>
        <pt x="285" y="368" on="1"/>
        <pt x="358" y="368" on="1"/>
        <pt x="358" y="219" on="1"/>
        <pt x="285" y="219" on="1"/>
        <pt x="285" y="156" on="1"/>
        <pt x="306" y="153" on="0"/>
        <pt x="349" y="151" on="0"/>
      </contour>
    </TTGlyph>
    <TTGlyph name="Ddotbelow" xMin="58" yMin="-220" xMax="723" yMax="750">
      <contour>
        <pt x="368" y="-220" on="1"/>
        <pt x="321" y="-220" on="0"/>
        <pt x="283" y="-182" on="0"/>
        <pt x="283" y="-138" on="1"/>
        <pt x="283" y="-94" on="0"/>
        <pt x="321" y="-56" on="0"/>
        <pt x="368" y="-56" on="1"/>
        <pt x="415" y="-56" on="0"/>
        <pt x="453" y="-96" on="0"/>
        <pt x="453" y="-138" on="1"/>
        <pt x="453" y="-181" on="0"/>
        <pt x="415" y="-220" on="0"/>
      </contour>
      <contour>
        <pt x="279" y="-11" on="1"/>
        <pt x="225" y="-11" on="0"/>
        <pt x="111" y="-5" on="0"/>
        <pt x="58" y="2" on="1"/>
        <pt x="58" y="739" on="1"/>
        <pt x="145" y="744" on="0"/>
        <pt x="262" y="750" on="0"/>
        <pt x="308" y="750" on="1"/>
        <pt x="419" y="750" on="0"/>
        <pt x="576" y="707" on="0"/>
        <pt x="677" y="616" on="0"/>
        <pt x="723" y="471" on="0"/>
        <pt x="723" y="369" on="1"/>
        <pt x="723" y="265" on="0"/>
        <pt x="675" y="121" on="0"/>
        <pt x="569" y="30" on="0"/>
        <pt x="400" y="-11" on="0"/>
      </contour>
      <contour>
        <pt x="362" y="159" on="1"/>
        <pt x="404" y="159" on="0"/>
        <pt x="459" y="177" on="0"/>
        <pt x="490" y="224" on="0"/>
        <pt x="503" y="306" on="0"/>
        <pt x="503" y="370" on="1"/>
        <pt x="503" y="432" on="0"/>
        <pt x="488" y="513" on="0"/>
        <pt x="452" y="561" on="0"/>
        <pt x="391" y="581" on="0"/>
        <pt x="345" y="581" on="1"/>
        <pt x="327" y="581" on="0"/>
        <pt x="294" y="579" on="0"/>
        <pt x="271" y="576" on="1"/>
        <pt x="271" y="165" on="1"/>
        <pt x="319" y="159" on="0"/>
      </contour>
    </TTGlyph>
    <TTGlyph name="Ddotbelow.sc" xMin="56" yMin="-182" xMax="671" yMax="585">
      <contour>
        <pt x="290" y="-8" on="1"/>
        <pt x="234" y="-8" on="0"/>
        <pt x="110" y="-3" on="0"/>
        <pt x="56" y="2" on="1"/>
        <pt x="56" y="577" on="1"/>
        <pt x="135" y="581" on="0"/>
        <pt x="246" y="585" on="0"/>
        <pt x="291" y="585" on="1"/>
        <pt x="392" y="585" on="0"/>
        <pt x="536" y="552" on="0"/>
        <pt x="628" y="480" on="0"/>
        <pt x="671" y="367" on="0"/>
        <pt x="671" y="288" on="1"/>
        <pt x="671" y="209" on="0"/>
        <pt x="628" y="97" on="0"/>
        <pt x="536" y="25" on="0"/>
        <pt x="391" y="-8" on="0"/>
      </contour>
      <contour>
        <pt x="341" y="151" on="1"/>
        <pt x="378" y="151" on="0"/>
        <pt x="426" y="161" on="0"/>
        <pt x="454" y="190" on="0"/>
        <pt x="464" y="244" on="0"/>
        <pt x="464" y="288" on="1"/>
        <pt x="464" y="331" on="0"/>
        <pt x="451" y="385" on="0"/>
        <pt x="420" y="416" on="0"/>
        <pt x="366" y="427" on="0"/>
        <pt x="325" y="427" on="1"/>
        <pt x="308" y="427" on="0"/>
        <pt x="279" y="426" on="0"/>
        <pt x="257" y="424" on="1"/>
        <pt x="257" y="156" on="1"/>
        <pt x="278" y="153" on="0"/>
        <pt x="319" y="151" on="0"/>
      </contour>
      <contour>
        <pt x="344" y="-182" on="1"/>
        <pt x="301" y="-182" on="0"/>
        <pt x="265" y="-147" on="0"/>
        <pt x="265" y="-109" on="1"/>
        <pt x="265" y="-71" on="0"/>
        <pt x="301" y="-36" on="0"/>
        <pt x="344" y="-36" on="1"/>
        <pt x="389" y="-36" on="0"/>
        <pt x="424" y="-71" on="0"/>
        <pt x="424" y="-109" on="1"/>
        <pt x="424" y="-147" on="0"/>
        <pt x="389" y="-182" on="0"/>
      </contour>
    </TTGlyph>
    <TTGlyph name="Delta" xMin="19" yMin="0" xMax="817" yMax="740">
      <contour>
        <pt x="288" y="740" on="1"/>
        <pt x="548" y="740" on="1"/>
        <pt x="817" y="0" on="1"/>
        <pt x="19" y="0" on="1"/>
      </contour>
      <contour>
        <pt x="560" y="169" on="1"/>
        <pt x="418" y="563" on="1"/>
        <pt x="275" y="169" on="1"/>
      </contour>
    </TTGlyph>
    <TTGlyph name="E" xMin="58" yMin="0" xMax="611" yMax="740">
      <contour>
        <pt x="58" y="740" on="1"/>
        <pt x="601" y="740" on="1"/>
        <pt x="601" y="571" on="1"/>
        <pt x="273" y="571" on="1"/>
        <pt x="273" y="455" on="1"/>
        <pt x="566" y="455" on="1"/>
        <pt x="566" y="286" on="1"/>
        <pt x="273" y="286" on="1"/>
        <pt x="273" y="169" on="1"/>
        <pt x="611" y="169" on="1"/>
        <pt x="611" y="0" on="1"/>
        <pt x="58" y="0" on="1"/>
      </contour>
    </TTGlyph>
    <TTGlyph name="E.sc" xMin="56" yMin="0" xMax="568" yMax="577">
      <contour>
        <pt x="56" y="577" on="1"/>
        <pt x="559" y="577" on="1"/>
        <pt x="559" y="425" on="1"/>
        <pt x="259" y="425" on="1"/>
        <pt x="259" y="357" on="1"/>
        <pt x="526" y="357" on="1"/>
        <pt x="526" y="220" on="1"/>
        <pt x="259" y="220" on="1"/>
        <pt x="259" y="153" on="1"/>
        <pt x="568" y="153" on="1"/>
        <pt x="568" y="0" on="1"/>
        <pt x="56" y="0" on="1"/>
      </contour>
    </TTGlyph>
    <TTGlyph name="Eacute" xMin="58" yMin="0" xMax="611" yMax="998">
      <contour>
        <pt x="247" y="809" on="1"/>
        <pt x="310" y="998" on="1"/>
        <pt x="525" y="998" on="1"/>
        <pt x="397" y="799" on="1"/>
      </contour>
      <contour>
        <pt x="58" y="740" on="1"/>
        <pt x="601" y="740" on="1"/>
        <pt x="601" y="571" on="1"/>
        <pt x="273" y="571" on="1"/>
        <pt x="273" y="455" on="1"/>
        <pt x="566" y="455" on="1"/>
        <pt x="566" y="286" on="1"/>
        <pt x="273" y="286" on="1"/>
        <pt x="273" y="169" on="1"/>
        <pt x="611" y="169" on="1"/>
        <pt x="611" y="0" on="1"/>
        <pt x="58" y="0" on="1"/>
      </contour>
    </TTGlyph>
    <TTGlyph name="Eacute.sc" xMin="56" yMin="0" xMax="568" yMax="794">
      <contour>
        <pt x="56" y="577" on="1"/>
        <pt x="559" y="577" on="1"/>
        <pt x="559" y="425" on="1"/>
        <pt x="259" y="425" on="1"/>
        <pt x="259" y="357" on="1"/>
        <pt x="526" y="357" on="1"/>
        <pt x="526" y="220" on="1"/>
        <pt x="259" y="220" on="1"/>
        <pt x="259" y="153" on="1"/>
        <pt x="568" y="153" on="1"/>
        <pt x="568" y="0" on="1"/>
        <pt x="56" y="0" on="1"/>
      </contour>
      <contour>
        <pt x="229" y="634" on="1"/>
        <pt x="285" y="794" on="1"/>
        <pt x="487" y="794" on="1"/>
        <pt x="370" y="625" on="1"/>
      </contour>
    </TTGlyph>
    <TTGlyph name="Ebreve" xMin="58" yMin="0" xMax="611" yMax="991">
      <contour>
        <pt x="328" y="801" on="1"/>
        <pt x="267" y="801" on="0"/>
        <pt x="182" y="829" on="0"/>
        <pt x="129" y="880" on="0"/>
        <pt x="105" y="949" on="0"/>
        <pt x="105" y="991" on="1"/>
        <pt x="243" y="991" on="1"/>
        <pt x="243" y="941" on="0"/>
        <pt x="277" y="896" on="0"/>
        <pt x="328" y="896" on="1"/>
        <pt x="378" y="896" on="0"/>
        <pt x="412" y="941" on="0"/>
        <pt x="412" y="991" on="1"/>
        <pt x="550" y="991" on="1"/>
        <pt x="550" y="949" on="0"/>
        <pt x="526" y="879" on="0"/>
        <pt x="472" y="829" on="0"/>
        <pt x="388" y="801" on="0"/>
      </contour>
      <contour>
        <pt x="58" y="740" on="1"/>
        <pt x="601" y="740" on="1"/>
        <pt x="601" y="571" on="1"/>
        <pt x="273" y="571" on="1"/>
        <pt x="273" y="455" on="1"/>
        <pt x="566" y="455" on="1"/>
        <pt x="566" y="286" on="1"/>
        <pt x="273" y="286" on="1"/>
        <pt x="273" y="169" on="1"/>
        <pt x="611" y="169" on="1"/>
        <pt x="611" y="0" on="1"/>
        <pt x="58" y="0" on="1"/>
      </contour>
    </TTGlyph>
    <TTGlyph name="Ebreve.sc" xMin="56" yMin="0" xMax="568" yMax="783">
      <contour>
        <pt x="304" y="623" on="1"/>
        <pt x="247" y="623" on="0"/>
        <pt x="168" y="647" on="0"/>
        <pt x="119" y="690" on="0"/>
        <pt x="97" y="748" on="0"/>
        <pt x="97" y="783" on="1"/>
        <pt x="227" y="783" on="1"/>
        <pt x="227" y="744" on="0"/>
        <pt x="257" y="710" on="0"/>
        <pt x="304" y="710" on="1"/>
        <pt x="351" y="710" on="0"/>
        <pt x="382" y="744" on="0"/>
        <pt x="382" y="783" on="1"/>
        <pt x="511" y="783" on="1"/>
        <pt x="511" y="748" on="0"/>
        <pt x="489" y="689" on="0"/>
        <pt x="440" y="647" on="0"/>
        <pt x="361" y="623" on="0"/>
      </contour>
      <contour>
        <pt x="56" y="577" on="1"/>
        <pt x="559" y="577" on="1"/>
        <pt x="559" y="425" on="1"/>
        <pt x="259" y="425" on="1"/>
        <pt x="259" y="357" on="1"/>
        <pt x="526" y="357" on="1"/>
        <pt x="526" y="220" on="1"/>
        <pt x="259" y="220" on="1"/>
        <pt x="259" y="153" on="1"/>
        <pt x="568" y="153" on="1"/>
        <pt x="568" y="0" on="1"/>
        <pt x="56" y="0" on="1"/>
      </contour>
    </TTGlyph>
    <TTGlyph name="Ecaron" xMin="58" yMin="0" xMax="611" yMax="1004">
      <contour>
        <pt x="134" y="1004" on="1"/>
        <pt x="337" y="928" on="1"/>
        <pt x="540" y="1004" on="1"/>
        <pt x="540" y="868" on="1"/>
        <pt x="336" y="792" on="1"/>
        <pt x="134" y="868" on="1"/>
      </contour>
      <contour>
        <pt x="58" y="740" on="1"/>
        <pt x="601" y="740" on="1"/>
        <pt x="601" y="571" on="1"/>
        <pt x="273" y="571" on="1"/>
        <pt x="273" y="455" on="1"/>
        <pt x="566" y="455" on="1"/>
        <pt x="566" y="286" on="1"/>
        <pt x="273" y="286" on="1"/>
        <pt x="273" y="169" on="1"/>
        <pt x="611" y="169" on="1"/>
        <pt x="611" y="0" on="1"/>
        <pt x="58" y="0" on="1"/>
      </contour>
    </TTGlyph>
    <TTGlyph name="Ecaron.sc" xMin="56" yMin="0" xMax="568" yMax="801">
      <contour>
        <pt x="56" y="577" on="1"/>
        <pt x="559" y="577" on="1"/>
        <pt x="559" y="425" on="1"/>
        <pt x="259" y="425" on="1"/>
        <pt x="259" y="357" on="1"/>
        <pt x="526" y="357" on="1"/>
        <pt x="526" y="220" on="1"/>
        <pt x="259" y="220" on="1"/>
        <pt x="259" y="153" on="1"/>
        <pt x="568" y="153" on="1"/>
        <pt x="568" y="0" on="1"/>
        <pt x="56" y="0" on="1"/>
      </contour>
      <contour>
        <pt x="124" y="676" on="1"/>
        <pt x="124" y="801" on="1"/>
        <pt x="313" y="740" on="1"/>
        <pt x="502" y="801" on="1"/>
        <pt x="502" y="676" on="1"/>
        <pt x="312" y="615" on="1"/>
      </contour>
    </TTGlyph>
    <TTGlyph name="Ecircumflex" xMin="58" yMin="0" xMax="611" yMax="1004">
      <contour>
        <pt x="58" y="740" on="1"/>
        <pt x="601" y="740" on="1"/>
        <pt x="601" y="571" on="1"/>
        <pt x="273" y="571" on="1"/>
        <pt x="273" y="455" on="1"/>
        <pt x="566" y="455" on="1"/>
        <pt x="566" y="286" on="1"/>
        <pt x="273" y="286" on="1"/>
        <pt x="273" y="169" on="1"/>
        <pt x="611" y="169" on="1"/>
        <pt x="611" y="0" on="1"/>
        <pt x="58" y="0" on="1"/>
      </contour>
      <contour>
        <pt x="140" y="928" on="1"/>
        <pt x="342" y="1004" on="1"/>
        <pt x="546" y="928" on="1"/>
        <pt x="546" y="792" on="1"/>
        <pt x="343" y="868" on="1"/>
        <pt x="140" y="792" on="1"/>
      </contour>
    </TTGlyph>
    <TTGlyph name="Ecircumflex.sc" xMin="56" yMin="0" xMax="568" yMax="800">
      <contour>
        <pt x="56" y="577" on="1"/>
        <pt x="559" y="577" on="1"/>
        <pt x="559" y="425" on="1"/>
        <pt x="259" y="425" on="1"/>
        <pt x="259" y="357" on="1"/>
        <pt x="526" y="357" on="1"/>
        <pt x="526" y="220" on="1"/>
        <pt x="259" y="220" on="1"/>
        <pt x="259" y="153" on="1"/>
        <pt x="568" y="153" on="1"/>
        <pt x="568" y="0" on="1"/>
        <pt x="56" y="0" on="1"/>
      </contour>
      <contour>
        <pt x="131" y="738" on="1"/>
        <pt x="319" y="800" on="1"/>
        <pt x="509" y="738" on="1"/>
        <pt x="509" y="613" on="1"/>
        <pt x="320" y="674" on="1"/>
        <pt x="131" y="613" on="1"/>
      </contour>
    </TTGlyph>
    <TTGlyph name="Edblgrave" xMin="29" yMin="0" xMax="611" yMax="998">
      <contour>
        <pt x="58" y="740" on="1"/>
        <pt x="601" y="740" on="1"/>
        <pt x="601" y="571" on="1"/>
        <pt x="273" y="571" on="1"/>
        <pt x="273" y="455" on="1"/>
        <pt x="566" y="455" on="1"/>
        <pt x="566" y="286" on="1"/>
        <pt x="273" y="286" on="1"/>
        <pt x="273" y="169" on="1"/>
        <pt x="611" y="169" on="1"/>
        <pt x="611" y="0" on="1"/>
        <pt x="58" y="0" on="1"/>
      </contour>
      <contour>
        <pt x="157" y="799" on="1"/>
        <pt x="29" y="998" on="1"/>
        <pt x="223" y="998" on="1"/>
        <pt x="285" y="809" on="1"/>
      </contour>
      <contour>
        <pt x="382" y="799" on="1"/>
        <pt x="254" y="998" on="1"/>
        <pt x="448" y="998" on="1"/>
        <pt x="511" y="809" on="1"/>
      </contour>
    </TTGlyph>
    <TTGlyph name="Edblgrave.sc" xMin="25" yMin="0" xMax="568" yMax="795">
      <contour>
        <pt x="56" y="577" on="1"/>
        <pt x="559" y="577" on="1"/>
        <pt x="559" y="425" on="1"/>
        <pt x="259" y="425" on="1"/>
        <pt x="259" y="357" on="1"/>
        <pt x="526" y="357" on="1"/>
        <pt x="526" y="220" on="1"/>
        <pt x="259" y="220" on="1"/>
        <pt x="259" y="153" on="1"/>
        <pt x="568" y="153" on="1"/>
        <pt x="568" y="0" on="1"/>
        <pt x="56" y="0" on="1"/>
      </contour>
      <contour>
        <pt x="25" y="795" on="1"/>
        <pt x="211" y="795" on="1"/>
        <pt x="266" y="633" on="1"/>
        <pt x="143" y="626" on="1"/>
      </contour>
      <contour>
        <pt x="235" y="795" on="1"/>
        <pt x="420" y="795" on="1"/>
        <pt x="476" y="633" on="1"/>
        <pt x="353" y="626" on="1"/>
      </contour>
    </TTGlyph>
    <TTGlyph name="Edieresis" xMin="58" yMin="0" xMax="611" yMax="1014">
      <contour>
        <pt x="193" y="796" on="1"/>
        <pt x="132" y="796" on="0"/>
        <pt x="81" y="848" on="0"/>
        <pt x="81" y="905" on="1"/>
        <pt x="81" y="962" on="0"/>
        <pt x="132" y="1014" on="0"/>
        <pt x="193" y="1014" on="1"/>
        <pt x="253" y="1014" on="0"/>
        <pt x="305" y="962" on="0"/>
        <pt x="305" y="905" on="1"/>
        <pt x="305" y="848" on="0"/>
        <pt x="253" y="796" on="0"/>
      </contour>
      <contour>
        <pt x="485" y="796" on="1"/>
        <pt x="425" y="796" on="0"/>
        <pt x="374" y="848" on="0"/>
        <pt x="374" y="905" on="1"/>
        <pt x="374" y="962" on="0"/>
        <pt x="425" y="1014" on="0"/>
        <pt x="485" y="1014" on="1"/>
        <pt x="546" y="1014" on="0"/>
        <pt x="597" y="962" on="0"/>
        <pt x="597" y="905" on="1"/>
        <pt x="597" y="848" on="0"/>
        <pt x="546" y="796" on="0"/>
      </contour>
      <contour>
        <pt x="58" y="740" on="1"/>
        <pt x="601" y="740" on="1"/>
        <pt x="601" y="571" on="1"/>
        <pt x="273" y="571" on="1"/>
        <pt x="273" y="455" on="1"/>
        <pt x="566" y="455" on="1"/>
        <pt x="566" y="286" on="1"/>
        <pt x="273" y="286" on="1"/>
        <pt x="273" y="169" on="1"/>
        <pt x="611" y="169" on="1"/>
        <pt x="611" y="0" on="1"/>
        <pt x="58" y="0" on="1"/>
      </contour>
    </TTGlyph>
    <TTGlyph name="Edieresis.sc" xMin="56" yMin="0" xMax="568" yMax="816">
      <contour>
        <pt x="182" y="616" on="1"/>
        <pt x="125" y="616" on="0"/>
        <pt x="76" y="663" on="0"/>
        <pt x="76" y="716" on="1"/>
        <pt x="76" y="769" on="0"/>
        <pt x="125" y="816" on="0"/>
        <pt x="182" y="816" on="1"/>
        <pt x="239" y="816" on="0"/>
        <pt x="287" y="767" on="0"/>
        <pt x="287" y="716" on="1"/>
        <pt x="287" y="664" on="0"/>
        <pt x="239" y="616" on="0"/>
      </contour>
      <contour>
        <pt x="451" y="616" on="1"/>
        <pt x="394" y="616" on="0"/>
        <pt x="347" y="663" on="0"/>
        <pt x="347" y="716" on="1"/>
        <pt x="347" y="769" on="0"/>
        <pt x="394" y="816" on="0"/>
        <pt x="451" y="816" on="1"/>
        <pt x="508" y="816" on="0"/>
        <pt x="556" y="767" on="0"/>
        <pt x="556" y="716" on="1"/>
        <pt x="556" y="664" on="0"/>
        <pt x="508" y="616" on="0"/>
      </contour>
      <contour>
        <pt x="56" y="577" on="1"/>
        <pt x="559" y="577" on="1"/>
        <pt x="559" y="425" on="1"/>
        <pt x="259" y="425" on="1"/>
        <pt x="259" y="357" on="1"/>
        <pt x="526" y="357" on="1"/>
        <pt x="526" y="220" on="1"/>
        <pt x="259" y="220" on="1"/>
        <pt x="259" y="153" on="1"/>
        <pt x="568" y="153" on="1"/>
        <pt x="568" y="0" on="1"/>
        <pt x="56" y="0" on="1"/>
      </contour>
    </TTGlyph>
    <TTGlyph name="Edotaccent" xMin="58" yMin="0" xMax="611" yMax="1014">
      <contour>
        <pt x="328" y="796" on="1"/>
        <pt x="267" y="796" on="0"/>
        <pt x="216" y="848" on="0"/>
        <pt x="216" y="905" on="1"/>
        <pt x="216" y="962" on="0"/>
        <pt x="267" y="1014" on="0"/>
        <pt x="328" y="1014" on="1"/>
        <pt x="388" y="1014" on="0"/>
        <pt x="440" y="962" on="0"/>
        <pt x="440" y="905" on="1"/>
        <pt x="440" y="848" on="0"/>
        <pt x="388" y="796" on="0"/>
      </contour>
      <contour>
        <pt x="58" y="740" on="1"/>
        <pt x="601" y="740" on="1"/>
        <pt x="601" y="571" on="1"/>
        <pt x="273" y="571" on="1"/>
        <pt x="273" y="455" on="1"/>
        <pt x="566" y="455" on="1"/>
        <pt x="566" y="286" on="1"/>
        <pt x="273" y="286" on="1"/>
        <pt x="273" y="169" on="1"/>
        <pt x="611" y="169" on="1"/>
        <pt x="611" y="0" on="1"/>
        <pt x="58" y="0" on="1"/>
      </contour>
    </TTGlyph>
    <TTGlyph name="Edotaccent.sc" xMin="56" yMin="0" xMax="568" yMax="818">
      <contour>
        <pt x="304" y="618" on="1"/>
        <pt x="247" y="618" on="0"/>
        <pt x="199" y="664" on="0"/>
        <pt x="199" y="718" on="1"/>
        <pt x="199" y="771" on="0"/>
        <pt x="247" y="818" on="0"/>
        <pt x="304" y="818" on="1"/>
        <pt x="361" y="818" on="0"/>
        <pt x="409" y="769" on="0"/>
        <pt x="409" y="718" on="1"/>
        <pt x="409" y="666" on="0"/>
        <pt x="361" y="618" on="0"/>
      </contour>
      <contour>
        <pt x="56" y="577" on="1"/>
        <pt x="559" y="577" on="1"/>
        <pt x="559" y="425" on="1"/>
        <pt x="259" y="425" on="1"/>
        <pt x="259" y="357" on="1"/>
        <pt x="526" y="357" on="1"/>
        <pt x="526" y="220" on="1"/>
        <pt x="259" y="220" on="1"/>
        <pt x="259" y="153" on="1"/>
        <pt x="568" y="153" on="1"/>
        <pt x="568" y="0" on="1"/>
        <pt x="56" y="0" on="1"/>
      </contour>
    </TTGlyph>
    <TTGlyph name="Edotbelow" xMin="58" yMin="-220" xMax="611" yMax="740">
      <contour>
        <pt x="58" y="740" on="1"/>
        <pt x="601" y="740" on="1"/>
        <pt x="601" y="571" on="1"/>
        <pt x="273" y="571" on="1"/>
        <pt x="273" y="455" on="1"/>
        <pt x="566" y="455" on="1"/>
        <pt x="566" y="286" on="1"/>
        <pt x="273" y="286" on="1"/>
        <pt x="273" y="169" on="1"/>
        <pt x="611" y="169" on="1"/>
        <pt x="611" y="0" on="1"/>
        <pt x="58" y="0" on="1"/>
      </contour>
      <contour>
        <pt x="344" y="-220" on="1"/>
        <pt x="297" y="-220" on="0"/>
        <pt x="259" y="-182" on="0"/>
        <pt x="259" y="-138" on="1"/>
        <pt x="259" y="-94" on="0"/>
        <pt x="297" y="-56" on="0"/>
        <pt x="344" y="-56" on="1"/>
        <pt x="391" y="-56" on="0"/>
        <pt x="429" y="-96" on="0"/>
        <pt x="429" y="-138" on="1"/>
        <pt x="429" y="-181" on="0"/>
        <pt x="391" y="-220" on="0"/>
      </contour>
    </TTGlyph>
    <TTGlyph name="Edotbelow.sc" xMin="56" yMin="-182" xMax="568" yMax="577">
      <contour>
        <pt x="320" y="-182" on="1"/>
        <pt x="277" y="-182" on="0"/>
        <pt x="241" y="-147" on="0"/>
        <pt x="241" y="-109" on="1"/>
        <pt x="241" y="-70" on="0"/>
        <pt x="277" y="-36" on="0"/>
        <pt x="320" y="-36" on="1"/>
        <pt x="365" y="-36" on="0"/>
        <pt x="400" y="-71" on="0"/>
        <pt x="400" y="-109" on="1"/>
        <pt x="400" y="-146" on="0"/>
        <pt x="365" y="-182" on="0"/>
      </contour>
      <contour>
        <pt x="56" y="577" on="1"/>
        <pt x="559" y="577" on="1"/>
        <pt x="559" y="425" on="1"/>
        <pt x="259" y="425" on="1"/>
        <pt x="259" y="357" on="1"/>
        <pt x="526" y="357" on="1"/>
        <pt x="526" y="220" on="1"/>
        <pt x="259" y="220" on="1"/>
        <pt x="259" y="153" on="1"/>
        <pt x="568" y="153" on="1"/>
        <pt x="568" y="0" on="1"/>
        <pt x="56" y="0" on="1"/>
      </contour>
    </TTGlyph>
    <TTGlyph name="Egrave" xMin="58" yMin="0" xMax="611" yMax="998">
      <contour>
        <pt x="272" y="799" on="1"/>
        <pt x="144" y="998" on="1"/>
        <pt x="359" y="998" on="1"/>
        <pt x="421" y="809" on="1"/>
      </contour>
      <contour>
        <pt x="58" y="740" on="1"/>
        <pt x="601" y="740" on="1"/>
        <pt x="601" y="571" on="1"/>
        <pt x="273" y="571" on="1"/>
        <pt x="273" y="455" on="1"/>
        <pt x="566" y="455" on="1"/>
        <pt x="566" y="286" on="1"/>
        <pt x="273" y="286" on="1"/>
        <pt x="273" y="169" on="1"/>
        <pt x="611" y="169" on="1"/>
        <pt x="611" y="0" on="1"/>
        <pt x="58" y="0" on="1"/>
      </contour>
    </TTGlyph>
    <TTGlyph name="Egrave.sc" xMin="56" yMin="0" xMax="568" yMax="794">
      <contour>
        <pt x="56" y="577" on="1"/>
        <pt x="559" y="577" on="1"/>
        <pt x="559" y="425" on="1"/>
        <pt x="259" y="425" on="1"/>
        <pt x="259" y="357" on="1"/>
        <pt x="526" y="357" on="1"/>
        <pt x="526" y="220" on="1"/>
        <pt x="259" y="220" on="1"/>
        <pt x="259" y="153" on="1"/>
        <pt x="568" y="153" on="1"/>
        <pt x="568" y="0" on="1"/>
        <pt x="56" y="0" on="1"/>
      </contour>
      <contour>
        <pt x="137" y="794" on="1"/>
        <pt x="340" y="794" on="1"/>
        <pt x="395" y="632" on="1"/>
        <pt x="254" y="625" on="1"/>
      </contour>
    </TTGlyph>
    <TTGlyph name="Einvertedbreve" xMin="58" yMin="0" xMax="611" yMax="1001">
      <contour>
        <pt x="58" y="740" on="1"/>
        <pt x="601" y="740" on="1"/>
        <pt x="601" y="571" on="1"/>
        <pt x="273" y="571" on="1"/>
        <pt x="273" y="455" on="1"/>
        <pt x="566" y="455" on="1"/>
        <pt x="566" y="286" on="1"/>
        <pt x="273" y="286" on="1"/>
        <pt x="273" y="169" on="1"/>
        <pt x="611" y="169" on="1"/>
        <pt x="611" y="0" on="1"/>
        <pt x="58" y="0" on="1"/>
      </contour>
      <contour>
        <pt x="418" y="811" on="1"/>
        <pt x="418" y="860" on="0"/>
        <pt x="384" y="905" on="0"/>
        <pt x="334" y="905" on="1"/>
        <pt x="283" y="905" on="0"/>
        <pt x="249" y="861" on="0"/>
        <pt x="249" y="811" on="1"/>
        <pt x="111" y="811" on="1"/>
        <pt x="111" y="853" on="0"/>
        <pt x="135" y="922" on="0"/>
        <pt x="188" y="973" on="0"/>
        <pt x="273" y="1001" on="0"/>
        <pt x="334" y="1001" on="1"/>
        <pt x="394" y="1001" on="0"/>
        <pt x="478" y="973" on="0"/>
        <pt x="532" y="923" on="0"/>
        <pt x="556" y="853" on="0"/>
        <pt x="556" y="811" on="1"/>
      </contour>
    </TTGlyph>
    <TTGlyph name="Einvertedbreve.sc" xMin="56" yMin="0" xMax="568" yMax="792">
      <contour>
        <pt x="103" y="632" on="1"/>
        <pt x="103" y="666" on="0"/>
        <pt x="125" y="725" on="0"/>
        <pt x="174" y="768" on="0"/>
        <pt x="254" y="792" on="0"/>
        <pt x="311" y="792" on="1"/>
        <pt x="368" y="792" on="0"/>
        <pt x="446" y="768" on="0"/>
        <pt x="496" y="726" on="0"/>
        <pt x="518" y="667" on="0"/>
        <pt x="518" y="632" on="1"/>
        <pt x="388" y="632" on="1"/>
        <pt x="388" y="670" on="0"/>
        <pt x="358" y="704" on="0"/>
        <pt x="311" y="704" on="1"/>
        <pt x="263" y="704" on="0"/>
        <pt x="233" y="670" on="0"/>
        <pt x="233" y="632" on="1"/>
      </contour>
      <contour>
        <pt x="56" y="577" on="1"/>
        <pt x="559" y="577" on="1"/>
        <pt x="559" y="425" on="1"/>
        <pt x="259" y="425" on="1"/>
        <pt x="259" y="357" on="1"/>
        <pt x="526" y="357" on="1"/>
        <pt x="526" y="220" on="1"/>
        <pt x="259" y="220" on="1"/>
        <pt x="259" y="153" on="1"/>
        <pt x="568" y="153" on="1"/>
        <pt x="568" y="0" on="1"/>
        <pt x="56" y="0" on="1"/>
      </contour>
    </TTGlyph>
    <TTGlyph name="Emacron" xMin="58" yMin="0" xMax="611" yMax="976">
      <contour>
        <pt x="132" y="976" on="1"/>
        <pt x="537" y="976" on="1"/>
        <pt x="537" y="840" on="1"/>
        <pt x="132" y="840" on="1"/>
      </contour>
      <contour>
        <pt x="58" y="740" on="1"/>
        <pt x="601" y="740" on="1"/>
        <pt x="601" y="571" on="1"/>
        <pt x="273" y="571" on="1"/>
        <pt x="273" y="455" on="1"/>
        <pt x="566" y="455" on="1"/>
        <pt x="566" y="286" on="1"/>
        <pt x="273" y="286" on="1"/>
        <pt x="273" y="169" on="1"/>
        <pt x="611" y="169" on="1"/>
        <pt x="611" y="0" on="1"/>
        <pt x="58" y="0" on="1"/>
      </contour>
    </TTGlyph>
    <TTGlyph name="Emacron.sc" xMin="56" yMin="0" xMax="568" yMax="781">
      <contour>
        <pt x="56" y="577" on="1"/>
        <pt x="559" y="577" on="1"/>
        <pt x="559" y="425" on="1"/>
        <pt x="259" y="425" on="1"/>
        <pt x="259" y="357" on="1"/>
        <pt x="526" y="357" on="1"/>
        <pt x="526" y="220" on="1"/>
        <pt x="259" y="220" on="1"/>
        <pt x="259" y="153" on="1"/>
        <pt x="568" y="153" on="1"/>
        <pt x="568" y="0" on="1"/>
        <pt x="56" y="0" on="1"/>
      </contour>
      <contour>
        <pt x="124" y="781" on="1"/>
        <pt x="501" y="781" on="1"/>
        <pt x="501" y="655" on="1"/>
        <pt x="124" y="655" on="1"/>
      </contour>
    </TTGlyph>
    <TTGlyph name="Eng" xMin="58" yMin="-216" xMax="728" yMax="740">
      <contour>
        <pt x="451" y="-170" on="1"/>
        <pt x="480" y="-102" on="0"/>
        <pt x="509" y="6" on="0"/>
        <pt x="515" y="62" on="1"/>
        <pt x="315" y="320" on="1"/>
        <pt x="258" y="409" on="1"/>
        <pt x="248" y="409" on="1"/>
        <pt x="248" y="0" on="1"/>
        <pt x="58" y="0" on="1"/>
        <pt x="58" y="740" on="1"/>
        <pt x="225" y="740" on="1"/>
        <pt x="477" y="415" on="1"/>
        <pt x="528" y="333" on="1"/>
        <pt x="538" y="333" on="1"/>
        <pt x="538" y="740" on="1"/>
        <pt x="728" y="740" on="1"/>
        <pt x="728" y="135" on="1"/>
        <pt x="728" y="104" on="0"/>
        <pt x="706" y="19" on="0"/>
        <pt x="669" y="-76" on="0"/>
        <pt x="618" y="-173" on="0"/>
        <pt x="589" y="-216" on="1"/>
      </contour>
    </TTGlyph>
    <TTGlyph name="Eng.sc" xMin="56" yMin="-176" xMax="660" yMax="577">
      <contour>
        <pt x="409" y="-133" on="1"/>
        <pt x="422" y="-103" on="0"/>
        <pt x="442" y="-55" on="0"/>
        <pt x="455" y="-12" on="0"/>
        <pt x="464" y="27" on="0"/>
        <pt x="467" y="47" on="1"/>
        <pt x="299" y="203" on="1"/>
        <pt x="245" y="275" on="1"/>
        <pt x="235" y="275" on="1"/>
        <pt x="235" y="0" on="1"/>
        <pt x="56" y="0" on="1"/>
        <pt x="56" y="577" on="1"/>
        <pt x="213" y="577" on="1"/>
        <pt x="423" y="368" on="1"/>
        <pt x="471" y="304" on="1"/>
        <pt x="481" y="304" on="1"/>
        <pt x="481" y="577" on="1"/>
        <pt x="660" y="577" on="1"/>
        <pt x="660" y="119" on="1"/>
        <pt x="660" y="92" on="0"/>
        <pt x="643" y="22" on="0"/>
        <pt x="611" y="-55" on="0"/>
        <pt x="566" y="-137" on="0"/>
        <pt x="539" y="-176" on="1"/>
      </contour>
    </TTGlyph>
    <TTGlyph name="Eogonek" xMin="58" yMin="-220" xMax="612" yMax="740">
      <contour>
        <pt x="58" y="740" on="1"/>
        <pt x="601" y="740" on="1"/>
        <pt x="601" y="571" on="1"/>
        <pt x="273" y="571" on="1"/>
        <pt x="273" y="455" on="1"/>
        <pt x="566" y="455" on="1"/>
        <pt x="566" y="286" on="1"/>
        <pt x="273" y="286" on="1"/>
        <pt x="273" y="169" on="1"/>
        <pt x="611" y="169" on="1"/>
        <pt x="611" y="-5" on="1"/>
        <pt x="577" y="-18" on="0"/>
        <pt x="532" y="-42" on="0"/>
        <pt x="505" y="-63" on="0"/>
        <pt x="494" y="-82" on="0"/>
        <pt x="494" y="-90" on="1"/>
        <pt x="494" y="-109" on="0"/>
        <pt x="524" y="-109" on="1"/>
        <pt x="540" y="-109" on="0"/>
        <pt x="591" y="-100" on="0"/>
        <pt x="612" y="-94" on="1"/>
        <pt x="612" y="-208" on="1"/>
        <pt x="588" y="-214" on="0"/>
        <pt x="542" y="-220" on="0"/>
        <pt x="516" y="-220" on="1"/>
        <pt x="441" y="-220" on="0"/>
        <pt x="361" y="-169" on="0"/>
        <pt x="361" y="-120" on="1"/>
        <pt x="361" y="-54" on="0"/>
        <pt x="439" y="0" on="1"/>
        <pt x="58" y="0" on="1"/>
      </contour>
    </TTGlyph>
    <TTGlyph name="Eogonek.sc" xMin="56" yMin="-172" xMax="570" yMax="577">
      <contour>
        <pt x="481" y="-172" on="1"/>
        <pt x="408" y="-172" on="0"/>
        <pt x="336" y="-129" on="0"/>
        <pt x="336" y="-89" on="1"/>
        <pt x="336" y="-62" on="0"/>
        <pt x="371" y="-17" on="0"/>
        <pt x="400" y="0" on="1"/>
        <pt x="56" y="0" on="1"/>
        <pt x="56" y="577" on="1"/>
        <pt x="560" y="577" on="1"/>
        <pt x="560" y="425" on="1"/>
        <pt x="259" y="425" on="1"/>
        <pt x="259" y="357" on="1"/>
        <pt x="527" y="357" on="1"/>
        <pt x="527" y="220" on="1"/>
        <pt x="259" y="220" on="1"/>
        <pt x="259" y="153" on="1"/>
        <pt x="568" y="153" on="1"/>
        <pt x="568" y="-1" on="1"/>
        <pt x="533" y="-13" on="0"/>
        <pt x="490" y="-33" on="0"/>
        <pt x="468" y="-48" on="0"/>
        <pt x="461" y="-57" on="0"/>
        <pt x="461" y="-60" on="1"/>
        <pt x="461" y="-68" on="0"/>
        <pt x="486" y="-68" on="1"/>
        <pt x="502" y="-68" on="0"/>
        <pt x="554" y="-61" on="0"/>
        <pt x="570" y="-58" on="1"/>
        <pt x="570" y="-162" on="1"/>
        <pt x="524" y="-172" on="0"/>
      </contour>
    </TTGlyph>
    <TTGlyph name="Eth" xMin="2" yMin="-11" xMax="751" yMax="750">
      <contour>
        <pt x="2" y="454" on="1"/>
        <pt x="86" y="454" on="1"/>
        <pt x="86" y="739" on="1"/>
        <pt x="173" y="744" on="0"/>
        <pt x="290" y="750" on="0"/>
        <pt x="336" y="750" on="1"/>
        <pt x="447" y="750" on="0"/>
        <pt x="604" y="707" on="0"/>
        <pt x="705" y="616" on="0"/>
        <pt x="751" y="471" on="0"/>
        <pt x="751" y="369" on="1"/>
        <pt x="751" y="265" on="0"/>
        <pt x="703" y="121" on="0"/>
        <pt x="597" y="30" on="0"/>
        <pt x="428" y="-11" on="0"/>
        <pt x="307" y="-11" on="1"/>
        <pt x="253" y="-11" on="0"/>
        <pt x="139" y="-5" on="0"/>
        <pt x="86" y="2" on="1"/>
        <pt x="86" y="295" on="1"/>
        <pt x="2" y="295" on="1"/>
      </contour>
      <contour>
        <pt x="390" y="159" on="1"/>
        <pt x="432" y="159" on="0"/>
        <pt x="487" y="177" on="0"/>
        <pt x="518" y="224" on="0"/>
        <pt x="531" y="306" on="0"/>
        <pt x="531" y="370" on="1"/>
        <pt x="531" y="432" on="0"/>
        <pt x="516" y="513" on="0"/>
        <pt x="480" y="561" on="0"/>
        <pt x="419" y="581" on="0"/>
        <pt x="373" y="581" on="1"/>
        <pt x="355" y="581" on="0"/>
        <pt x="322" y="579" on="0"/>
        <pt x="299" y="576" on="1"/>
        <pt x="299" y="454" on="1"/>
        <pt x="383" y="454" on="1"/>
        <pt x="383" y="295" on="1"/>
        <pt x="299" y="295" on="1"/>
        <pt x="299" y="165" on="1"/>
        <pt x="347" y="159" on="0"/>
      </contour>
    </TTGlyph>
    <TTGlyph name="Eth.sc" xMin="7" yMin="-8" xMax="698" yMax="585">
      <contour>
        <pt x="7" y="363" on="1"/>
        <pt x="82" y="363" on="1"/>
        <pt x="82" y="577" on="1"/>
        <pt x="165" y="581" on="0"/>
        <pt x="275" y="585" on="0"/>
        <pt x="318" y="585" on="1"/>
        <pt x="419" y="585" on="0"/>
        <pt x="563" y="552" on="0"/>
        <pt x="655" y="481" on="0"/>
        <pt x="698" y="368" on="0"/>
        <pt x="698" y="288" on="1"/>
        <pt x="698" y="206" on="0"/>
        <pt x="653" y="93" on="0"/>
        <pt x="555" y="23" on="0"/>
        <pt x="399" y="-8" on="0"/>
        <pt x="287" y="-8" on="1"/>
        <pt x="237" y="-8" on="0"/>
        <pt x="130" y="-3" on="0"/>
        <pt x="82" y="2" on="1"/>
        <pt x="82" y="221" on="1"/>
        <pt x="7" y="221" on="1"/>
      </contour>
      <contour>
        <pt x="367" y="151" on="1"/>
        <pt x="404" y="151" on="0"/>
        <pt x="452" y="161" on="0"/>
        <pt x="480" y="190" on="0"/>
        <pt x="491" y="244" on="0"/>
        <pt x="491" y="288" on="1"/>
        <pt x="491" y="331" on="0"/>
        <pt x="478" y="385" on="0"/>
        <pt x="447" y="416" on="0"/>
        <pt x="393" y="427" on="0"/>
        <pt x="352" y="427" on="1"/>
        <pt x="336" y="427" on="0"/>
        <pt x="307" y="426" on="0"/>
        <pt x="284" y="424" on="1"/>
        <pt x="284" y="363" on="1"/>
        <pt x="357" y="363" on="1"/>
        <pt x="357" y="221" on="1"/>
        <pt x="284" y="221" on="1"/>
        <pt x="284" y="156" on="1"/>
        <pt x="305" y="153" on="0"/>
        <pt x="347" y="151" on="0"/>
      </contour>
    </TTGlyph>
    <TTGlyph name="Etilde" xMin="58" yMin="0" xMax="611" yMax="988">
      <contour>
        <pt x="103" y="847" on="1"/>
        <pt x="138" y="919" on="0"/>
        <pt x="228" y="988" on="0"/>
        <pt x="270" y="988" on="1"/>
        <pt x="294" y="988" on="0"/>
        <pt x="343" y="976" on="0"/>
        <pt x="391" y="963" on="0"/>
        <pt x="439" y="951" on="0"/>
        <pt x="464" y="951" on="1"/>
        <pt x="486" y="951" on="0"/>
        <pt x="527" y="966" on="0"/>
        <pt x="556" y="988" on="1"/>
        <pt x="579" y="959" on="1"/>
        <pt x="543" y="887" on="0"/>
        <pt x="454" y="818" on="0"/>
        <pt x="412" y="818" on="1"/>
        <pt x="388" y="818" on="0"/>
        <pt x="339" y="829" on="0"/>
        <pt x="291" y="843" on="0"/>
        <pt x="242" y="854" on="0"/>
        <pt x="218" y="854" on="1"/>
        <pt x="195" y="854" on="0"/>
        <pt x="153" y="840" on="0"/>
        <pt x="126" y="818" on="1"/>
      </contour>
      <contour>
        <pt x="58" y="740" on="1"/>
        <pt x="601" y="740" on="1"/>
        <pt x="601" y="571" on="1"/>
        <pt x="273" y="571" on="1"/>
        <pt x="273" y="455" on="1"/>
        <pt x="566" y="455" on="1"/>
        <pt x="566" y="286" on="1"/>
        <pt x="273" y="286" on="1"/>
        <pt x="273" y="169" on="1"/>
        <pt x="611" y="169" on="1"/>
        <pt x="611" y="0" on="1"/>
        <pt x="58" y="0" on="1"/>
      </contour>
    </TTGlyph>
    <TTGlyph name="Etilde.sc" xMin="56" yMin="0" xMax="568" yMax="789">
      <contour>
        <pt x="95" y="660" on="1"/>
        <pt x="127" y="726" on="0"/>
        <pt x="212" y="788" on="0"/>
        <pt x="251" y="788" on="1"/>
        <pt x="273" y="788" on="0"/>
        <pt x="319" y="780" on="0"/>
        <pt x="364" y="769" on="0"/>
        <pt x="409" y="761" on="0"/>
        <pt x="432" y="761" on="1"/>
        <pt x="452" y="761" on="0"/>
        <pt x="491" y="771" on="0"/>
        <pt x="517" y="789" on="1"/>
        <pt x="538" y="764" on="1"/>
        <pt x="504" y="698" on="0"/>
        <pt x="420" y="636" on="0"/>
        <pt x="382" y="636" on="1"/>
        <pt x="359" y="636" on="0"/>
        <pt x="314" y="645" on="0"/>
        <pt x="269" y="655" on="0"/>
        <pt x="224" y="664" on="0"/>
        <pt x="201" y="664" on="1"/>
        <pt x="180" y="664" on="0"/>
        <pt x="142" y="654" on="0"/>
        <pt x="116" y="636" on="1"/>
      </contour>
      <contour>
        <pt x="56" y="577" on="1"/>
        <pt x="559" y="577" on="1"/>
        <pt x="559" y="425" on="1"/>
        <pt x="259" y="425" on="1"/>
        <pt x="259" y="357" on="1"/>
        <pt x="526" y="357" on="1"/>
        <pt x="526" y="220" on="1"/>
        <pt x="259" y="220" on="1"/>
        <pt x="259" y="153" on="1"/>
        <pt x="568" y="153" on="1"/>
        <pt x="568" y="0" on="1"/>
        <pt x="56" y="0" on="1"/>
      </contour>
    </TTGlyph>
    <TTGlyph name="Euro" xMin="28" yMin="-10" xMax="660" yMax="750">
      <contour>
        <pt x="28" y="511" on="1"/>
        <pt x="115" y="511" on="1"/>
        <pt x="147" y="629" on="0"/>
        <pt x="328" y="750" on="0"/>
        <pt x="483" y="750" on="1"/>
        <pt x="541" y="750" on="0"/>
        <pt x="631" y="736" on="0"/>
        <pt x="660" y="728" on="1"/>
        <pt x="617" y="562" on="1"/>
        <pt x="597" y="566" on="0"/>
        <pt x="542" y="571" on="0"/>
        <pt x="521" y="571" on="1"/>
        <pt x="441" y="571" on="0"/>
        <pt x="354" y="546" on="0"/>
        <pt x="335" y="511" on="1"/>
        <pt x="591" y="511" on="1"/>
        <pt x="571" y="397" on="1"/>
        <pt x="314" y="397" on="1"/>
        <pt x="314" y="342" on="1"/>
        <pt x="559" y="342" on="1"/>
        <pt x="539" y="228" on="1"/>
        <pt x="335" y="228" on="1"/>
        <pt x="355" y="193" on="0"/>
        <pt x="442" y="168" on="0"/>
        <pt x="523" y="168" on="1"/>
        <pt x="560" y="168" on="0"/>
        <pt x="627" y="176" on="0"/>
        <pt x="660" y="185" on="1"/>
        <pt x="660" y="11" on="1"/>
        <pt x="630" y="0" on="0"/>
        <pt x="540" y="-10" on="0"/>
        <pt x="491" y="-10" on="1"/>
        <pt x="330" y="-10" on="0"/>
        <pt x="146" y="110" on="0"/>
        <pt x="115" y="228" on="1"/>
        <pt x="28" y="228" on="1"/>
        <pt x="28" y="342" on="1"/>
        <pt x="98" y="342" on="1"/>
        <pt x="98" y="397" on="1"/>
        <pt x="28" y="397" on="1"/>
      </contour>
    </TTGlyph>
    <TTGlyph name="Euro.tab" xMin="8" yMin="-10" xMax="622" yMax="750">
      <contour>
        <pt x="8" y="511" on="1"/>
        <pt x="92" y="511" on="1"/>
        <pt x="122" y="629" on="0"/>
        <pt x="298" y="750" on="0"/>
        <pt x="448" y="750" on="1"/>
        <pt x="505" y="750" on="0"/>
        <pt x="593" y="736" on="0"/>
        <pt x="621" y="728" on="1"/>
        <pt x="579" y="562" on="1"/>
        <pt x="559" y="566" on="0"/>
        <pt x="506" y="571" on="0"/>
        <pt x="485" y="571" on="1"/>
        <pt x="411" y="571" on="0"/>
        <pt x="330" y="546" on="0"/>
        <pt x="311" y="511" on="1"/>
        <pt x="556" y="511" on="1"/>
        <pt x="537" y="397" on="1"/>
        <pt x="289" y="397" on="1"/>
        <pt x="289" y="342" on="1"/>
        <pt x="525" y="342" on="1"/>
        <pt x="506" y="228" on="1"/>
        <pt x="310" y="228" on="1"/>
        <pt x="329" y="193" on="0"/>
        <pt x="412" y="168" on="0"/>
        <pt x="488" y="168" on="1"/>
        <pt x="524" y="168" on="0"/>
        <pt x="590" y="176" on="0"/>
        <pt x="622" y="185" on="1"/>
        <pt x="622" y="11" on="1"/>
        <pt x="593" y="0" on="0"/>
        <pt x="504" y="-10" on="0"/>
        <pt x="456" y="-10" on="1"/>
        <pt x="300" y="-10" on="0"/>
        <pt x="122" y="110" on="0"/>
        <pt x="91" y="228" on="1"/>
        <pt x="8" y="228" on="1"/>
        <pt x="8" y="342" on="1"/>
        <pt x="76" y="342" on="1"/>
        <pt x="75" y="347" on="0"/>
        <pt x="75" y="364" on="0"/>
        <pt x="75" y="369" on="1"/>
        <pt x="75" y="374" on="0"/>
        <pt x="75" y="393" on="0"/>
        <pt x="76" y="397" on="1"/>
        <pt x="8" y="397" on="1"/>
      </contour>
    </TTGlyph>
    <TTGlyph name="F" xMin="58" yMin="0" xMax="596" yMax="740">
      <contour>
        <pt x="58" y="740" on="1"/>
        <pt x="596" y="740" on="1"/>
        <pt x="596" y="571" on="1"/>
        <pt x="273" y="571" on="1"/>
        <pt x="273" y="430" on="1"/>
        <pt x="561" y="430" on="1"/>
        <pt x="561" y="261" on="1"/>
        <pt x="273" y="261" on="1"/>
        <pt x="273" y="0" on="1"/>
        <pt x="58" y="0" on="1"/>
      </contour>
    </TTGlyph>
    <TTGlyph name="F.sc" xMin="56" yMin="0" xMax="555" yMax="577">
      <contour>
        <pt x="56" y="577" on="1"/>
        <pt x="555" y="577" on="1"/>
        <pt x="555" y="420" on="1"/>
        <pt x="259" y="420" on="1"/>
        <pt x="259" y="337" on="1"/>
        <pt x="523" y="337" on="1"/>
        <pt x="523" y="189" on="1"/>
        <pt x="259" y="189" on="1"/>
        <pt x="259" y="0" on="1"/>
        <pt x="56" y="0" on="1"/>
      </contour>
    </TTGlyph>
    <TTGlyph name="F_B.sc" xMin="57" yMin="-8" xMax="1201" yMax="585">
      <contour>
        <pt x="57" y="577" on="1"/>
        <pt x="556" y="577" on="1"/>
        <pt x="556" y="420" on="1"/>
        <pt x="260" y="420" on="1"/>
        <pt x="260" y="337" on="1"/>
        <pt x="524" y="337" on="1"/>
        <pt x="524" y="189" on="1"/>
        <pt x="260" y="189" on="1"/>
        <pt x="260" y="0" on="1"/>
        <pt x="57" y="0" on="1"/>
      </contour>
      <contour>
        <pt x="896" y="-8" on="1"/>
        <pt x="829" y="-8" on="0"/>
        <pt x="700" y="-2" on="0"/>
        <pt x="629" y="4" on="1"/>
        <pt x="629" y="573" on="1"/>
        <pt x="765" y="585" on="0"/>
        <pt x="878" y="585" on="1"/>
        <pt x="1036" y="585" on="0"/>
        <pt x="1181" y="504" on="0"/>
        <pt x="1181" y="416" on="1"/>
        <pt x="1181" y="328" on="0"/>
        <pt x="1072" y="300" on="1"/>
        <pt x="1072" y="297" on="1"/>
        <pt x="1135" y="286" on="0"/>
        <pt x="1201" y="217" on="0"/>
        <pt x="1201" y="163" on="1"/>
        <pt x="1201" y="75" on="0"/>
        <pt x="1052" y="-8" on="0"/>
      </contour>
      <contour>
        <pt x="904" y="131" on="1"/>
        <pt x="1004" y="131" on="0"/>
        <pt x="1004" y="182" on="1"/>
        <pt x="1004" y="211" on="0"/>
        <pt x="958" y="230" on="0"/>
        <pt x="902" y="230" on="1"/>
        <pt x="820" y="230" on="1"/>
        <pt x="820" y="132" on="1"/>
        <pt x="825" y="131" on="0"/>
        <pt x="835" y="131" on="0"/>
        <pt x="853" y="131" on="0"/>
        <pt x="881" y="131" on="0"/>
      </contour>
      <contour>
        <pt x="890" y="352" on="1"/>
        <pt x="942" y="352" on="0"/>
        <pt x="982" y="372" on="0"/>
        <pt x="982" y="401" on="1"/>
        <pt x="982" y="427" on="0"/>
        <pt x="942" y="447" on="0"/>
        <pt x="894" y="447" on="1"/>
        <pt x="874" y="447" on="0"/>
        <pt x="837" y="446" on="0"/>
        <pt x="820" y="444" on="1"/>
        <pt x="820" y="352" on="1"/>
      </contour>
    </TTGlyph>
    <TTGlyph name="F_F.sc" xMin="56" yMin="0" xMax="1128" yMax="577">
      <contour>
        <pt x="56" y="577" on="1"/>
        <pt x="555" y="577" on="1"/>
        <pt x="555" y="420" on="1"/>
        <pt x="259" y="420" on="1"/>
        <pt x="259" y="337" on="1"/>
        <pt x="523" y="337" on="1"/>
        <pt x="523" y="189" on="1"/>
        <pt x="259" y="189" on="1"/>
        <pt x="259" y="0" on="1"/>
        <pt x="56" y="0" on="1"/>
      </contour>
      <contour>
        <pt x="629" y="577" on="1"/>
        <pt x="1128" y="577" on="1"/>
        <pt x="1128" y="420" on="1"/>
        <pt x="832" y="420" on="1"/>
        <pt x="832" y="337" on="1"/>
        <pt x="1096" y="337" on="1"/>
        <pt x="1096" y="189" on="1"/>
        <pt x="832" y="189" on="1"/>
        <pt x="832" y="0" on="1"/>
        <pt x="629" y="0" on="1"/>
      </contour>
    </TTGlyph>
    <TTGlyph name="F_F_B.sc" xMin="57" yMin="-8" xMax="1774" yMax="585">
      <contour>
        <pt x="57" y="577" on="1"/>
        <pt x="556" y="577" on="1"/>
        <pt x="556" y="420" on="1"/>
        <pt x="260" y="420" on="1"/>
        <pt x="260" y="337" on="1"/>
        <pt x="524" y="337" on="1"/>
        <pt x="524" y="189" on="1"/>
        <pt x="260" y="189" on="1"/>
        <pt x="260" y="0" on="1"/>
        <pt x="57" y="0" on="1"/>
      </contour>
      <contour>
        <pt x="630" y="577" on="1"/>
        <pt x="1129" y="577" on="1"/>
        <pt x="1129" y="420" on="1"/>
        <pt x="833" y="420" on="1"/>
        <pt x="833" y="337" on="1"/>
        <pt x="1097" y="337" on="1"/>
        <pt x="1097" y="189" on="1"/>
        <pt x="833" y="189" on="1"/>
        <pt x="833" y="0" on="1"/>
        <pt x="630" y="0" on="1"/>
      </contour>
      <contour>
        <pt x="1469" y="-8" on="1"/>
        <pt x="1402" y="-8" on="0"/>
        <pt x="1273" y="-2" on="0"/>
        <pt x="1202" y="4" on="1"/>
        <pt x="1202" y="573" on="1"/>
        <pt x="1338" y="585" on="0"/>
        <pt x="1451" y="585" on="1"/>
        <pt x="1609" y="585" on="0"/>
        <pt x="1754" y="504" on="0"/>
        <pt x="1754" y="416" on="1"/>
        <pt x="1754" y="328" on="0"/>
        <pt x="1645" y="300" on="1"/>
        <pt x="1645" y="297" on="1"/>
        <pt x="1708" y="286" on="0"/>
        <pt x="1774" y="217" on="0"/>
        <pt x="1774" y="163" on="1"/>
        <pt x="1774" y="75" on="0"/>
        <pt x="1625" y="-8" on="0"/>
      </contour>
      <contour>
        <pt x="1477" y="131" on="1"/>
        <pt x="1577" y="131" on="0"/>
        <pt x="1577" y="182" on="1"/>
        <pt x="1577" y="211" on="0"/>
        <pt x="1531" y="230" on="0"/>
        <pt x="1475" y="230" on="1"/>
        <pt x="1393" y="230" on="1"/>
        <pt x="1393" y="132" on="1"/>
        <pt x="1398" y="131" on="0"/>
        <pt x="1408" y="131" on="0"/>
        <pt x="1426" y="131" on="0"/>
        <pt x="1454" y="131" on="0"/>
      </contour>
      <contour>
        <pt x="1463" y="352" on="1"/>
        <pt x="1515" y="352" on="0"/>
        <pt x="1555" y="372" on="0"/>
        <pt x="1555" y="401" on="1"/>
        <pt x="1555" y="427" on="0"/>
        <pt x="1515" y="447" on="0"/>
        <pt x="1467" y="447" on="1"/>
        <pt x="1447" y="447" on="0"/>
        <pt x="1410" y="446" on="0"/>
        <pt x="1393" y="444" on="1"/>
        <pt x="1393" y="352" on="1"/>
      </contour>
    </TTGlyph>
    <TTGlyph name="F_F_H.sc" xMin="56" yMin="0" xMax="1831" yMax="577">
      <contour>
        <pt x="56" y="577" on="1"/>
        <pt x="555" y="577" on="1"/>
        <pt x="555" y="420" on="1"/>
        <pt x="259" y="420" on="1"/>
        <pt x="259" y="337" on="1"/>
        <pt x="523" y="337" on="1"/>
        <pt x="523" y="189" on="1"/>
        <pt x="259" y="189" on="1"/>
        <pt x="259" y="0" on="1"/>
        <pt x="56" y="0" on="1"/>
      </contour>
      <contour>
        <pt x="629" y="577" on="1"/>
        <pt x="1128" y="577" on="1"/>
        <pt x="1128" y="420" on="1"/>
        <pt x="832" y="420" on="1"/>
        <pt x="832" y="337" on="1"/>
        <pt x="1096" y="337" on="1"/>
        <pt x="1096" y="189" on="1"/>
        <pt x="832" y="189" on="1"/>
        <pt x="832" y="0" on="1"/>
        <pt x="629" y="0" on="1"/>
      </contour>
      <contour>
        <pt x="1202" y="577" on="1"/>
        <pt x="1405" y="577" on="1"/>
        <pt x="1405" y="375" on="1"/>
        <pt x="1627" y="375" on="1"/>
        <pt x="1627" y="577" on="1"/>
        <pt x="1831" y="577" on="1"/>
        <pt x="1831" y="0" on="1"/>
        <pt x="1627" y="0" on="1"/>
        <pt x="1627" y="217" on="1"/>
        <pt x="1405" y="217" on="1"/>
        <pt x="1405" y="0" on="1"/>
        <pt x="1202" y="0" on="1"/>
      </contour>
    </TTGlyph>
    <TTGlyph name="F_F_I.sc" xMin="56" yMin="0" xMax="1405" yMax="577">
      <contour>
        <pt x="56" y="577" on="1"/>
        <pt x="555" y="577" on="1"/>
        <pt x="555" y="420" on="1"/>
        <pt x="259" y="420" on="1"/>
        <pt x="259" y="337" on="1"/>
        <pt x="523" y="337" on="1"/>
        <pt x="523" y="189" on="1"/>
        <pt x="259" y="189" on="1"/>
        <pt x="259" y="0" on="1"/>
        <pt x="56" y="0" on="1"/>
      </contour>
      <contour>
        <pt x="629" y="577" on="1"/>
        <pt x="1128" y="577" on="1"/>
        <pt x="1128" y="420" on="1"/>
        <pt x="832" y="420" on="1"/>
        <pt x="832" y="337" on="1"/>
        <pt x="1096" y="337" on="1"/>
        <pt x="1096" y="189" on="1"/>
        <pt x="832" y="189" on="1"/>
        <pt x="832" y="0" on="1"/>
        <pt x="629" y="0" on="1"/>
      </contour>
      <contour>
        <pt x="1202" y="577" on="1"/>
        <pt x="1405" y="577" on="1"/>
        <pt x="1405" y="0" on="1"/>
        <pt x="1202" y="0" on="1"/>
      </contour>
    </TTGlyph>
    <TTGlyph name="F_F_J.sc" xMin="57" yMin="-177" xMax="1415" yMax="577">
      <contour>
        <pt x="57" y="577" on="1"/>
        <pt x="556" y="577" on="1"/>
        <pt x="556" y="420" on="1"/>
        <pt x="260" y="420" on="1"/>
        <pt x="260" y="337" on="1"/>
        <pt x="524" y="337" on="1"/>
        <pt x="524" y="189" on="1"/>
        <pt x="260" y="189" on="1"/>
        <pt x="260" y="0" on="1"/>
        <pt x="57" y="0" on="1"/>
      </contour>
      <contour>
        <pt x="630" y="577" on="1"/>
        <pt x="1129" y="577" on="1"/>
        <pt x="1129" y="420" on="1"/>
        <pt x="833" y="420" on="1"/>
        <pt x="833" y="337" on="1"/>
        <pt x="1097" y="337" on="1"/>
        <pt x="1097" y="189" on="1"/>
        <pt x="833" y="189" on="1"/>
        <pt x="833" y="0" on="1"/>
        <pt x="630" y="0" on="1"/>
      </contour>
      <contour>
        <pt x="1145" y="-123" on="1"/>
        <pt x="1164" y="-84" on="0"/>
        <pt x="1190" y="-16" on="0"/>
        <pt x="1205" y="50" on="0"/>
        <pt x="1212" y="119" on="0"/>
        <pt x="1212" y="160" on="1"/>
        <pt x="1212" y="577" on="1"/>
        <pt x="1415" y="577" on="1"/>
        <pt x="1415" y="143" on="1"/>
        <pt x="1415" y="101" on="0"/>
        <pt x="1400" y="25" on="0"/>
        <pt x="1367" y="-51" on="0"/>
        <pt x="1313" y="-131" on="0"/>
        <pt x="1273" y="-177" on="1"/>
      </contour>
    </TTGlyph>
    <TTGlyph name="F_F_K.sc" xMin="56" yMin="0" xMax="1831" yMax="577">
      <contour>
        <pt x="56" y="577" on="1"/>
        <pt x="555" y="577" on="1"/>
        <pt x="555" y="420" on="1"/>
        <pt x="259" y="420" on="1"/>
        <pt x="259" y="337" on="1"/>
        <pt x="523" y="337" on="1"/>
        <pt x="523" y="189" on="1"/>
        <pt x="259" y="189" on="1"/>
        <pt x="259" y="0" on="1"/>
        <pt x="56" y="0" on="1"/>
      </contour>
      <contour>
        <pt x="629" y="577" on="1"/>
        <pt x="1128" y="577" on="1"/>
        <pt x="1128" y="420" on="1"/>
        <pt x="832" y="420" on="1"/>
        <pt x="832" y="337" on="1"/>
        <pt x="1096" y="337" on="1"/>
        <pt x="1096" y="189" on="1"/>
        <pt x="832" y="189" on="1"/>
        <pt x="832" y="0" on="1"/>
        <pt x="629" y="0" on="1"/>
      </contour>
      <contour>
        <pt x="1202" y="577" on="1"/>
        <pt x="1405" y="577" on="1"/>
        <pt x="1405" y="370" on="1"/>
        <pt x="1474" y="370" on="1"/>
        <pt x="1590" y="577" on="1"/>
        <pt x="1814" y="577" on="1"/>
        <pt x="1660" y="326" on="1"/>
        <pt x="1600" y="304" on="1"/>
        <pt x="1600" y="297" on="1"/>
        <pt x="1662" y="274" on="1"/>
        <pt x="1831" y="0" on="1"/>
        <pt x="1605" y="0" on="1"/>
        <pt x="1481" y="212" on="1"/>
        <pt x="1405" y="212" on="1"/>
        <pt x="1405" y="0" on="1"/>
        <pt x="1202" y="0" on="1"/>
      </contour>
    </TTGlyph>
    <TTGlyph name="F_F_L.sc" xMin="56" yMin="0" xMax="1659" yMax="577">
      <contour>
        <pt x="1202" y="577" on="1"/>
        <pt x="1405" y="577" on="1"/>
        <pt x="1405" y="157" on="1"/>
        <pt x="1659" y="157" on="1"/>
        <pt x="1659" y="0" on="1"/>
        <pt x="1202" y="0" on="1"/>
      </contour>
      <contour>
        <pt x="56" y="577" on="1"/>
        <pt x="555" y="577" on="1"/>
        <pt x="555" y="420" on="1"/>
        <pt x="259" y="420" on="1"/>
        <pt x="259" y="337" on="1"/>
        <pt x="523" y="337" on="1"/>
        <pt x="523" y="189" on="1"/>
        <pt x="259" y="189" on="1"/>
        <pt x="259" y="0" on="1"/>
        <pt x="56" y="0" on="1"/>
      </contour>
      <contour>
        <pt x="629" y="577" on="1"/>
        <pt x="1128" y="577" on="1"/>
        <pt x="1128" y="420" on="1"/>
        <pt x="832" y="420" on="1"/>
        <pt x="832" y="337" on="1"/>
        <pt x="1096" y="337" on="1"/>
        <pt x="1096" y="189" on="1"/>
        <pt x="832" y="189" on="1"/>
        <pt x="832" y="0" on="1"/>
        <pt x="629" y="0" on="1"/>
      </contour>
    </TTGlyph>
    <TTGlyph name="F_F_T.sc" xMin="56" yMin="0" xMax="1684" yMax="577">
      <contour>
        <pt x="1310" y="419" on="1"/>
        <pt x="1140" y="419" on="1"/>
        <pt x="1140" y="577" on="1"/>
        <pt x="1684" y="577" on="1"/>
        <pt x="1684" y="419" on="1"/>
        <pt x="1513" y="419" on="1"/>
        <pt x="1513" y="0" on="1"/>
        <pt x="1310" y="0" on="1"/>
      </contour>
      <contour>
        <pt x="56" y="577" on="1"/>
        <pt x="555" y="577" on="1"/>
        <pt x="555" y="420" on="1"/>
        <pt x="259" y="420" on="1"/>
        <pt x="259" y="337" on="1"/>
        <pt x="523" y="337" on="1"/>
        <pt x="523" y="189" on="1"/>
        <pt x="259" y="189" on="1"/>
        <pt x="259" y="0" on="1"/>
        <pt x="56" y="0" on="1"/>
      </contour>
      <contour>
        <pt x="629" y="577" on="1"/>
        <pt x="1128" y="577" on="1"/>
        <pt x="1128" y="420" on="1"/>
        <pt x="832" y="420" on="1"/>
        <pt x="832" y="337" on="1"/>
        <pt x="1096" y="337" on="1"/>
        <pt x="1096" y="189" on="1"/>
        <pt x="832" y="189" on="1"/>
        <pt x="832" y="0" on="1"/>
        <pt x="629" y="0" on="1"/>
      </contour>
    </TTGlyph>
    <TTGlyph name="F_H.sc" xMin="56" yMin="0" xMax="1258" yMax="577">
      <contour>
        <pt x="56" y="577" on="1"/>
        <pt x="555" y="577" on="1"/>
        <pt x="555" y="420" on="1"/>
        <pt x="259" y="420" on="1"/>
        <pt x="259" y="337" on="1"/>
        <pt x="523" y="337" on="1"/>
        <pt x="523" y="189" on="1"/>
        <pt x="259" y="189" on="1"/>
        <pt x="259" y="0" on="1"/>
        <pt x="56" y="0" on="1"/>
      </contour>
      <contour>
        <pt x="629" y="577" on="1"/>
        <pt x="832" y="577" on="1"/>
        <pt x="832" y="375" on="1"/>
        <pt x="1054" y="375" on="1"/>
        <pt x="1054" y="577" on="1"/>
        <pt x="1258" y="577" on="1"/>
        <pt x="1258" y="0" on="1"/>
        <pt x="1054" y="0" on="1"/>
        <pt x="1054" y="217" on="1"/>
        <pt x="832" y="217" on="1"/>
        <pt x="832" y="0" on="1"/>
        <pt x="629" y="0" on="1"/>
      </contour>
    </TTGlyph>
    <TTGlyph name="F_I.sc" xMin="56" yMin="0" xMax="832" yMax="577">
      <contour>
        <pt x="56" y="577" on="1"/>
        <pt x="555" y="577" on="1"/>
        <pt x="555" y="420" on="1"/>
        <pt x="259" y="420" on="1"/>
        <pt x="259" y="337" on="1"/>
        <pt x="523" y="337" on="1"/>
        <pt x="523" y="189" on="1"/>
        <pt x="259" y="189" on="1"/>
        <pt x="259" y="0" on="1"/>
        <pt x="56" y="0" on="1"/>
      </contour>
      <contour>
        <pt x="629" y="577" on="1"/>
        <pt x="832" y="577" on="1"/>
        <pt x="832" y="0" on="1"/>
        <pt x="629" y="0" on="1"/>
      </contour>
    </TTGlyph>
    <TTGlyph name="F_J.sc" xMin="57" yMin="-177" xMax="842" yMax="577">
      <contour>
        <pt x="57" y="577" on="1"/>
        <pt x="556" y="577" on="1"/>
        <pt x="556" y="420" on="1"/>
        <pt x="260" y="420" on="1"/>
        <pt x="260" y="337" on="1"/>
        <pt x="524" y="337" on="1"/>
        <pt x="524" y="189" on="1"/>
        <pt x="260" y="189" on="1"/>
        <pt x="260" y="0" on="1"/>
        <pt x="57" y="0" on="1"/>
      </contour>
      <contour>
        <pt x="572" y="-123" on="1"/>
        <pt x="591" y="-84" on="0"/>
        <pt x="617" y="-16" on="0"/>
        <pt x="632" y="50" on="0"/>
        <pt x="639" y="119" on="0"/>
        <pt x="639" y="160" on="1"/>
        <pt x="639" y="577" on="1"/>
        <pt x="842" y="577" on="1"/>
        <pt x="842" y="143" on="1"/>
        <pt x="842" y="101" on="0"/>
        <pt x="827" y="25" on="0"/>
        <pt x="794" y="-51" on="0"/>
        <pt x="740" y="-131" on="0"/>
        <pt x="700" y="-177" on="1"/>
      </contour>
    </TTGlyph>
    <TTGlyph name="F_K.sc" xMin="56" yMin="0" xMax="1258" yMax="577">
      <contour>
        <pt x="56" y="577" on="1"/>
        <pt x="555" y="577" on="1"/>
        <pt x="555" y="420" on="1"/>
        <pt x="259" y="420" on="1"/>
        <pt x="259" y="337" on="1"/>
        <pt x="523" y="337" on="1"/>
        <pt x="523" y="189" on="1"/>
        <pt x="259" y="189" on="1"/>
        <pt x="259" y="0" on="1"/>
        <pt x="56" y="0" on="1"/>
      </contour>
      <contour>
        <pt x="629" y="577" on="1"/>
        <pt x="832" y="577" on="1"/>
        <pt x="832" y="370" on="1"/>
        <pt x="901" y="370" on="1"/>
        <pt x="1017" y="577" on="1"/>
        <pt x="1241" y="577" on="1"/>
        <pt x="1087" y="326" on="1"/>
        <pt x="1027" y="304" on="1"/>
        <pt x="1027" y="297" on="1"/>
        <pt x="1089" y="274" on="1"/>
        <pt x="1258" y="0" on="1"/>
        <pt x="1032" y="0" on="1"/>
        <pt x="908" y="212" on="1"/>
        <pt x="832" y="212" on="1"/>
        <pt x="832" y="0" on="1"/>
        <pt x="629" y="0" on="1"/>
      </contour>
    </TTGlyph>
    <TTGlyph name="F_L.sc" xMin="56" yMin="0" xMax="1086" yMax="577">
      <contour>
        <pt x="629" y="577" on="1"/>
        <pt x="832" y="577" on="1"/>
        <pt x="832" y="157" on="1"/>
        <pt x="1086" y="157" on="1"/>
        <pt x="1086" y="0" on="1"/>
        <pt x="629" y="0" on="1"/>
      </contour>
      <contour>
        <pt x="56" y="577" on="1"/>
        <pt x="555" y="577" on="1"/>
        <pt x="555" y="420" on="1"/>
        <pt x="259" y="420" on="1"/>
        <pt x="259" y="337" on="1"/>
        <pt x="523" y="337" on="1"/>
        <pt x="523" y="189" on="1"/>
        <pt x="259" y="189" on="1"/>
        <pt x="259" y="0" on="1"/>
        <pt x="56" y="0" on="1"/>
      </contour>
    </TTGlyph>
    <TTGlyph name="F_T.sc" xMin="56" yMin="0" xMax="1111" yMax="577">
      <contour>
        <pt x="737" y="419" on="1"/>
        <pt x="567" y="419" on="1"/>
        <pt x="567" y="577" on="1"/>
        <pt x="1111" y="577" on="1"/>
        <pt x="1111" y="419" on="1"/>
        <pt x="940" y="419" on="1"/>
        <pt x="940" y="0" on="1"/>
        <pt x="737" y="0" on="1"/>
      </contour>
      <contour>
        <pt x="56" y="577" on="1"/>
        <pt x="555" y="577" on="1"/>
        <pt x="555" y="420" on="1"/>
        <pt x="259" y="420" on="1"/>
        <pt x="259" y="337" on="1"/>
        <pt x="523" y="337" on="1"/>
        <pt x="523" y="189" on="1"/>
        <pt x="259" y="189" on="1"/>
        <pt x="259" y="0" on="1"/>
        <pt x="56" y="0" on="1"/>
      </contour>
    </TTGlyph>
    <TTGlyph name="G" xMin="29" yMin="-12" xMax="643" yMax="752">
      <contour>
        <pt x="393" y="-12" on="1"/>
        <pt x="208" y="-12" on="0"/>
        <pt x="29" y="176" on="0"/>
        <pt x="29" y="370" on="1"/>
        <pt x="29" y="752" on="0"/>
        <pt x="423" y="752" on="1"/>
        <pt x="474" y="752" on="0"/>
        <pt x="586" y="740" on="0"/>
        <pt x="631" y="729" on="1"/>
        <pt x="631" y="559" on="1"/>
        <pt x="569" y="569" on="0"/>
        <pt x="474" y="579" on="0"/>
        <pt x="441" y="579" on="1"/>
        <pt x="383" y="579" on="0"/>
        <pt x="309" y="561" on="0"/>
        <pt x="266" y="513" on="0"/>
        <pt x="250" y="432" on="0"/>
        <pt x="250" y="369" on="1"/>
        <pt x="250" y="306" on="0"/>
        <pt x="263" y="226" on="0"/>
        <pt x="298" y="180" on="0"/>
        <pt x="360" y="163" on="0"/>
        <pt x="408" y="163" on="1"/>
        <pt x="417" y="163" on="0"/>
        <pt x="437" y="163" on="0"/>
        <pt x="448" y="164" on="1"/>
        <pt x="448" y="376" on="1"/>
        <pt x="643" y="376" on="1"/>
        <pt x="643" y="20" on="1"/>
        <pt x="573" y="6" on="0"/>
        <pt x="444" y="-12" on="0"/>
      </contour>
    </TTGlyph>
    <TTGlyph name="G.sc" xMin="29" yMin="-11" xMax="596" yMax="588">
      <contour>
        <pt x="366" y="-11" on="1"/>
        <pt x="193" y="-11" on="0"/>
        <pt x="29" y="137" on="0"/>
        <pt x="29" y="289" on="1"/>
        <pt x="29" y="588" on="0"/>
        <pt x="391" y="588" on="1"/>
        <pt x="439" y="588" on="0"/>
        <pt x="543" y="578" on="0"/>
        <pt x="585" y="569" on="1"/>
        <pt x="585" y="413" on="1"/>
        <pt x="469" y="425" on="0"/>
        <pt x="409" y="425" on="1"/>
        <pt x="354" y="425" on="0"/>
        <pt x="287" y="415" on="0"/>
        <pt x="250" y="385" on="0"/>
        <pt x="238" y="331" on="0"/>
        <pt x="238" y="288" on="1"/>
        <pt x="238" y="244" on="0"/>
        <pt x="248" y="192" on="0"/>
        <pt x="278" y="163" on="0"/>
        <pt x="334" y="154" on="0"/>
        <pt x="379" y="154" on="1"/>
        <pt x="411" y="154" on="1"/>
        <pt x="411" y="293" on="1"/>
        <pt x="596" y="293" on="1"/>
        <pt x="596" y="18" on="1"/>
        <pt x="532" y="5" on="0"/>
        <pt x="411" y="-11" on="0"/>
      </contour>
    </TTGlyph>
    <TTGlyph name="Gacute" xMin="29" yMin="-12" xMax="643" yMax="998">
      <contour>
        <pt x="284" y="809" on="1"/>
        <pt x="347" y="998" on="1"/>
        <pt x="562" y="998" on="1"/>
        <pt x="434" y="799" on="1"/>
      </contour>
      <contour>
        <pt x="393" y="-12" on="1"/>
        <pt x="208" y="-12" on="0"/>
        <pt x="29" y="176" on="0"/>
        <pt x="29" y="370" on="1"/>
        <pt x="29" y="752" on="0"/>
        <pt x="423" y="752" on="1"/>
        <pt x="474" y="752" on="0"/>
        <pt x="586" y="740" on="0"/>
        <pt x="631" y="729" on="1"/>
        <pt x="631" y="559" on="1"/>
        <pt x="569" y="569" on="0"/>
        <pt x="474" y="579" on="0"/>
        <pt x="441" y="579" on="1"/>
        <pt x="383" y="579" on="0"/>
        <pt x="309" y="561" on="0"/>
        <pt x="266" y="513" on="0"/>
        <pt x="250" y="432" on="0"/>
        <pt x="250" y="369" on="1"/>
        <pt x="250" y="306" on="0"/>
        <pt x="263" y="226" on="0"/>
        <pt x="298" y="180" on="0"/>
        <pt x="360" y="163" on="0"/>
        <pt x="408" y="163" on="1"/>
        <pt x="417" y="163" on="0"/>
        <pt x="437" y="163" on="0"/>
        <pt x="448" y="164" on="1"/>
        <pt x="448" y="376" on="1"/>
        <pt x="643" y="376" on="1"/>
        <pt x="643" y="20" on="1"/>
        <pt x="573" y="6" on="0"/>
        <pt x="444" y="-12" on="0"/>
      </contour>
    </TTGlyph>
    <TTGlyph name="Gacute.sc" xMin="29" yMin="-11" xMax="596" yMax="794">
      <contour>
        <pt x="366" y="-11" on="1"/>
        <pt x="194" y="-11" on="0"/>
        <pt x="29" y="136" on="0"/>
        <pt x="29" y="289" on="1"/>
        <pt x="29" y="588" on="0"/>
        <pt x="391" y="588" on="1"/>
        <pt x="439" y="588" on="0"/>
        <pt x="544" y="578" on="0"/>
        <pt x="585" y="569" on="1"/>
        <pt x="585" y="410" on="1"/>
        <pt x="471" y="425" on="0"/>
        <pt x="409" y="425" on="1"/>
        <pt x="356" y="425" on="0"/>
        <pt x="289" y="415" on="0"/>
        <pt x="252" y="386" on="0"/>
        <pt x="238" y="332" on="0"/>
        <pt x="238" y="288" on="1"/>
        <pt x="238" y="244" on="0"/>
        <pt x="249" y="191" on="0"/>
        <pt x="280" y="163" on="0"/>
        <pt x="335" y="154" on="0"/>
        <pt x="379" y="154" on="1"/>
        <pt x="411" y="154" on="1"/>
        <pt x="411" y="293" on="1"/>
        <pt x="596" y="293" on="1"/>
        <pt x="596" y="18" on="1"/>
        <pt x="533" y="5" on="0"/>
        <pt x="413" y="-11" on="0"/>
      </contour>
      <contour>
        <pt x="261" y="634" on="1"/>
        <pt x="317" y="794" on="1"/>
        <pt x="519" y="794" on="1"/>
        <pt x="402" y="625" on="1"/>
      </contour>
    </TTGlyph>
    <TTGlyph name="Gbreve" xMin="29" yMin="-12" xMax="643" yMax="991">
      <contour>
        <pt x="375" y="801" on="1"/>
        <pt x="314" y="801" on="0"/>
        <pt x="229" y="829" on="0"/>
        <pt x="176" y="880" on="0"/>
        <pt x="152" y="949" on="0"/>
        <pt x="152" y="991" on="1"/>
        <pt x="290" y="991" on="1"/>
        <pt x="290" y="941" on="0"/>
        <pt x="324" y="896" on="0"/>
        <pt x="375" y="896" on="1"/>
        <pt x="425" y="896" on="0"/>
        <pt x="459" y="941" on="0"/>
        <pt x="459" y="991" on="1"/>
        <pt x="597" y="991" on="1"/>
        <pt x="597" y="949" on="0"/>
        <pt x="573" y="879" on="0"/>
        <pt x="519" y="829" on="0"/>
        <pt x="435" y="801" on="0"/>
      </contour>
      <contour>
        <pt x="393" y="-12" on="1"/>
        <pt x="208" y="-12" on="0"/>
        <pt x="29" y="176" on="0"/>
        <pt x="29" y="370" on="1"/>
        <pt x="29" y="752" on="0"/>
        <pt x="423" y="752" on="1"/>
        <pt x="474" y="752" on="0"/>
        <pt x="586" y="740" on="0"/>
        <pt x="631" y="729" on="1"/>
        <pt x="631" y="559" on="1"/>
        <pt x="569" y="569" on="0"/>
        <pt x="474" y="579" on="0"/>
        <pt x="441" y="579" on="1"/>
        <pt x="383" y="579" on="0"/>
        <pt x="309" y="561" on="0"/>
        <pt x="266" y="513" on="0"/>
        <pt x="250" y="432" on="0"/>
        <pt x="250" y="369" on="1"/>
        <pt x="250" y="306" on="0"/>
        <pt x="263" y="226" on="0"/>
        <pt x="298" y="180" on="0"/>
        <pt x="360" y="163" on="0"/>
        <pt x="408" y="163" on="1"/>
        <pt x="417" y="163" on="0"/>
        <pt x="437" y="163" on="0"/>
        <pt x="448" y="164" on="1"/>
        <pt x="448" y="376" on="1"/>
        <pt x="643" y="376" on="1"/>
        <pt x="643" y="20" on="1"/>
        <pt x="573" y="6" on="0"/>
        <pt x="444" y="-12" on="0"/>
      </contour>
    </TTGlyph>
    <TTGlyph name="Gbreve.sc" xMin="29" yMin="-11" xMax="596" yMax="783">
      <contour>
        <pt x="366" y="-11" on="1"/>
        <pt x="194" y="-11" on="0"/>
        <pt x="29" y="136" on="0"/>
        <pt x="29" y="289" on="1"/>
        <pt x="29" y="588" on="0"/>
        <pt x="391" y="588" on="1"/>
        <pt x="439" y="588" on="0"/>
        <pt x="544" y="578" on="0"/>
        <pt x="585" y="569" on="1"/>
        <pt x="585" y="410" on="1"/>
        <pt x="471" y="425" on="0"/>
        <pt x="409" y="425" on="1"/>
        <pt x="356" y="425" on="0"/>
        <pt x="289" y="415" on="0"/>
        <pt x="252" y="386" on="0"/>
        <pt x="238" y="332" on="0"/>
        <pt x="238" y="288" on="1"/>
        <pt x="238" y="244" on="0"/>
        <pt x="249" y="191" on="0"/>
        <pt x="280" y="163" on="0"/>
        <pt x="335" y="154" on="0"/>
        <pt x="379" y="154" on="1"/>
        <pt x="411" y="154" on="1"/>
        <pt x="411" y="293" on="1"/>
        <pt x="596" y="293" on="1"/>
        <pt x="596" y="18" on="1"/>
        <pt x="533" y="5" on="0"/>
        <pt x="413" y="-11" on="0"/>
      </contour>
      <contour>
        <pt x="347" y="623" on="1"/>
        <pt x="290" y="623" on="0"/>
        <pt x="211" y="647" on="0"/>
        <pt x="162" y="690" on="0"/>
        <pt x="140" y="748" on="0"/>
        <pt x="140" y="783" on="1"/>
        <pt x="270" y="783" on="1"/>
        <pt x="270" y="744" on="0"/>
        <pt x="300" y="710" on="0"/>
        <pt x="347" y="710" on="1"/>
        <pt x="394" y="710" on="0"/>
        <pt x="424" y="744" on="0"/>
        <pt x="424" y="783" on="1"/>
        <pt x="555" y="783" on="1"/>
        <pt x="555" y="748" on="0"/>
        <pt x="533" y="689" on="0"/>
        <pt x="483" y="647" on="0"/>
        <pt x="404" y="623" on="0"/>
      </contour>
    </TTGlyph>
    <TTGlyph name="Gcircumflex" xMin="29" yMin="-12" xMax="643" yMax="1004">
      <contour>
        <pt x="393" y="-12" on="1"/>
        <pt x="208" y="-12" on="0"/>
        <pt x="29" y="176" on="0"/>
        <pt x="29" y="370" on="1"/>
        <pt x="29" y="752" on="0"/>
        <pt x="423" y="752" on="1"/>
        <pt x="474" y="752" on="0"/>
        <pt x="586" y="740" on="0"/>
        <pt x="631" y="729" on="1"/>
        <pt x="631" y="559" on="1"/>
        <pt x="569" y="569" on="0"/>
        <pt x="474" y="579" on="0"/>
        <pt x="441" y="579" on="1"/>
        <pt x="383" y="579" on="0"/>
        <pt x="309" y="561" on="0"/>
        <pt x="266" y="513" on="0"/>
        <pt x="250" y="432" on="0"/>
        <pt x="250" y="369" on="1"/>
        <pt x="250" y="306" on="0"/>
        <pt x="263" y="226" on="0"/>
        <pt x="298" y="180" on="0"/>
        <pt x="360" y="163" on="0"/>
        <pt x="408" y="163" on="1"/>
        <pt x="417" y="163" on="0"/>
        <pt x="437" y="163" on="0"/>
        <pt x="448" y="164" on="1"/>
        <pt x="448" y="376" on="1"/>
        <pt x="643" y="376" on="1"/>
        <pt x="643" y="20" on="1"/>
        <pt x="573" y="6" on="0"/>
        <pt x="444" y="-12" on="0"/>
      </contour>
      <contour>
        <pt x="164" y="928" on="1"/>
        <pt x="366" y="1004" on="1"/>
        <pt x="570" y="928" on="1"/>
        <pt x="570" y="792" on="1"/>
        <pt x="367" y="868" on="1"/>
        <pt x="164" y="792" on="1"/>
      </contour>
    </TTGlyph>
    <TTGlyph name="Gcircumflex.sc" xMin="29" yMin="-11" xMax="596" yMax="800">
      <contour>
        <pt x="366" y="-11" on="1"/>
        <pt x="194" y="-11" on="0"/>
        <pt x="29" y="136" on="0"/>
        <pt x="29" y="289" on="1"/>
        <pt x="29" y="588" on="0"/>
        <pt x="391" y="588" on="1"/>
        <pt x="439" y="588" on="0"/>
        <pt x="544" y="578" on="0"/>
        <pt x="585" y="569" on="1"/>
        <pt x="585" y="410" on="1"/>
        <pt x="471" y="425" on="0"/>
        <pt x="409" y="425" on="1"/>
        <pt x="356" y="425" on="0"/>
        <pt x="289" y="415" on="0"/>
        <pt x="252" y="386" on="0"/>
        <pt x="238" y="332" on="0"/>
        <pt x="238" y="288" on="1"/>
        <pt x="238" y="244" on="0"/>
        <pt x="249" y="191" on="0"/>
        <pt x="280" y="163" on="0"/>
        <pt x="335" y="154" on="0"/>
        <pt x="379" y="154" on="1"/>
        <pt x="411" y="154" on="1"/>
        <pt x="411" y="293" on="1"/>
        <pt x="596" y="293" on="1"/>
        <pt x="596" y="18" on="1"/>
        <pt x="533" y="5" on="0"/>
        <pt x="413" y="-11" on="0"/>
      </contour>
      <contour>
        <pt x="149" y="738" on="1"/>
        <pt x="337" y="800" on="1"/>
        <pt x="527" y="738" on="1"/>
        <pt x="527" y="613" on="1"/>
        <pt x="338" y="674" on="1"/>
        <pt x="149" y="613" on="1"/>
      </contour>
    </TTGlyph>
    <TTGlyph name="Gcommaaccent" xMin="29" yMin="-220" xMax="643" yMax="752">
      <contour>
        <pt x="268" y="-70" on="1"/>
        <pt x="483" y="-70" on="1"/>
        <pt x="384" y="-220" on="1"/>
        <pt x="228" y="-220" on="1"/>
      </contour>
      <contour>
        <pt x="393" y="-12" on="1"/>
        <pt x="208" y="-12" on="0"/>
        <pt x="29" y="176" on="0"/>
        <pt x="29" y="370" on="1"/>
        <pt x="29" y="752" on="0"/>
        <pt x="423" y="752" on="1"/>
        <pt x="474" y="752" on="0"/>
        <pt x="586" y="740" on="0"/>
        <pt x="631" y="729" on="1"/>
        <pt x="631" y="559" on="1"/>
        <pt x="569" y="569" on="0"/>
        <pt x="474" y="579" on="0"/>
        <pt x="441" y="579" on="1"/>
        <pt x="383" y="579" on="0"/>
        <pt x="309" y="561" on="0"/>
        <pt x="266" y="513" on="0"/>
        <pt x="250" y="432" on="0"/>
        <pt x="250" y="369" on="1"/>
        <pt x="250" y="306" on="0"/>
        <pt x="263" y="226" on="0"/>
        <pt x="298" y="180" on="0"/>
        <pt x="360" y="163" on="0"/>
        <pt x="408" y="163" on="1"/>
        <pt x="417" y="163" on="0"/>
        <pt x="437" y="163" on="0"/>
        <pt x="448" y="164" on="1"/>
        <pt x="448" y="376" on="1"/>
        <pt x="643" y="376" on="1"/>
        <pt x="643" y="20" on="1"/>
        <pt x="573" y="6" on="0"/>
        <pt x="444" y="-12" on="0"/>
      </contour>
    </TTGlyph>
    <TTGlyph name="Gcommaaccent.sc" xMin="29" yMin="-172" xMax="596" yMax="588">
      <contour>
        <pt x="366" y="-11" on="1"/>
        <pt x="194" y="-11" on="0"/>
        <pt x="29" y="136" on="0"/>
        <pt x="29" y="289" on="1"/>
        <pt x="29" y="588" on="0"/>
        <pt x="391" y="588" on="1"/>
        <pt x="439" y="588" on="0"/>
        <pt x="544" y="578" on="0"/>
        <pt x="585" y="569" on="1"/>
        <pt x="585" y="410" on="1"/>
        <pt x="471" y="425" on="0"/>
        <pt x="409" y="425" on="1"/>
        <pt x="356" y="425" on="0"/>
        <pt x="289" y="415" on="0"/>
        <pt x="252" y="386" on="0"/>
        <pt x="238" y="332" on="0"/>
        <pt x="238" y="288" on="1"/>
        <pt x="238" y="244" on="0"/>
        <pt x="249" y="191" on="0"/>
        <pt x="280" y="163" on="0"/>
        <pt x="335" y="154" on="0"/>
        <pt x="379" y="154" on="1"/>
        <pt x="411" y="154" on="1"/>
        <pt x="411" y="293" on="1"/>
        <pt x="596" y="293" on="1"/>
        <pt x="596" y="18" on="1"/>
        <pt x="533" y="5" on="0"/>
        <pt x="413" y="-11" on="0"/>
      </contour>
      <contour>
        <pt x="244" y="-55" on="1"/>
        <pt x="448" y="-55" on="1"/>
        <pt x="356" y="-172" on="1"/>
        <pt x="209" y="-172" on="1"/>
      </contour>
    </TTGlyph>
    <TTGlyph name="Gdotaccent" xMin="29" yMin="-12" xMax="643" yMax="1014">
      <contour>
        <pt x="378" y="796" on="1"/>
        <pt x="317" y="796" on="0"/>
        <pt x="266" y="848" on="0"/>
        <pt x="266" y="905" on="1"/>
        <pt x="266" y="962" on="0"/>
        <pt x="317" y="1014" on="0"/>
        <pt x="378" y="1014" on="1"/>
        <pt x="438" y="1014" on="0"/>
        <pt x="490" y="962" on="0"/>
        <pt x="490" y="905" on="1"/>
        <pt x="490" y="848" on="0"/>
        <pt x="438" y="796" on="0"/>
      </contour>
      <contour>
        <pt x="393" y="-12" on="1"/>
        <pt x="208" y="-12" on="0"/>
        <pt x="29" y="176" on="0"/>
        <pt x="29" y="370" on="1"/>
        <pt x="29" y="752" on="0"/>
        <pt x="423" y="752" on="1"/>
        <pt x="474" y="752" on="0"/>
        <pt x="586" y="740" on="0"/>
        <pt x="631" y="729" on="1"/>
        <pt x="631" y="559" on="1"/>
        <pt x="569" y="569" on="0"/>
        <pt x="474" y="579" on="0"/>
        <pt x="441" y="579" on="1"/>
        <pt x="383" y="579" on="0"/>
        <pt x="309" y="561" on="0"/>
        <pt x="266" y="513" on="0"/>
        <pt x="250" y="432" on="0"/>
        <pt x="250" y="369" on="1"/>
        <pt x="250" y="306" on="0"/>
        <pt x="263" y="226" on="0"/>
        <pt x="298" y="180" on="0"/>
        <pt x="360" y="163" on="0"/>
        <pt x="408" y="163" on="1"/>
        <pt x="417" y="163" on="0"/>
        <pt x="437" y="163" on="0"/>
        <pt x="448" y="164" on="1"/>
        <pt x="448" y="376" on="1"/>
        <pt x="643" y="376" on="1"/>
        <pt x="643" y="20" on="1"/>
        <pt x="573" y="6" on="0"/>
        <pt x="444" y="-12" on="0"/>
      </contour>
    </TTGlyph>
    <TTGlyph name="Gdotaccent.sc" xMin="29" yMin="-11" xMax="596" yMax="818">
      <contour>
        <pt x="366" y="-11" on="1"/>
        <pt x="194" y="-11" on="0"/>
        <pt x="29" y="136" on="0"/>
        <pt x="29" y="289" on="1"/>
        <pt x="29" y="588" on="0"/>
        <pt x="391" y="588" on="1"/>
        <pt x="439" y="588" on="0"/>
        <pt x="544" y="578" on="0"/>
        <pt x="585" y="569" on="1"/>
        <pt x="585" y="410" on="1"/>
        <pt x="471" y="425" on="0"/>
        <pt x="409" y="425" on="1"/>
        <pt x="356" y="425" on="0"/>
        <pt x="289" y="415" on="0"/>
        <pt x="252" y="386" on="0"/>
        <pt x="238" y="332" on="0"/>
        <pt x="238" y="288" on="1"/>
        <pt x="238" y="244" on="0"/>
        <pt x="249" y="191" on="0"/>
        <pt x="280" y="163" on="0"/>
        <pt x="335" y="154" on="0"/>
        <pt x="379" y="154" on="1"/>
        <pt x="411" y="154" on="1"/>
        <pt x="411" y="293" on="1"/>
        <pt x="596" y="293" on="1"/>
        <pt x="596" y="18" on="1"/>
        <pt x="533" y="5" on="0"/>
        <pt x="413" y="-11" on="0"/>
      </contour>
      <contour>
        <pt x="350" y="618" on="1"/>
        <pt x="293" y="618" on="0"/>
        <pt x="245" y="664" on="0"/>
        <pt x="245" y="718" on="1"/>
        <pt x="245" y="771" on="0"/>
        <pt x="293" y="818" on="0"/>
        <pt x="350" y="818" on="1"/>
        <pt x="407" y="818" on="0"/>
        <pt x="455" y="769" on="0"/>
        <pt x="455" y="718" on="1"/>
        <pt x="455" y="666" on="0"/>
        <pt x="407" y="618" on="0"/>
      </contour>
    </TTGlyph>
    <TTGlyph name="H" xMin="58" yMin="0" xMax="737" yMax="740">
      <contour>
        <pt x="58" y="740" on="1"/>
        <pt x="273" y="740" on="1"/>
        <pt x="273" y="464" on="1"/>
        <pt x="522" y="464" on="1"/>
        <pt x="522" y="740" on="1"/>
        <pt x="737" y="740" on="1"/>
        <pt x="737" y="0" on="1"/>
        <pt x="522" y="0" on="1"/>
        <pt x="522" y="295" on="1"/>
        <pt x="273" y="295" on="1"/>
        <pt x="273" y="0" on="1"/>
        <pt x="58" y="0" on="1"/>
      </contour>
    </TTGlyph>
    <TTGlyph name="H.sc" xMin="56" yMin="0" xMax="685" yMax="577">
      <contour>
        <pt x="56" y="577" on="1"/>
        <pt x="259" y="577" on="1"/>
        <pt x="259" y="375" on="1"/>
        <pt x="481" y="375" on="1"/>
        <pt x="481" y="577" on="1"/>
        <pt x="685" y="577" on="1"/>
        <pt x="685" y="0" on="1"/>
        <pt x="481" y="0" on="1"/>
        <pt x="481" y="217" on="1"/>
        <pt x="259" y="217" on="1"/>
        <pt x="259" y="0" on="1"/>
        <pt x="56" y="0" on="1"/>
      </contour>
    </TTGlyph>
    <TTGlyph name="Hbar" xMin="3" yMin="0" xMax="817" yMax="740">
      <contour>
        <pt x="3" y="631" on="1"/>
        <pt x="66" y="631" on="1"/>
        <pt x="66" y="740" on="1"/>
        <pt x="281" y="740" on="1"/>
        <pt x="281" y="631" on="1"/>
        <pt x="530" y="631" on="1"/>
        <pt x="530" y="740" on="1"/>
        <pt x="745" y="740" on="1"/>
        <pt x="745" y="631" on="1"/>
        <pt x="817" y="631" on="1"/>
        <pt x="817" y="536" on="1"/>
        <pt x="745" y="536" on="1"/>
        <pt x="745" y="0" on="1"/>
        <pt x="530" y="0" on="1"/>
        <pt x="530" y="295" on="1"/>
        <pt x="281" y="295" on="1"/>
        <pt x="281" y="0" on="1"/>
        <pt x="66" y="0" on="1"/>
        <pt x="66" y="536" on="1"/>
        <pt x="3" y="536" on="1"/>
      </contour>
      <contour>
        <pt x="530" y="464" on="1"/>
        <pt x="530" y="536" on="1"/>
        <pt x="281" y="536" on="1"/>
        <pt x="281" y="464" on="1"/>
      </contour>
    </TTGlyph>
    <TTGlyph name="Hbar.sc" xMin="9" yMin="0" xMax="756" yMax="577">
      <contour>
        <pt x="9" y="502" on="1"/>
        <pt x="64" y="502" on="1"/>
        <pt x="64" y="577" on="1"/>
        <pt x="267" y="577" on="1"/>
        <pt x="267" y="502" on="1"/>
        <pt x="490" y="502" on="1"/>
        <pt x="490" y="577" on="1"/>
        <pt x="693" y="577" on="1"/>
        <pt x="693" y="502" on="1"/>
        <pt x="756" y="502" on="1"/>
        <pt x="756" y="415" on="1"/>
        <pt x="693" y="415" on="1"/>
        <pt x="693" y="0" on="1"/>
        <pt x="490" y="0" on="1"/>
        <pt x="490" y="207" on="1"/>
        <pt x="267" y="207" on="1"/>
        <pt x="267" y="0" on="1"/>
        <pt x="64" y="0" on="1"/>
        <pt x="64" y="415" on="1"/>
        <pt x="9" y="415" on="1"/>
      </contour>
      <contour>
        <pt x="490" y="365" on="1"/>
        <pt x="490" y="415" on="1"/>
        <pt x="267" y="415" on="1"/>
        <pt x="267" y="365" on="1"/>
      </contour>
    </TTGlyph>
    <TTGlyph name="Hcircumflex" xMin="58" yMin="0" xMax="737" yMax="1004">
      <contour>
        <pt x="58" y="740" on="1"/>
        <pt x="273" y="740" on="1"/>
        <pt x="273" y="464" on="1"/>
        <pt x="522" y="464" on="1"/>
        <pt x="522" y="740" on="1"/>
        <pt x="737" y="740" on="1"/>
        <pt x="737" y="0" on="1"/>
        <pt x="522" y="0" on="1"/>
        <pt x="522" y="295" on="1"/>
        <pt x="273" y="295" on="1"/>
        <pt x="273" y="0" on="1"/>
        <pt x="58" y="0" on="1"/>
      </contour>
      <contour>
        <pt x="196" y="928" on="1"/>
        <pt x="398" y="1004" on="1"/>
        <pt x="602" y="928" on="1"/>
        <pt x="602" y="792" on="1"/>
        <pt x="399" y="868" on="1"/>
        <pt x="196" y="792" on="1"/>
      </contour>
    </TTGlyph>
    <TTGlyph name="Hcircumflex.sc" xMin="56" yMin="0" xMax="685" yMax="800">
      <contour>
        <pt x="56" y="577" on="1"/>
        <pt x="259" y="577" on="1"/>
        <pt x="259" y="375" on="1"/>
        <pt x="481" y="375" on="1"/>
        <pt x="481" y="577" on="1"/>
        <pt x="685" y="577" on="1"/>
        <pt x="685" y="0" on="1"/>
        <pt x="481" y="0" on="1"/>
        <pt x="481" y="217" on="1"/>
        <pt x="259" y="217" on="1"/>
        <pt x="259" y="0" on="1"/>
        <pt x="56" y="0" on="1"/>
      </contour>
      <contour>
        <pt x="182" y="738" on="1"/>
        <pt x="370" y="800" on="1"/>
        <pt x="561" y="738" on="1"/>
        <pt x="561" y="613" on="1"/>
        <pt x="372" y="674" on="1"/>
        <pt x="182" y="613" on="1"/>
      </contour>
    </TTGlyph>
    <TTGlyph name="Hdotbelow" xMin="58" yMin="-220" xMax="737" yMax="740">
      <contour>
        <pt x="58" y="740" on="1"/>
        <pt x="273" y="740" on="1"/>
        <pt x="273" y="464" on="1"/>
        <pt x="522" y="464" on="1"/>
        <pt x="522" y="740" on="1"/>
        <pt x="737" y="740" on="1"/>
        <pt x="737" y="0" on="1"/>
        <pt x="522" y="0" on="1"/>
        <pt x="522" y="295" on="1"/>
        <pt x="273" y="295" on="1"/>
        <pt x="273" y="0" on="1"/>
        <pt x="58" y="0" on="1"/>
      </contour>
      <contour>
        <pt x="396" y="-220" on="1"/>
        <pt x="349" y="-220" on="0"/>
        <pt x="311" y="-182" on="0"/>
        <pt x="311" y="-138" on="1"/>
        <pt x="311" y="-94" on="0"/>
        <pt x="349" y="-56" on="0"/>
        <pt x="396" y="-56" on="1"/>
        <pt x="443" y="-56" on="0"/>
        <pt x="481" y="-96" on="0"/>
        <pt x="481" y="-138" on="1"/>
        <pt x="481" y="-181" on="0"/>
        <pt x="443" y="-220" on="0"/>
      </contour>
    </TTGlyph>
    <TTGlyph name="Hdotbelow.sc" xMin="56" yMin="-182" xMax="685" yMax="577">
      <contour>
        <pt x="56" y="577" on="1"/>
        <pt x="259" y="577" on="1"/>
        <pt x="259" y="375" on="1"/>
        <pt x="481" y="375" on="1"/>
        <pt x="481" y="577" on="1"/>
        <pt x="685" y="577" on="1"/>
        <pt x="685" y="0" on="1"/>
        <pt x="481" y="0" on="1"/>
        <pt x="481" y="217" on="1"/>
        <pt x="259" y="217" on="1"/>
        <pt x="259" y="0" on="1"/>
        <pt x="56" y="0" on="1"/>
      </contour>
      <contour>
        <pt x="368" y="-182" on="1"/>
        <pt x="324" y="-182" on="0"/>
        <pt x="289" y="-147" on="0"/>
        <pt x="289" y="-109" on="1"/>
        <pt x="289" y="-71" on="0"/>
        <pt x="324" y="-36" on="0"/>
        <pt x="368" y="-36" on="1"/>
        <pt x="412" y="-36" on="0"/>
        <pt x="447" y="-71" on="0"/>
        <pt x="447" y="-109" on="1"/>
        <pt x="447" y="-147" on="0"/>
        <pt x="412" y="-182" on="0"/>
      </contour>
    </TTGlyph>
    <TTGlyph name="I" xMin="58" yMin="0" xMax="273" yMax="740">
      <contour>
        <pt x="58" y="740" on="1"/>
        <pt x="273" y="740" on="1"/>
        <pt x="273" y="0" on="1"/>
        <pt x="58" y="0" on="1"/>
      </contour>
    </TTGlyph>
    <TTGlyph name="I.sc" xMin="56" yMin="0" xMax="259" yMax="577">
      <contour>
        <pt x="56" y="577" on="1"/>
        <pt x="259" y="577" on="1"/>
        <pt x="259" y="0" on="1"/>
        <pt x="56" y="0" on="1"/>
      </contour>
    </TTGlyph>
    <TTGlyph name="IJ" xMin="58" yMin="-217" xMax="605" yMax="740">
      <contour>
        <pt x="58" y="740" on="1"/>
        <pt x="273" y="740" on="1"/>
        <pt x="273" y="0" on="1"/>
        <pt x="58" y="0" on="1"/>
      </contour>
      <contour>
        <pt x="315" y="-158" on="1"/>
        <pt x="336" y="-108" on="0"/>
        <pt x="365" y="-23" on="0"/>
        <pt x="383" y="60" on="0"/>
        <pt x="390" y="147" on="0"/>
        <pt x="390" y="200" on="1"/>
        <pt x="390" y="740" on="1"/>
        <pt x="605" y="740" on="1"/>
        <pt x="605" y="182" on="1"/>
        <pt x="605" y="129" on="0"/>
        <pt x="589" y="35" on="0"/>
        <pt x="553" y="-59" on="0"/>
        <pt x="494" y="-159" on="0"/>
        <pt x="451" y="-217" on="1"/>
      </contour>
    </TTGlyph>
    <TTGlyph name="Iacute" xMin="58" yMin="0" xMax="363" yMax="998">
      <contour>
        <pt x="58" y="740" on="1"/>
        <pt x="273" y="740" on="1"/>
        <pt x="273" y="0" on="1"/>
        <pt x="58" y="0" on="1"/>
      </contour>
      <contour>
        <pt x="85" y="809" on="1"/>
        <pt x="148" y="998" on="1"/>
        <pt x="363" y="998" on="1"/>
        <pt x="235" y="799" on="1"/>
      </contour>
    </TTGlyph>
    <TTGlyph name="Iacute.sc" xMin="56" yMin="0" xMax="340" yMax="794">
      <contour>
        <pt x="56" y="577" on="1"/>
        <pt x="259" y="577" on="1"/>
        <pt x="259" y="0" on="1"/>
        <pt x="56" y="0" on="1"/>
      </contour>
      <contour>
        <pt x="82" y="634" on="1"/>
        <pt x="138" y="794" on="1"/>
        <pt x="340" y="794" on="1"/>
        <pt x="223" y="625" on="1"/>
      </contour>
    </TTGlyph>
    <TTGlyph name="Ibreve" xMin="-58" yMin="0" xMax="387" yMax="991">
      <contour>
        <pt x="58" y="740" on="1"/>
        <pt x="273" y="740" on="1"/>
        <pt x="273" y="0" on="1"/>
        <pt x="58" y="0" on="1"/>
      </contour>
      <contour>
        <pt x="165" y="801" on="1"/>
        <pt x="104" y="801" on="0"/>
        <pt x="19" y="829" on="0"/>
        <pt x="-34" y="880" on="0"/>
        <pt x="-58" y="949" on="0"/>
        <pt x="-58" y="991" on="1"/>
        <pt x="80" y="991" on="1"/>
        <pt x="80" y="941" on="0"/>
        <pt x="114" y="896" on="0"/>
        <pt x="165" y="896" on="1"/>
        <pt x="215" y="896" on="0"/>
        <pt x="249" y="941" on="0"/>
        <pt x="249" y="991" on="1"/>
        <pt x="387" y="991" on="1"/>
        <pt x="387" y="949" on="0"/>
        <pt x="363" y="879" on="0"/>
        <pt x="309" y="829" on="0"/>
        <pt x="225" y="801" on="0"/>
      </contour>
    </TTGlyph>
    <TTGlyph name="Ibreve.sc" xMin="-51" yMin="0" xMax="364" yMax="783">
      <contour>
        <pt x="56" y="577" on="1"/>
        <pt x="259" y="577" on="1"/>
        <pt x="259" y="0" on="1"/>
        <pt x="56" y="0" on="1"/>
      </contour>
      <contour>
        <pt x="157" y="623" on="1"/>
        <pt x="100" y="623" on="0"/>
        <pt x="20" y="647" on="0"/>
        <pt x="-29" y="690" on="0"/>
        <pt x="-51" y="748" on="0"/>
        <pt x="-51" y="783" on="1"/>
        <pt x="80" y="783" on="1"/>
        <pt x="80" y="744" on="0"/>
        <pt x="110" y="710" on="0"/>
        <pt x="157" y="710" on="1"/>
        <pt x="204" y="710" on="0"/>
        <pt x="234" y="744" on="0"/>
        <pt x="234" y="783" on="1"/>
        <pt x="364" y="783" on="1"/>
        <pt x="364" y="748" on="0"/>
        <pt x="342" y="689" on="0"/>
        <pt x="292" y="647" on="0"/>
        <pt x="214" y="623" on="0"/>
      </contour>
    </TTGlyph>
    <TTGlyph name="Icircumflex" xMin="-36" yMin="0" xMax="370" yMax="1004">
      <contour>
        <pt x="58" y="740" on="1"/>
        <pt x="273" y="740" on="1"/>
        <pt x="273" y="0" on="1"/>
        <pt x="58" y="0" on="1"/>
      </contour>
      <contour>
        <pt x="-36" y="928" on="1"/>
        <pt x="166" y="1004" on="1"/>
        <pt x="370" y="928" on="1"/>
        <pt x="370" y="792" on="1"/>
        <pt x="167" y="868" on="1"/>
        <pt x="-36" y="792" on="1"/>
      </contour>
    </TTGlyph>
    <TTGlyph name="Icircumflex.sc" xMin="-30" yMin="0" xMax="349" yMax="800">
      <contour>
        <pt x="56" y="577" on="1"/>
        <pt x="259" y="577" on="1"/>
        <pt x="259" y="0" on="1"/>
        <pt x="56" y="0" on="1"/>
      </contour>
      <contour>
        <pt x="-30" y="738" on="1"/>
        <pt x="158" y="800" on="1"/>
        <pt x="349" y="738" on="1"/>
        <pt x="349" y="613" on="1"/>
        <pt x="159" y="674" on="1"/>
        <pt x="-30" y="613" on="1"/>
      </contour>
    </TTGlyph>
    <TTGlyph name="Idblgrave" xMin="-125" yMin="0" xMax="357" yMax="998">
      <contour>
        <pt x="58" y="740" on="1"/>
        <pt x="273" y="740" on="1"/>
        <pt x="273" y="0" on="1"/>
        <pt x="58" y="0" on="1"/>
      </contour>
      <contour>
        <pt x="3" y="799" on="1"/>
        <pt x="-125" y="998" on="1"/>
        <pt x="69" y="998" on="1"/>
        <pt x="131" y="809" on="1"/>
      </contour>
      <contour>
        <pt x="228" y="799" on="1"/>
        <pt x="100" y="998" on="1"/>
        <pt x="294" y="998" on="1"/>
        <pt x="357" y="809" on="1"/>
      </contour>
    </TTGlyph>
    <TTGlyph name="Idblgrave.sc" xMin="-113" yMin="0" xMax="338" yMax="795">
      <contour>
        <pt x="56" y="577" on="1"/>
        <pt x="259" y="577" on="1"/>
        <pt x="259" y="0" on="1"/>
        <pt x="56" y="0" on="1"/>
      </contour>
      <contour>
        <pt x="5" y="626" on="1"/>
        <pt x="-113" y="795" on="1"/>
        <pt x="73" y="795" on="1"/>
        <pt x="128" y="633" on="1"/>
      </contour>
      <contour>
        <pt x="215" y="626" on="1"/>
        <pt x="97" y="795" on="1"/>
        <pt x="282" y="795" on="1"/>
        <pt x="338" y="633" on="1"/>
      </contour>
    </TTGlyph>
    <TTGlyph name="Idieresis" xMin="-91" yMin="0" xMax="425" yMax="1014">
      <contour>
        <pt x="58" y="740" on="1"/>
        <pt x="273" y="740" on="1"/>
        <pt x="273" y="0" on="1"/>
        <pt x="58" y="0" on="1"/>
      </contour>
      <contour>
        <pt x="21" y="796" on="1"/>
        <pt x="-40" y="796" on="0"/>
        <pt x="-91" y="848" on="0"/>
        <pt x="-91" y="905" on="1"/>
        <pt x="-91" y="962" on="0"/>
        <pt x="-40" y="1014" on="0"/>
        <pt x="21" y="1014" on="1"/>
        <pt x="81" y="1014" on="0"/>
        <pt x="133" y="962" on="0"/>
        <pt x="133" y="905" on="1"/>
        <pt x="133" y="848" on="0"/>
        <pt x="81" y="796" on="0"/>
      </contour>
      <contour>
        <pt x="313" y="796" on="1"/>
        <pt x="253" y="796" on="0"/>
        <pt x="202" y="848" on="0"/>
        <pt x="202" y="905" on="1"/>
        <pt x="202" y="962" on="0"/>
        <pt x="253" y="1014" on="0"/>
        <pt x="313" y="1014" on="1"/>
        <pt x="374" y="1014" on="0"/>
        <pt x="425" y="962" on="0"/>
        <pt x="425" y="905" on="1"/>
        <pt x="425" y="848" on="0"/>
        <pt x="374" y="796" on="0"/>
      </contour>
    </TTGlyph>
    <TTGlyph name="Idieresis.sc" xMin="-81" yMin="0" xMax="400" yMax="816">
      <contour>
        <pt x="56" y="577" on="1"/>
        <pt x="259" y="577" on="1"/>
        <pt x="259" y="0" on="1"/>
        <pt x="56" y="0" on="1"/>
      </contour>
      <contour>
        <pt x="25" y="616" on="1"/>
        <pt x="-32" y="616" on="0"/>
        <pt x="-81" y="663" on="0"/>
        <pt x="-81" y="716" on="1"/>
        <pt x="-81" y="769" on="0"/>
        <pt x="-32" y="816" on="0"/>
        <pt x="25" y="816" on="1"/>
        <pt x="82" y="816" on="0"/>
        <pt x="130" y="767" on="0"/>
        <pt x="130" y="716" on="1"/>
        <pt x="130" y="664" on="0"/>
        <pt x="82" y="616" on="0"/>
      </contour>
      <contour>
        <pt x="294" y="616" on="1"/>
        <pt x="237" y="616" on="0"/>
        <pt x="190" y="663" on="0"/>
        <pt x="190" y="716" on="1"/>
        <pt x="190" y="769" on="0"/>
        <pt x="237" y="816" on="0"/>
        <pt x="294" y="816" on="1"/>
        <pt x="351" y="816" on="0"/>
        <pt x="400" y="767" on="0"/>
        <pt x="400" y="716" on="1"/>
        <pt x="400" y="664" on="0"/>
        <pt x="351" y="616" on="0"/>
      </contour>
    </TTGlyph>
    <TTGlyph name="Idotaccent" xMin="55" yMin="0" xMax="279" yMax="1014">
      <contour>
        <pt x="58" y="740" on="1"/>
        <pt x="273" y="740" on="1"/>
        <pt x="273" y="0" on="1"/>
        <pt x="58" y="0" on="1"/>
      </contour>
      <contour>
        <pt x="167" y="796" on="1"/>
        <pt x="106" y="796" on="0"/>
        <pt x="55" y="848" on="0"/>
        <pt x="55" y="905" on="1"/>
        <pt x="55" y="962" on="0"/>
        <pt x="106" y="1014" on="0"/>
        <pt x="167" y="1014" on="1"/>
        <pt x="227" y="1014" on="0"/>
        <pt x="279" y="962" on="0"/>
        <pt x="279" y="905" on="1"/>
        <pt x="279" y="848" on="0"/>
        <pt x="227" y="796" on="0"/>
      </contour>
    </TTGlyph>
    <TTGlyph name="Idotaccent.sc" xMin="53" yMin="0" xMax="263" yMax="818">
      <contour>
        <pt x="56" y="577" on="1"/>
        <pt x="259" y="577" on="1"/>
        <pt x="259" y="0" on="1"/>
        <pt x="56" y="0" on="1"/>
      </contour>
      <contour>
        <pt x="158" y="618" on="1"/>
        <pt x="101" y="618" on="0"/>
        <pt x="53" y="664" on="0"/>
        <pt x="53" y="718" on="1"/>
        <pt x="53" y="771" on="0"/>
        <pt x="101" y="818" on="0"/>
        <pt x="158" y="818" on="1"/>
        <pt x="216" y="818" on="0"/>
        <pt x="263" y="769" on="0"/>
        <pt x="263" y="718" on="1"/>
        <pt x="263" y="666" on="0"/>
        <pt x="216" y="618" on="0"/>
      </contour>
    </TTGlyph>
    <TTGlyph name="Idotbelow" xMin="58" yMin="-220" xMax="273" yMax="740">
      <contour>
        <pt x="58" y="740" on="1"/>
        <pt x="273" y="740" on="1"/>
        <pt x="273" y="0" on="1"/>
        <pt x="58" y="0" on="1"/>
      </contour>
      <contour>
        <pt x="166" y="-220" on="1"/>
        <pt x="119" y="-220" on="0"/>
        <pt x="81" y="-182" on="0"/>
        <pt x="81" y="-138" on="1"/>
        <pt x="81" y="-94" on="0"/>
        <pt x="119" y="-56" on="0"/>
        <pt x="166" y="-56" on="1"/>
        <pt x="213" y="-56" on="0"/>
        <pt x="251" y="-96" on="0"/>
        <pt x="251" y="-138" on="1"/>
        <pt x="251" y="-181" on="0"/>
        <pt x="213" y="-220" on="0"/>
      </contour>
    </TTGlyph>
    <TTGlyph name="Idotbelow.sc" xMin="56" yMin="-182" xMax="259" yMax="577">
      <contour>
        <pt x="56" y="577" on="1"/>
        <pt x="259" y="577" on="1"/>
        <pt x="259" y="0" on="1"/>
        <pt x="56" y="0" on="1"/>
      </contour>
      <contour>
        <pt x="158" y="-182" on="1"/>
        <pt x="114" y="-182" on="0"/>
        <pt x="79" y="-147" on="0"/>
        <pt x="79" y="-109" on="1"/>
        <pt x="79" y="-71" on="0"/>
        <pt x="114" y="-36" on="0"/>
        <pt x="158" y="-36" on="1"/>
        <pt x="202" y="-36" on="0"/>
        <pt x="237" y="-71" on="0"/>
        <pt x="237" y="-109" on="1"/>
        <pt x="237" y="-147" on="0"/>
        <pt x="202" y="-182" on="0"/>
      </contour>
    </TTGlyph>
    <TTGlyph name="Igrave" xMin="-28" yMin="0" xMax="273" yMax="998">
      <contour>
        <pt x="58" y="740" on="1"/>
        <pt x="273" y="740" on="1"/>
        <pt x="273" y="0" on="1"/>
        <pt x="58" y="0" on="1"/>
      </contour>
      <contour>
        <pt x="100" y="799" on="1"/>
        <pt x="-28" y="998" on="1"/>
        <pt x="187" y="998" on="1"/>
        <pt x="249" y="809" on="1"/>
      </contour>
    </TTGlyph>
    <TTGlyph name="Igrave.sc" xMin="-21" yMin="0" xMax="259" yMax="794">
      <contour>
        <pt x="56" y="577" on="1"/>
        <pt x="259" y="577" on="1"/>
        <pt x="259" y="0" on="1"/>
        <pt x="56" y="0" on="1"/>
      </contour>
      <contour>
        <pt x="97" y="625" on="1"/>
        <pt x="-21" y="794" on="1"/>
        <pt x="182" y="794" on="1"/>
        <pt x="238" y="632" on="1"/>
      </contour>
    </TTGlyph>
    <TTGlyph name="Iinvertedbreve" xMin="-55" yMin="0" xMax="390" yMax="1001">
      <contour>
        <pt x="58" y="740" on="1"/>
        <pt x="273" y="740" on="1"/>
        <pt x="273" y="0" on="1"/>
        <pt x="58" y="0" on="1"/>
      </contour>
      <contour>
        <pt x="252" y="811" on="1"/>
        <pt x="252" y="860" on="0"/>
        <pt x="218" y="905" on="0"/>
        <pt x="168" y="905" on="1"/>
        <pt x="117" y="905" on="0"/>
        <pt x="83" y="861" on="0"/>
        <pt x="83" y="811" on="1"/>
        <pt x="-55" y="811" on="1"/>
        <pt x="-55" y="853" on="0"/>
        <pt x="-31" y="922" on="0"/>
        <pt x="22" y="973" on="0"/>
        <pt x="107" y="1001" on="0"/>
        <pt x="168" y="1001" on="1"/>
        <pt x="228" y="1001" on="0"/>
        <pt x="312" y="973" on="0"/>
        <pt x="366" y="923" on="0"/>
        <pt x="390" y="853" on="0"/>
        <pt x="390" y="811" on="1"/>
      </contour>
    </TTGlyph>
    <TTGlyph name="Iinvertedbreve.sc" xMin="-48" yMin="0" xMax="367" yMax="792">
      <contour>
        <pt x="56" y="577" on="1"/>
        <pt x="259" y="577" on="1"/>
        <pt x="259" y="0" on="1"/>
        <pt x="56" y="0" on="1"/>
      </contour>
      <contour>
        <pt x="237" y="632" on="1"/>
        <pt x="237" y="670" on="0"/>
        <pt x="207" y="704" on="0"/>
        <pt x="160" y="704" on="1"/>
        <pt x="113" y="704" on="0"/>
        <pt x="83" y="670" on="0"/>
        <pt x="83" y="632" on="1"/>
        <pt x="-48" y="632" on="1"/>
        <pt x="-48" y="666" on="0"/>
        <pt x="-26" y="725" on="0"/>
        <pt x="23" y="768" on="0"/>
        <pt x="103" y="792" on="0"/>
        <pt x="160" y="792" on="1"/>
        <pt x="217" y="792" on="0"/>
        <pt x="295" y="768" on="0"/>
        <pt x="345" y="726" on="0"/>
        <pt x="367" y="667" on="0"/>
        <pt x="367" y="632" on="1"/>
      </contour>
    </TTGlyph>
    <TTGlyph name="Imacron" xMin="-33" yMin="0" xMax="372" yMax="976">
      <contour>
        <pt x="58" y="740" on="1"/>
        <pt x="273" y="740" on="1"/>
        <pt x="273" y="0" on="1"/>
        <pt x="58" y="0" on="1"/>
      </contour>
      <contour>
        <pt x="-33" y="976" on="1"/>
        <pt x="372" y="976" on="1"/>
        <pt x="372" y="840" on="1"/>
        <pt x="-33" y="840" on="1"/>
      </contour>
    </TTGlyph>
    <TTGlyph name="Imacron.sc" xMin="-27" yMin="0" xMax="350" yMax="781">
      <contour>
        <pt x="56" y="577" on="1"/>
        <pt x="259" y="577" on="1"/>
        <pt x="259" y="0" on="1"/>
        <pt x="56" y="0" on="1"/>
      </contour>
      <contour>
        <pt x="-27" y="781" on="1"/>
        <pt x="350" y="781" on="1"/>
        <pt x="350" y="655" on="1"/>
        <pt x="-27" y="655" on="1"/>
      </contour>
    </TTGlyph>
    <TTGlyph name="Iogonek" xMin="23" yMin="-220" xMax="274" yMax="740">
      <contour>
        <pt x="58" y="740" on="1"/>
        <pt x="273" y="740" on="1"/>
        <pt x="273" y="-5" on="1"/>
        <pt x="239" y="-18" on="0"/>
        <pt x="194" y="-42" on="0"/>
        <pt x="167" y="-63" on="0"/>
        <pt x="156" y="-82" on="0"/>
        <pt x="156" y="-90" on="1"/>
        <pt x="156" y="-109" on="0"/>
        <pt x="186" y="-109" on="1"/>
        <pt x="202" y="-109" on="0"/>
        <pt x="253" y="-100" on="0"/>
        <pt x="274" y="-94" on="1"/>
        <pt x="274" y="-208" on="1"/>
        <pt x="250" y="-214" on="0"/>
        <pt x="204" y="-220" on="0"/>
        <pt x="178" y="-220" on="1"/>
        <pt x="103" y="-220" on="0"/>
        <pt x="23" y="-169" on="0"/>
        <pt x="23" y="-120" on="1"/>
        <pt x="23" y="-54" on="0"/>
        <pt x="101" y="0" on="1"/>
        <pt x="58" y="0" on="1"/>
      </contour>
    </TTGlyph>
    <TTGlyph name="Iogonek.sc" xMin="27" yMin="-172" xMax="260" yMax="577">
      <contour>
        <pt x="56" y="577" on="1"/>
        <pt x="259" y="577" on="1"/>
        <pt x="259" y="-1" on="1"/>
        <pt x="223" y="-13" on="0"/>
        <pt x="181" y="-33" on="0"/>
        <pt x="159" y="-48" on="0"/>
        <pt x="152" y="-57" on="0"/>
        <pt x="152" y="-60" on="1"/>
        <pt x="152" y="-68" on="0"/>
        <pt x="177" y="-68" on="1"/>
        <pt x="184" y="-68" on="0"/>
        <pt x="206" y="-66" on="0"/>
        <pt x="230" y="-63" on="0"/>
        <pt x="252" y="-60" on="0"/>
        <pt x="260" y="-58" on="1"/>
        <pt x="260" y="-162" on="1"/>
        <pt x="216" y="-172" on="0"/>
        <pt x="172" y="-172" on="1"/>
        <pt x="102" y="-172" on="0"/>
        <pt x="27" y="-128" on="0"/>
        <pt x="27" y="-89" on="1"/>
        <pt x="27" y="-62" on="0"/>
        <pt x="62" y="-17" on="0"/>
        <pt x="91" y="0" on="1"/>
        <pt x="56" y="0" on="1"/>
      </contour>
    </TTGlyph>
    <TTGlyph name="Itilde" xMin="-64" yMin="0" xMax="412" yMax="988">
      <contour>
        <pt x="58" y="740" on="1"/>
        <pt x="273" y="740" on="1"/>
        <pt x="273" y="0" on="1"/>
        <pt x="58" y="0" on="1"/>
      </contour>
      <contour>
        <pt x="-64" y="847" on="1"/>
        <pt x="-29" y="919" on="0"/>
        <pt x="61" y="988" on="0"/>
        <pt x="103" y="988" on="1"/>
        <pt x="127" y="988" on="0"/>
        <pt x="176" y="976" on="0"/>
        <pt x="224" y="963" on="0"/>
        <pt x="272" y="951" on="0"/>
        <pt x="297" y="951" on="1"/>
        <pt x="319" y="951" on="0"/>
        <pt x="360" y="966" on="0"/>
        <pt x="389" y="988" on="1"/>
        <pt x="412" y="959" on="1"/>
        <pt x="376" y="887" on="0"/>
        <pt x="287" y="818" on="0"/>
        <pt x="245" y="818" on="1"/>
        <pt x="221" y="818" on="0"/>
        <pt x="172" y="829" on="0"/>
        <pt x="124" y="843" on="0"/>
        <pt x="75" y="854" on="0"/>
        <pt x="51" y="854" on="1"/>
        <pt x="28" y="854" on="0"/>
        <pt x="-14" y="840" on="0"/>
        <pt x="-41" y="818" on="1"/>
      </contour>
    </TTGlyph>
    <TTGlyph name="Itilde.sc" xMin="-57" yMin="0" xMax="386" yMax="789">
      <contour>
        <pt x="56" y="577" on="1"/>
        <pt x="259" y="577" on="1"/>
        <pt x="259" y="0" on="1"/>
        <pt x="56" y="0" on="1"/>
      </contour>
      <contour>
        <pt x="-57" y="660" on="1"/>
        <pt x="-25" y="726" on="0"/>
        <pt x="60" y="788" on="0"/>
        <pt x="99" y="788" on="1"/>
        <pt x="121" y="788" on="0"/>
        <pt x="167" y="780" on="0"/>
        <pt x="212" y="769" on="0"/>
        <pt x="257" y="761" on="0"/>
        <pt x="280" y="761" on="1"/>
        <pt x="300" y="761" on="0"/>
        <pt x="339" y="771" on="0"/>
        <pt x="365" y="789" on="1"/>
        <pt x="386" y="764" on="1"/>
        <pt x="352" y="698" on="0"/>
        <pt x="268" y="636" on="0"/>
        <pt x="230" y="636" on="1"/>
        <pt x="207" y="636" on="0"/>
        <pt x="162" y="645" on="0"/>
        <pt x="117" y="655" on="0"/>
        <pt x="72" y="664" on="0"/>
        <pt x="49" y="664" on="1"/>
        <pt x="28" y="664" on="0"/>
        <pt x="-11" y="654" on="0"/>
        <pt x="-36" y="636" on="1"/>
      </contour>
    </TTGlyph>
    <TTGlyph name="J" xMin="-15" yMin="-217" xMax="275" yMax="740">
      <contour>
        <pt x="-15" y="-158" on="1"/>
        <pt x="6" y="-108" on="0"/>
        <pt x="35" y="-23" on="0"/>
        <pt x="53" y="60" on="0"/>
        <pt x="60" y="147" on="0"/>
        <pt x="60" y="200" on="1"/>
        <pt x="60" y="740" on="1"/>
        <pt x="275" y="740" on="1"/>
        <pt x="275" y="182" on="1"/>
        <pt x="275" y="129" on="0"/>
        <pt x="259" y="35" on="0"/>
        <pt x="223" y="-59" on="0"/>
        <pt x="164" y="-159" on="0"/>
        <pt x="121" y="-217" on="1"/>
      </contour>
    </TTGlyph>
    <TTGlyph name="J.sc" xMin="-9" yMin="-177" xMax="261" yMax="577">
      <contour>
        <pt x="-9" y="-123" on="1"/>
        <pt x="10" y="-84" on="0"/>
        <pt x="36" y="-16" on="0"/>
        <pt x="51" y="50" on="0"/>
        <pt x="58" y="119" on="0"/>
        <pt x="58" y="160" on="1"/>
        <pt x="58" y="577" on="1"/>
        <pt x="261" y="577" on="1"/>
        <pt x="261" y="143" on="1"/>
        <pt x="261" y="101" on="0"/>
        <pt x="246" y="25" on="0"/>
        <pt x="213" y="-51" on="0"/>
        <pt x="159" y="-131" on="0"/>
        <pt x="119" y="-177" on="1"/>
      </contour>
    </TTGlyph>
    <TTGlyph name="Jcircumflex" xMin="-32" yMin="-217" xMax="374" yMax="1004">
      <contour>
        <pt x="-15" y="-158" on="1"/>
        <pt x="6" y="-108" on="0"/>
        <pt x="35" y="-23" on="0"/>
        <pt x="53" y="60" on="0"/>
        <pt x="60" y="147" on="0"/>
        <pt x="60" y="200" on="1"/>
        <pt x="60" y="740" on="1"/>
        <pt x="275" y="740" on="1"/>
        <pt x="275" y="182" on="1"/>
        <pt x="275" y="129" on="0"/>
        <pt x="259" y="35" on="0"/>
        <pt x="223" y="-59" on="0"/>
        <pt x="164" y="-159" on="0"/>
        <pt x="121" y="-217" on="1"/>
      </contour>
      <contour>
        <pt x="-32" y="928" on="1"/>
        <pt x="170" y="1004" on="1"/>
        <pt x="374" y="928" on="1"/>
        <pt x="374" y="792" on="1"/>
        <pt x="171" y="868" on="1"/>
        <pt x="-32" y="792" on="1"/>
      </contour>
    </TTGlyph>
    <TTGlyph name="Jcircumflex.sc" xMin="-27" yMin="-177" xMax="351" yMax="800">
      <contour>
        <pt x="-10" y="-123" on="1"/>
        <pt x="9" y="-84" on="0"/>
        <pt x="36" y="-16" on="0"/>
        <pt x="51" y="50" on="0"/>
        <pt x="58" y="119" on="0"/>
        <pt x="58" y="160" on="1"/>
        <pt x="58" y="577" on="1"/>
        <pt x="261" y="577" on="1"/>
        <pt x="261" y="143" on="1"/>
        <pt x="261" y="101" on="0"/>
        <pt x="246" y="25" on="0"/>
        <pt x="213" y="-51" on="0"/>
        <pt x="159" y="-131" on="0"/>
        <pt x="119" y="-177" on="1"/>
      </contour>
      <contour>
        <pt x="-27" y="738" on="1"/>
        <pt x="161" y="800" on="1"/>
        <pt x="351" y="738" on="1"/>
        <pt x="351" y="613" on="1"/>
        <pt x="162" y="674" on="1"/>
        <pt x="-27" y="613" on="1"/>
      </contour>
    </TTGlyph>
    <TTGlyph name="K" xMin="58" yMin="0" xMax="738" yMax="740">
      <contour>
        <pt x="58" y="740" on="1"/>
        <pt x="273" y="740" on="1"/>
        <pt x="273" y="459" on="1"/>
        <pt x="351" y="459" on="1"/>
        <pt x="481" y="740" on="1"/>
        <pt x="719" y="740" on="1"/>
        <pt x="549" y="415" on="1"/>
        <pt x="490" y="388" on="1"/>
        <pt x="490" y="379" on="1"/>
        <pt x="551" y="351" on="1"/>
        <pt x="738" y="0" on="1"/>
        <pt x="499" y="0" on="1"/>
        <pt x="357" y="290" on="1"/>
        <pt x="273" y="290" on="1"/>
        <pt x="273" y="0" on="1"/>
        <pt x="58" y="0" on="1"/>
      </contour>
    </TTGlyph>
    <TTGlyph name="K.sc" xMin="56" yMin="0" xMax="685" yMax="577">
      <contour>
        <pt x="56" y="577" on="1"/>
        <pt x="259" y="577" on="1"/>
        <pt x="259" y="370" on="1"/>
        <pt x="328" y="370" on="1"/>
        <pt x="444" y="577" on="1"/>
        <pt x="668" y="577" on="1"/>
        <pt x="514" y="326" on="1"/>
        <pt x="454" y="304" on="1"/>
        <pt x="454" y="297" on="1"/>
        <pt x="516" y="274" on="1"/>
        <pt x="685" y="0" on="1"/>
        <pt x="459" y="0" on="1"/>
        <pt x="335" y="212" on="1"/>
        <pt x="259" y="212" on="1"/>
        <pt x="259" y="0" on="1"/>
        <pt x="56" y="0" on="1"/>
      </contour>
    </TTGlyph>
    <TTGlyph name="Kcommaaccent" xMin="58" yMin="-220" xMax="738" yMax="740">
      <contour>
        <pt x="245" y="-70" on="1"/>
        <pt x="460" y="-70" on="1"/>
        <pt x="361" y="-220" on="1"/>
        <pt x="205" y="-220" on="1"/>
      </contour>
      <contour>
        <pt x="58" y="740" on="1"/>
        <pt x="273" y="740" on="1"/>
        <pt x="273" y="459" on="1"/>
        <pt x="351" y="459" on="1"/>
        <pt x="481" y="740" on="1"/>
        <pt x="719" y="740" on="1"/>
        <pt x="549" y="415" on="1"/>
        <pt x="490" y="388" on="1"/>
        <pt x="490" y="379" on="1"/>
        <pt x="551" y="351" on="1"/>
        <pt x="738" y="0" on="1"/>
        <pt x="499" y="0" on="1"/>
        <pt x="357" y="290" on="1"/>
        <pt x="273" y="290" on="1"/>
        <pt x="273" y="0" on="1"/>
        <pt x="58" y="0" on="1"/>
      </contour>
    </TTGlyph>
    <TTGlyph name="Kcommaaccent.sc" xMin="56" yMin="-172" xMax="685" yMax="577">
      <contour>
        <pt x="56" y="577" on="1"/>
        <pt x="259" y="577" on="1"/>
        <pt x="259" y="370" on="1"/>
        <pt x="328" y="370" on="1"/>
        <pt x="444" y="577" on="1"/>
        <pt x="668" y="577" on="1"/>
        <pt x="514" y="326" on="1"/>
        <pt x="454" y="304" on="1"/>
        <pt x="454" y="297" on="1"/>
        <pt x="516" y="274" on="1"/>
        <pt x="685" y="0" on="1"/>
        <pt x="459" y="0" on="1"/>
        <pt x="335" y="212" on="1"/>
        <pt x="259" y="212" on="1"/>
        <pt x="259" y="0" on="1"/>
        <pt x="56" y="0" on="1"/>
      </contour>
      <contour>
        <pt x="248" y="-55" on="1"/>
        <pt x="451" y="-55" on="1"/>
        <pt x="360" y="-172" on="1"/>
        <pt x="213" y="-172" on="1"/>
      </contour>
    </TTGlyph>
    <TTGlyph name="L" xMin="58" yMin="0" xMax="550" yMax="740">
      <contour>
        <pt x="58" y="740" on="1"/>
        <pt x="273" y="740" on="1"/>
        <pt x="273" y="169" on="1"/>
        <pt x="550" y="169" on="1"/>
        <pt x="550" y="0" on="1"/>
        <pt x="58" y="0" on="1"/>
      </contour>
    </TTGlyph>
    <TTGlyph name="L.sc" xMin="56" yMin="0" xMax="513" yMax="577">
      <contour>
        <pt x="56" y="577" on="1"/>
        <pt x="259" y="577" on="1"/>
        <pt x="259" y="157" on="1"/>
        <pt x="513" y="157" on="1"/>
        <pt x="513" y="0" on="1"/>
        <pt x="56" y="0" on="1"/>
      </contour>
    </TTGlyph>
    <TTGlyph name="Lacute" xMin="58" yMin="0" xMax="550" yMax="998">
      <contour>
        <pt x="91" y="809" on="1"/>
        <pt x="154" y="998" on="1"/>
        <pt x="369" y="998" on="1"/>
        <pt x="241" y="799" on="1"/>
      </contour>
      <contour>
        <pt x="58" y="740" on="1"/>
        <pt x="273" y="740" on="1"/>
        <pt x="273" y="169" on="1"/>
        <pt x="550" y="169" on="1"/>
        <pt x="550" y="0" on="1"/>
        <pt x="58" y="0" on="1"/>
      </contour>
    </TTGlyph>
    <TTGlyph name="Lacute.sc" xMin="56" yMin="0" xMax="513" yMax="794">
      <contour>
        <pt x="56" y="577" on="1"/>
        <pt x="259" y="577" on="1"/>
        <pt x="259" y="157" on="1"/>
        <pt x="513" y="157" on="1"/>
        <pt x="513" y="0" on="1"/>
        <pt x="56" y="0" on="1"/>
      </contour>
      <contour>
        <pt x="87" y="634" on="1"/>
        <pt x="143" y="794" on="1"/>
        <pt x="346" y="794" on="1"/>
        <pt x="229" y="625" on="1"/>
      </contour>
    </TTGlyph>
    <TTGlyph name="Lcaron" xMin="58" yMin="0" xMax="576" yMax="808">
      <contour>
        <pt x="413" y="808" on="1"/>
        <pt x="576" y="808" on="1"/>
        <pt x="526" y="580" on="1"/>
        <pt x="413" y="580" on="1"/>
      </contour>
      <contour>
        <pt x="58" y="740" on="1"/>
        <pt x="273" y="740" on="1"/>
        <pt x="273" y="169" on="1"/>
        <pt x="550" y="169" on="1"/>
        <pt x="550" y="0" on="1"/>
        <pt x="58" y="0" on="1"/>
      </contour>
    </TTGlyph>
    <TTGlyph name="Lcaron.sc" xMin="56" yMin="0" xMax="534" yMax="643">
      <contour>
        <pt x="56" y="577" on="1"/>
        <pt x="259" y="577" on="1"/>
        <pt x="259" y="157" on="1"/>
        <pt x="513" y="157" on="1"/>
        <pt x="513" y="0" on="1"/>
        <pt x="56" y="0" on="1"/>
      </contour>
      <contour>
        <pt x="380" y="643" on="1"/>
        <pt x="534" y="643" on="1"/>
        <pt x="487" y="465" on="1"/>
        <pt x="380" y="465" on="1"/>
      </contour>
    </TTGlyph>
    <TTGlyph name="Lcommaaccent" xMin="58" yMin="-220" xMax="550" yMax="740">
      <contour>
        <pt x="183" y="-70" on="1"/>
        <pt x="398" y="-70" on="1"/>
        <pt x="299" y="-220" on="1"/>
        <pt x="143" y="-220" on="1"/>
      </contour>
      <contour>
        <pt x="58" y="740" on="1"/>
        <pt x="273" y="740" on="1"/>
        <pt x="273" y="169" on="1"/>
        <pt x="550" y="169" on="1"/>
        <pt x="550" y="0" on="1"/>
        <pt x="58" y="0" on="1"/>
      </contour>
    </TTGlyph>
    <TTGlyph name="Lcommaaccent.sc" xMin="56" yMin="-172" xMax="513" yMax="577">
      <contour>
        <pt x="56" y="577" on="1"/>
        <pt x="259" y="577" on="1"/>
        <pt x="259" y="157" on="1"/>
        <pt x="513" y="157" on="1"/>
        <pt x="513" y="0" on="1"/>
        <pt x="56" y="0" on="1"/>
      </contour>
      <contour>
        <pt x="166" y="-55" on="1"/>
        <pt x="369" y="-55" on="1"/>
        <pt x="278" y="-172" on="1"/>
        <pt x="131" y="-172" on="1"/>
      </contour>
    </TTGlyph>
    <TTGlyph name="Ldot" xMin="58" yMin="0" xMax="578" yMax="740">
      <contour>
        <pt x="58" y="740" on="1"/>
        <pt x="273" y="740" on="1"/>
        <pt x="273" y="169" on="1"/>
        <pt x="550" y="169" on="1"/>
        <pt x="550" y="0" on="1"/>
        <pt x="58" y="0" on="1"/>
      </contour>
      <contour>
        <pt x="466" y="278" on="1"/>
        <pt x="405" y="278" on="0"/>
        <pt x="354" y="330" on="0"/>
        <pt x="354" y="387" on="1"/>
        <pt x="354" y="445" on="0"/>
        <pt x="405" y="496" on="0"/>
        <pt x="466" y="496" on="1"/>
        <pt x="526" y="496" on="0"/>
        <pt x="578" y="444" on="0"/>
        <pt x="578" y="387" on="1"/>
        <pt x="578" y="330" on="0"/>
        <pt x="526" y="278" on="0"/>
      </contour>
    </TTGlyph>
    <TTGlyph name="Ldot.sc" xMin="56" yMin="0" xMax="540" yMax="577">
      <contour>
        <pt x="56" y="577" on="1"/>
        <pt x="259" y="577" on="1"/>
        <pt x="259" y="157" on="1"/>
        <pt x="513" y="157" on="1"/>
        <pt x="513" y="0" on="1"/>
        <pt x="56" y="0" on="1"/>
      </contour>
      <contour>
        <pt x="435" y="207" on="1"/>
        <pt x="378" y="207" on="0"/>
        <pt x="330" y="254" on="0"/>
        <pt x="330" y="308" on="1"/>
        <pt x="330" y="361" on="0"/>
        <pt x="378" y="408" on="0"/>
        <pt x="435" y="408" on="1"/>
        <pt x="493" y="408" on="0"/>
        <pt x="540" y="359" on="0"/>
        <pt x="540" y="308" on="1"/>
        <pt x="540" y="256" on="0"/>
        <pt x="493" y="207" on="0"/>
      </contour>
    </TTGlyph>
    <TTGlyph name="Lslash" xMin="9" yMin="0" xMax="567" yMax="740">
      <contour>
        <pt x="9" y="377" on="1"/>
        <pt x="75" y="408" on="1"/>
        <pt x="75" y="740" on="1"/>
        <pt x="290" y="740" on="1"/>
        <pt x="290" y="511" on="1"/>
        <pt x="406" y="566" on="1"/>
        <pt x="406" y="416" on="1"/>
        <pt x="290" y="360" on="1"/>
        <pt x="290" y="169" on="1"/>
        <pt x="567" y="169" on="1"/>
        <pt x="567" y="0" on="1"/>
        <pt x="75" y="0" on="1"/>
        <pt x="75" y="257" on="1"/>
        <pt x="9" y="226" on="1"/>
      </contour>
    </TTGlyph>
    <TTGlyph name="Lslash.sc" xMin="12" yMin="0" xMax="527" yMax="577">
      <contour>
        <pt x="12" y="316" on="1"/>
        <pt x="70" y="338" on="1"/>
        <pt x="70" y="577" on="1"/>
        <pt x="273" y="577" on="1"/>
        <pt x="273" y="417" on="1"/>
        <pt x="378" y="457" on="1"/>
        <pt x="378" y="319" on="1"/>
        <pt x="273" y="278" on="1"/>
        <pt x="273" y="157" on="1"/>
        <pt x="527" y="157" on="1"/>
        <pt x="527" y="0" on="1"/>
        <pt x="70" y="0" on="1"/>
        <pt x="70" y="199" on="1"/>
        <pt x="12" y="177" on="1"/>
      </contour>
    </TTGlyph>
    <TTGlyph name="M" xMin="58" yMin="0" xMax="935" yMax="740">
      <contour>
        <pt x="58" y="740" on="1"/>
        <pt x="356" y="740" on="1"/>
        <pt x="460" y="432" on="1"/>
        <pt x="493" y="290" on="1"/>
        <pt x="500" y="290" on="1"/>
        <pt x="532" y="432" on="1"/>
        <pt x="637" y="740" on="1"/>
        <pt x="935" y="740" on="1"/>
        <pt x="935" y="0" on="1"/>
        <pt x="742" y="0" on="1"/>
        <pt x="742" y="501" on="1"/>
        <pt x="734" y="501" on="1"/>
        <pt x="683" y="324" on="1"/>
        <pt x="582" y="34" on="1"/>
        <pt x="409" y="34" on="1"/>
        <pt x="309" y="324" on="1"/>
        <pt x="257" y="501" on="1"/>
        <pt x="249" y="501" on="1"/>
        <pt x="249" y="0" on="1"/>
        <pt x="58" y="0" on="1"/>
      </contour>
    </TTGlyph>
    <TTGlyph name="M.sc" xMin="56" yMin="0" xMax="864" yMax="577">
      <contour>
        <pt x="56" y="577" on="1"/>
        <pt x="329" y="577" on="1"/>
        <pt x="422" y="360" on="1"/>
        <pt x="455" y="263" on="1"/>
        <pt x="464" y="263" on="1"/>
        <pt x="497" y="360" on="1"/>
        <pt x="590" y="577" on="1"/>
        <pt x="864" y="577" on="1"/>
        <pt x="864" y="0" on="1"/>
        <pt x="681" y="0" on="1"/>
        <pt x="681" y="364" on="1"/>
        <pt x="672" y="364" on="1"/>
        <pt x="616" y="215" on="1"/>
        <pt x="539" y="26" on="1"/>
        <pt x="380" y="26" on="1"/>
        <pt x="303" y="215" on="1"/>
        <pt x="247" y="364" on="1"/>
        <pt x="238" y="364" on="1"/>
        <pt x="238" y="0" on="1"/>
        <pt x="56" y="0" on="1"/>
      </contour>
    </TTGlyph>
    <TTGlyph name="N" xMin="58" yMin="0" xMax="728" yMax="740">
      <contour>
        <pt x="58" y="740" on="1"/>
        <pt x="229" y="740" on="1"/>
        <pt x="479" y="415" on="1"/>
        <pt x="531" y="335" on="1"/>
        <pt x="541" y="335" on="1"/>
        <pt x="541" y="740" on="1"/>
        <pt x="728" y="740" on="1"/>
        <pt x="728" y="0" on="1"/>
        <pt x="558" y="0" on="1"/>
        <pt x="313" y="320" on="1"/>
        <pt x="255" y="407" on="1"/>
        <pt x="245" y="407" on="1"/>
        <pt x="245" y="0" on="1"/>
        <pt x="58" y="0" on="1"/>
      </contour>
    </TTGlyph>
    <TTGlyph name="N.sc" xMin="56" yMin="0" xMax="659" yMax="577">
      <contour>
        <pt x="56" y="577" on="1"/>
        <pt x="213" y="577" on="1"/>
        <pt x="418" y="358" on="1"/>
        <pt x="471" y="294" on="1"/>
        <pt x="480" y="294" on="1"/>
        <pt x="480" y="577" on="1"/>
        <pt x="659" y="577" on="1"/>
        <pt x="659" y="0" on="1"/>
        <pt x="503" y="0" on="1"/>
        <pt x="304" y="213" on="1"/>
        <pt x="244" y="285" on="1"/>
        <pt x="235" y="285" on="1"/>
        <pt x="235" y="0" on="1"/>
        <pt x="56" y="0" on="1"/>
      </contour>
    </TTGlyph>
    <TTGlyph name="Nacute" xMin="58" yMin="0" xMax="728" yMax="998">
      <contour>
        <pt x="290" y="809" on="1"/>
        <pt x="353" y="998" on="1"/>
        <pt x="568" y="998" on="1"/>
        <pt x="440" y="799" on="1"/>
      </contour>
      <contour>
        <pt x="58" y="740" on="1"/>
        <pt x="229" y="740" on="1"/>
        <pt x="479" y="415" on="1"/>
        <pt x="531" y="335" on="1"/>
        <pt x="541" y="335" on="1"/>
        <pt x="541" y="740" on="1"/>
        <pt x="728" y="740" on="1"/>
        <pt x="728" y="0" on="1"/>
        <pt x="558" y="0" on="1"/>
        <pt x="313" y="320" on="1"/>
        <pt x="255" y="407" on="1"/>
        <pt x="245" y="407" on="1"/>
        <pt x="245" y="0" on="1"/>
        <pt x="58" y="0" on="1"/>
      </contour>
    </TTGlyph>
    <TTGlyph name="Nacute.sc" xMin="56" yMin="0" xMax="659" yMax="794">
      <contour>
        <pt x="56" y="577" on="1"/>
        <pt x="213" y="577" on="1"/>
        <pt x="418" y="358" on="1"/>
        <pt x="471" y="294" on="1"/>
        <pt x="480" y="294" on="1"/>
        <pt x="480" y="577" on="1"/>
        <pt x="659" y="577" on="1"/>
        <pt x="659" y="0" on="1"/>
        <pt x="503" y="0" on="1"/>
        <pt x="304" y="213" on="1"/>
        <pt x="244" y="285" on="1"/>
        <pt x="235" y="285" on="1"/>
        <pt x="235" y="0" on="1"/>
        <pt x="56" y="0" on="1"/>
      </contour>
      <contour>
        <pt x="262" y="634" on="1"/>
        <pt x="318" y="794" on="1"/>
        <pt x="520" y="794" on="1"/>
        <pt x="403" y="625" on="1"/>
      </contour>
    </TTGlyph>
    <TTGlyph name="Ncaron" xMin="58" yMin="0" xMax="728" yMax="1004">
      <contour>
        <pt x="191" y="1004" on="1"/>
        <pt x="394" y="928" on="1"/>
        <pt x="597" y="1004" on="1"/>
        <pt x="597" y="868" on="1"/>
        <pt x="393" y="792" on="1"/>
        <pt x="191" y="868" on="1"/>
      </contour>
      <contour>
        <pt x="58" y="740" on="1"/>
        <pt x="229" y="740" on="1"/>
        <pt x="479" y="415" on="1"/>
        <pt x="531" y="335" on="1"/>
        <pt x="541" y="335" on="1"/>
        <pt x="541" y="740" on="1"/>
        <pt x="728" y="740" on="1"/>
        <pt x="728" y="0" on="1"/>
        <pt x="558" y="0" on="1"/>
        <pt x="313" y="320" on="1"/>
        <pt x="255" y="407" on="1"/>
        <pt x="245" y="407" on="1"/>
        <pt x="245" y="0" on="1"/>
        <pt x="58" y="0" on="1"/>
      </contour>
    </TTGlyph>
    <TTGlyph name="Ncaron.sc" xMin="56" yMin="0" xMax="659" yMax="801">
      <contour>
        <pt x="56" y="577" on="1"/>
        <pt x="213" y="577" on="1"/>
        <pt x="418" y="358" on="1"/>
        <pt x="471" y="294" on="1"/>
        <pt x="480" y="294" on="1"/>
        <pt x="480" y="577" on="1"/>
        <pt x="659" y="577" on="1"/>
        <pt x="659" y="0" on="1"/>
        <pt x="503" y="0" on="1"/>
        <pt x="304" y="213" on="1"/>
        <pt x="244" y="285" on="1"/>
        <pt x="235" y="285" on="1"/>
        <pt x="235" y="0" on="1"/>
        <pt x="56" y="0" on="1"/>
      </contour>
      <contour>
        <pt x="169" y="676" on="1"/>
        <pt x="169" y="801" on="1"/>
        <pt x="358" y="740" on="1"/>
        <pt x="548" y="801" on="1"/>
        <pt x="548" y="676" on="1"/>
        <pt x="357" y="615" on="1"/>
      </contour>
    </TTGlyph>
    <TTGlyph name="Ncommaaccent" xMin="58" yMin="-220" xMax="728" yMax="740">
      <contour>
        <pt x="293" y="-70" on="1"/>
        <pt x="508" y="-70" on="1"/>
        <pt x="409" y="-220" on="1"/>
        <pt x="253" y="-220" on="1"/>
      </contour>
      <contour>
        <pt x="58" y="740" on="1"/>
        <pt x="229" y="740" on="1"/>
        <pt x="479" y="415" on="1"/>
        <pt x="531" y="335" on="1"/>
        <pt x="541" y="335" on="1"/>
        <pt x="541" y="740" on="1"/>
        <pt x="728" y="740" on="1"/>
        <pt x="728" y="0" on="1"/>
        <pt x="558" y="0" on="1"/>
        <pt x="313" y="320" on="1"/>
        <pt x="255" y="407" on="1"/>
        <pt x="245" y="407" on="1"/>
        <pt x="245" y="0" on="1"/>
        <pt x="58" y="0" on="1"/>
      </contour>
    </TTGlyph>
    <TTGlyph name="Ncommaaccent.sc" xMin="56" yMin="-172" xMax="659" yMax="577">
      <contour>
        <pt x="56" y="577" on="1"/>
        <pt x="213" y="577" on="1"/>
        <pt x="418" y="358" on="1"/>
        <pt x="471" y="294" on="1"/>
        <pt x="480" y="294" on="1"/>
        <pt x="480" y="577" on="1"/>
        <pt x="659" y="577" on="1"/>
        <pt x="659" y="0" on="1"/>
        <pt x="503" y="0" on="1"/>
        <pt x="304" y="213" on="1"/>
        <pt x="244" y="285" on="1"/>
        <pt x="235" y="285" on="1"/>
        <pt x="235" y="0" on="1"/>
        <pt x="56" y="0" on="1"/>
      </contour>
      <contour>
        <pt x="262" y="-55" on="1"/>
        <pt x="465" y="-55" on="1"/>
        <pt x="373" y="-172" on="1"/>
        <pt x="226" y="-172" on="1"/>
      </contour>
    </TTGlyph>
    <TTGlyph name="Ndotaccent" xMin="58" yMin="0" xMax="728" yMax="1014">
      <contour>
        <pt x="389" y="796" on="1"/>
        <pt x="328" y="796" on="0"/>
        <pt x="277" y="848" on="0"/>
        <pt x="277" y="905" on="1"/>
        <pt x="277" y="962" on="0"/>
        <pt x="328" y="1014" on="0"/>
        <pt x="389" y="1014" on="1"/>
        <pt x="449" y="1014" on="0"/>
        <pt x="501" y="962" on="0"/>
        <pt x="501" y="905" on="1"/>
        <pt x="501" y="848" on="0"/>
        <pt x="449" y="796" on="0"/>
      </contour>
      <contour>
        <pt x="58" y="740" on="1"/>
        <pt x="229" y="740" on="1"/>
        <pt x="479" y="415" on="1"/>
        <pt x="531" y="335" on="1"/>
        <pt x="541" y="335" on="1"/>
        <pt x="541" y="740" on="1"/>
        <pt x="728" y="740" on="1"/>
        <pt x="728" y="0" on="1"/>
        <pt x="558" y="0" on="1"/>
        <pt x="313" y="320" on="1"/>
        <pt x="255" y="407" on="1"/>
        <pt x="245" y="407" on="1"/>
        <pt x="245" y="0" on="1"/>
        <pt x="58" y="0" on="1"/>
      </contour>
    </TTGlyph>
    <TTGlyph name="Ndotaccent.sc" xMin="56" yMin="0" xMax="659" yMax="818">
      <contour>
        <pt x="56" y="577" on="1"/>
        <pt x="213" y="577" on="1"/>
        <pt x="418" y="358" on="1"/>
        <pt x="471" y="294" on="1"/>
        <pt x="480" y="294" on="1"/>
        <pt x="480" y="577" on="1"/>
        <pt x="659" y="577" on="1"/>
        <pt x="659" y="0" on="1"/>
        <pt x="503" y="0" on="1"/>
        <pt x="304" y="213" on="1"/>
        <pt x="244" y="285" on="1"/>
        <pt x="235" y="285" on="1"/>
        <pt x="235" y="0" on="1"/>
        <pt x="56" y="0" on="1"/>
      </contour>
      <contour>
        <pt x="355" y="618" on="1"/>
        <pt x="298" y="618" on="0"/>
        <pt x="250" y="664" on="0"/>
        <pt x="250" y="718" on="1"/>
        <pt x="250" y="771" on="0"/>
        <pt x="298" y="818" on="0"/>
        <pt x="355" y="818" on="1"/>
        <pt x="412" y="818" on="0"/>
        <pt x="460" y="769" on="0"/>
        <pt x="460" y="718" on="1"/>
        <pt x="460" y="666" on="0"/>
        <pt x="412" y="618" on="0"/>
      </contour>
    </TTGlyph>
</ttFont>
